<svg width="662" height="466" viewBox="0 0 662 466" fill="none" xmlns="http://www.w3.org/2000/svg">
<g clip-path="url(#clip0)">
<path d="M338.097 465.012C358.008 465.012 374.149 448.89 374.149 429.001C374.149 409.113 358.008 392.99 338.097 392.99C318.186 392.99 302.045 409.113 302.045 429.001C302.045 448.89 318.186 465.012 338.097 465.012Z" fill="#458FF6"/>
<path d="M553.472 462.99C573.641 456.939 595.083 450.63 611.079 436.247C625.372 423.394 635.022 403.767 629.101 384.491C623.191 365.255 605.491 352.429 587.217 346.049C576.852 342.431 566.008 340.424 555.169 338.847C543.385 337.133 531.55 335.728 519.72 334.377C471.82 328.904 423.739 325.561 375.479 324.348C351.665 323.749 327.856 323.763 304.04 324.108C282.77 324.417 260.368 324.409 240.636 315.379C225.292 308.357 211.366 295.582 207.09 278.794C202.155 259.415 211.258 239.68 224.316 225.645C231.2 218.247 239.244 212.02 247.543 206.295C256.546 200.083 265.863 194.312 275.382 188.925C294.13 178.319 313.73 169.293 333.979 161.941C343.968 158.313 354.106 155.183 364.331 152.295C372.966 149.857 381.627 147.415 389.972 144.093C406.104 137.671 421.447 126.792 425.549 108.957C429.437 92.0546 422.882 73.7053 411.391 61.1484C398.097 46.6211 378.052 40.2528 358.834 39.2224C337.259 38.0656 316.181 43.4592 295.903 50.3043C274.274 57.6052 253.112 65.9998 231.027 71.9135C209.126 77.7718 186.801 81.9169 164.256 84.3111C153.219 85.485 141.849 86.8105 130.746 85.9118C121.441 85.1586 112.184 82.4252 105.327 75.829C99.4467 70.1731 95.9439 62.4 97.1482 54.197C97.3669 52.7071 99.6328 53.3405 99.4154 54.8214C97.9495 64.8067 104.745 74.0079 113.118 78.7212C122.796 84.1685 134.572 84.1759 145.347 83.553C168.709 82.1435 191.913 78.7929 214.719 73.5359C237.128 68.4234 258.736 61.115 280.32 53.3078C300.819 45.893 321.777 38.6562 343.677 37.0502C362.68 35.6566 382.669 38.4219 399.224 48.3413C413.773 57.0591 424.471 71.5976 427.88 88.2808C431.212 104.583 426.598 120.992 414.244 132.369C401.452 144.148 383.913 149.184 367.567 153.822C346.836 159.704 326.549 166.581 306.912 175.509C287.008 184.533 267.919 195.253 249.856 207.549C232.421 219.451 215.215 234.425 209.7 255.656C207.132 265.546 207.606 276.036 211.904 285.377C215.725 293.683 222.019 300.67 229.351 306.059C246.845 318.917 268.893 321.557 290.023 321.819C313.756 322.114 337.489 321.314 361.229 321.703C409.611 322.496 457.894 325.438 506.078 330.528C518.152 331.805 530.21 333.216 542.253 334.761C553.086 336.151 563.954 337.533 574.604 340.002C593.541 344.392 611.968 352.834 623.738 368.872C628.962 375.823 632.198 384.061 633.101 392.706C633.925 401.728 631.714 410.766 627.631 418.792C618.593 436.555 601.663 447.853 583.684 455.276C574.055 459.252 564.066 462.264 554.097 465.254C552.645 465.69 552.024 463.424 553.472 462.99L553.472 462.99Z" fill="#F2F2F2"/>
<path d="M98.6664 73.1959C109.055 73.1959 117.476 64.7841 117.476 54.4075C117.476 44.031 109.055 35.6191 98.6664 35.6191C88.2782 35.6191 79.8568 44.031 79.8568 54.4075C79.8568 64.7841 88.2782 73.1959 98.6664 73.1959Z" fill="#F2F2F2"/>
<path d="M229.158 108.816C239.546 108.816 247.967 100.404 247.967 90.0276C247.967 79.6511 239.546 71.2393 229.158 71.2393C218.77 71.2393 210.348 79.6511 210.348 90.0276C210.348 100.404 218.77 108.816 229.158 108.816Z" fill="#F2F2F2"/>
<path d="M339.664 37.5768C350.053 37.5768 358.474 29.1649 358.474 18.7884C358.474 8.41184 350.053 0 339.664 0C329.276 0 320.855 8.41184 320.855 18.7884C320.855 29.1649 329.276 37.5768 339.664 37.5768Z" fill="#F2F2F2"/>
<path d="M408.633 117.427C419.021 117.427 427.442 109.015 427.442 98.639C427.442 88.2624 419.021 79.8506 408.633 79.8506C398.245 79.8506 389.823 88.2624 389.823 98.639C389.823 109.015 398.245 117.427 408.633 117.427Z" fill="#F2F2F2"/>
<path d="M315.369 209.803C325.757 209.803 334.178 201.391 334.178 191.015C334.178 180.638 325.757 172.227 315.369 172.227C304.98 172.227 296.559 180.638 296.559 191.015C296.559 201.391 304.98 209.803 315.369 209.803Z" fill="#F2F2F2"/>
<path d="M197.025 254.426C207.413 254.426 215.835 246.014 215.835 235.638C215.835 225.261 207.413 216.85 197.025 216.85C186.637 216.85 178.215 225.261 178.215 235.638C178.215 246.014 186.637 254.426 197.025 254.426Z" fill="#F2F2F2"/>
<path d="M322.422 324.099C332.81 324.099 341.232 315.687 341.232 305.311C341.232 294.934 332.81 286.522 322.422 286.522C312.034 286.522 303.613 294.934 303.613 305.311C303.613 315.687 312.034 324.099 322.422 324.099Z" fill="#F2F2F2"/>
<path d="M457.224 363.242C467.612 363.242 476.034 354.83 476.034 344.453C476.034 334.077 467.612 325.665 457.224 325.665C446.836 325.665 438.415 334.077 438.415 344.453C438.415 354.83 446.836 363.242 457.224 363.242Z" fill="#F2F2F2"/>
<path d="M614.755 354.63C625.143 354.63 633.564 346.219 633.564 335.842C633.564 325.466 625.143 317.054 614.755 317.054C604.366 317.054 595.945 325.466 595.945 335.842C595.945 346.219 604.366 354.63 614.755 354.63Z" fill="#F2F2F2"/>
<path d="M334.235 53.2361C277.891 53.6337 231.757 99.3693 230.957 155.646C230.949 156.165 230.946 159.819 230.946 164.597C230.947 171.603 233.733 178.322 238.693 183.276C243.652 188.23 250.379 191.014 257.393 191.015H257.393C260.87 191.014 264.312 190.329 267.524 188.999C270.736 187.668 273.654 185.719 276.111 183.262C278.568 180.805 280.517 177.888 281.845 174.679C283.173 171.469 283.855 168.029 283.852 164.556C283.85 161.306 283.848 159.056 283.848 158.918C283.846 150.221 286.111 141.673 290.42 134.115C294.728 126.557 300.933 120.249 308.422 115.813C315.911 111.377 324.428 108.964 333.134 108.813C341.84 108.661 350.435 110.776 358.075 114.949C365.714 119.122 372.134 125.21 376.704 132.614C381.274 140.017 383.835 148.481 384.136 157.173C384.438 165.866 382.469 174.487 378.423 182.188C374.377 189.89 368.394 196.406 361.062 201.098L361.071 201.109C361.071 201.109 323.429 225.314 311.954 258.519L311.963 258.522C309.945 265.324 308.923 272.382 308.927 279.477C308.927 282.393 309.099 307.911 309.431 328.622C309.547 335.768 312.471 342.583 317.572 347.595C322.673 352.607 329.542 355.415 336.697 355.413H336.697C340.293 355.413 343.852 354.703 347.172 353.323C350.491 351.944 353.505 349.922 356.039 347.375C358.574 344.828 360.579 341.805 361.939 338.481C363.3 335.156 363.989 331.596 363.966 328.005C363.851 309.037 363.789 286.951 363.789 285.348C363.789 264.959 383.48 244.644 399.655 231.396C418.281 216.141 431.685 195.352 437.068 171.9C438.26 167.072 438.917 162.128 439.027 157.157C439.027 143.446 436.311 129.871 431.035 117.214C425.76 104.556 418.029 93.0666 408.288 83.4069C398.547 73.7471 386.989 66.1081 374.28 60.93C361.57 55.7519 347.961 53.1371 334.235 53.2361Z" fill="#458FF6"/>
<path d="M661.067 466H0.933165C0.686139 465.999 0.449481 465.901 0.27506 465.726C0.100638 465.551 0.00268555 465.315 0.00268555 465.068C0.00268555 464.821 0.100638 464.584 0.27506 464.41C0.449481 464.235 0.686139 464.136 0.933165 464.136H661.067C661.314 464.136 661.552 464.234 661.727 464.409C661.902 464.584 662 464.821 662 465.068C662 465.315 661.902 465.552 661.727 465.727C661.552 465.902 661.314 466 661.067 466Z" fill="#3F3D56"/>
<path d="M492.536 213.714C505.521 213.714 516.048 203.199 516.048 190.229C516.048 177.258 505.521 166.743 492.536 166.743C479.551 166.743 469.024 177.258 469.024 190.229C469.024 203.199 479.551 213.714 492.536 213.714Z" fill="#2F2E41"/>
<path d="M449.089 455.72H439.481L434.909 418.7H449.091L449.089 455.72Z" fill="#A0616A"/>
<path d="M432.617 452.977H451.148V464.631H420.95C420.95 463.1 421.252 461.585 421.838 460.171C422.424 458.757 423.284 457.472 424.367 456.39C425.451 455.308 426.737 454.449 428.152 453.864C429.568 453.278 431.085 452.977 432.617 452.977Z" fill="#2F2E41"/>
<path d="M523.543 455.72H513.935L509.364 418.7H523.545L523.543 455.72Z" fill="#A0616A"/>
<path d="M507.072 452.977H525.602V464.631H495.405C495.405 463.1 495.706 461.585 496.293 460.171C496.879 458.757 497.738 457.472 498.822 456.39C499.905 455.308 501.191 454.449 502.607 453.864C504.022 453.278 505.54 452.977 507.072 452.977Z" fill="#2F2E41"/>
<path d="M488.963 213.852C499.594 213.852 508.212 205.243 508.212 194.624C508.212 184.005 499.594 175.396 488.963 175.396C478.332 175.396 469.714 184.005 469.714 194.624C469.714 205.243 478.332 213.852 488.963 213.852Z" fill="#A0616A"/>
<path d="M500.436 275.881L509.049 256.114C511.141 251.477 511.741 246.305 510.765 241.313C509.79 236.321 507.287 231.755 503.603 228.244C502.846 227.497 502.042 226.799 501.196 226.154C496.947 222.833 491.709 221.023 486.313 221.011C482.686 221.025 479.103 221.821 475.811 223.344C475.529 223.469 475.255 223.602 474.973 223.735C474.432 223.993 473.899 224.275 473.382 224.565C470.008 226.5 467.136 229.2 464.999 232.447C462.862 235.695 461.518 239.398 461.077 243.259L457.276 275.074C456.32 277.572 422.212 367.756 434.14 436.607C434.267 437.343 434.626 438.018 435.165 438.535C435.704 439.052 436.394 439.383 437.134 439.481L449.227 441.124C450.11 441.245 451.006 441.027 451.735 440.514C452.463 440.002 452.97 439.232 453.154 438.361L473.445 341.75C473.571 341.149 473.895 340.609 474.365 340.214C474.836 339.82 475.425 339.594 476.039 339.573C476.652 339.553 477.255 339.738 477.751 340.1C478.247 340.462 478.607 340.979 478.774 341.57L507.443 443.168C507.647 443.906 508.088 444.557 508.698 445.021C509.308 445.484 510.054 445.736 510.821 445.735C511.049 445.734 511.278 445.713 511.503 445.673L526.276 442.831C527.135 442.671 527.903 442.196 528.429 441.499C528.955 440.802 529.202 439.935 529.121 439.066C526.95 414.883 515.413 293.753 500.436 275.881Z" fill="#2F2E41"/>
<path d="M414.155 210.625C414.022 211.768 414.141 212.927 414.504 214.019C414.867 215.111 415.465 216.111 416.257 216.947C417.049 217.783 418.014 218.436 419.086 218.859C420.157 219.282 421.309 219.465 422.459 219.396L433.218 245.224L441.358 233.172L429.892 210.493C429.647 208.571 428.705 206.805 427.244 205.531C425.783 204.256 423.905 203.561 421.965 203.577C420.025 203.594 418.159 204.32 416.72 205.619C415.28 206.918 414.368 208.699 414.155 210.625L414.155 210.625Z" fill="#A0616A"/>
<path d="M487.896 301.887C489.04 301.75 490.14 301.365 491.119 300.758C492.097 300.151 492.931 299.336 493.561 298.373C494.19 297.409 494.601 296.319 494.763 295.179C494.925 294.04 494.835 292.879 494.5 291.778L517.138 275.308L503.509 270.21L484.101 286.632C482.286 287.317 480.787 288.644 479.886 290.36C478.986 292.076 478.747 294.063 479.215 295.943C479.682 297.824 480.825 299.467 482.425 300.563C484.025 301.658 485.971 302.129 487.896 301.887Z" fill="#A0616A"/>
<path d="M450.991 262.443C450.123 262.442 449.257 262.357 448.406 262.188C446.347 261.797 444.416 260.905 442.783 259.593C441.15 258.28 439.865 256.586 439.042 254.66L423.968 236.3C423.649 235.912 423.417 235.46 423.287 234.975C423.158 234.49 423.133 233.983 423.216 233.488C423.298 232.993 423.486 232.521 423.765 232.104C424.045 231.687 424.411 231.334 424.838 231.07L435.563 224.439C435.959 224.194 436.4 224.03 436.86 223.956C437.32 223.882 437.789 223.9 438.242 224.008C438.695 224.117 439.122 224.314 439.498 224.588C439.875 224.862 440.193 225.208 440.434 225.605L451.059 243.09L471.406 228.069C473.026 227.221 474.898 226.983 476.679 227.399C478.46 227.815 480.032 228.857 481.107 230.335C482.183 231.813 482.69 233.628 482.536 235.449C482.382 237.27 481.578 238.974 480.27 240.252L459.962 258.756C457.575 261.119 454.351 262.444 450.991 262.443Z" fill="#2F2E41"/>
<path d="M505.97 290.056C505.942 290.056 505.915 290.056 505.887 290.055C505.393 290.043 504.906 289.928 504.459 289.716C504.012 289.504 503.615 289.201 503.292 288.826L493.757 277.715C493.433 277.336 493.192 276.894 493.051 276.415C492.91 275.937 492.873 275.435 492.941 274.941C493.009 274.447 493.182 273.973 493.447 273.551C493.712 273.129 494.063 272.767 494.479 272.491L512.333 260.602L496.158 241.177C495.217 239.61 494.872 237.757 495.186 235.957C495.499 234.157 496.451 232.53 497.867 231.373C499.282 230.216 501.067 229.606 502.896 229.655C504.725 229.704 506.474 230.409 507.826 231.64L527.485 250.83C529.032 252.241 530.213 254.007 530.927 255.975C531.64 257.944 531.865 260.055 531.582 262.129C531.299 264.203 530.516 266.178 529.3 267.883C528.085 269.588 526.473 270.974 524.604 271.92L508.537 288.95C508.207 289.299 507.809 289.577 507.368 289.768C506.926 289.958 506.451 290.056 505.97 290.056Z" fill="#2F2E41"/>
<path d="M484.069 249.114C483.916 249.114 483.763 249.104 483.611 249.085C482.947 249.004 482.32 248.735 481.805 248.309C481.289 247.883 480.907 247.319 480.703 246.682L473.538 224.74C473.358 224.185 473.386 223.584 473.616 223.048C473.845 222.512 474.261 222.077 474.787 221.824L475.02 221.714C475.23 221.614 475.439 221.515 475.652 221.42C478.993 219.873 482.63 219.065 486.313 219.054C491.095 219.063 495.769 220.466 499.763 223.091C500.299 223.447 500.673 223.998 500.805 224.627C500.937 225.256 500.817 225.912 500.47 226.453L487.029 247.486C486.714 247.985 486.277 248.397 485.759 248.681C485.241 248.966 484.66 249.115 484.069 249.114Z" fill="#E6E6E6"/>
<path d="M511.073 179.744C515.322 179.744 518.767 176.303 518.767 172.059C518.767 167.815 515.322 164.374 511.073 164.374C506.824 164.374 503.38 167.815 503.38 172.059C503.38 176.303 506.824 179.744 511.073 179.744Z" fill="#2F2E41"/>
<path d="M484.699 163.612C479.295 163.612 474.112 165.757 470.29 169.574C466.469 173.391 464.322 178.568 464.322 183.966V192.578H474.925L479.996 183.966L481.518 192.578H513.697L505.076 183.966C505.076 178.568 502.929 173.391 499.108 169.574C495.286 165.757 490.103 163.612 484.699 163.612Z" fill="#2F2E41"/>
<path d="M515.028 166.795C515.878 164.138 517.64 161.865 520.002 160.377C522.365 158.888 525.177 158.279 527.944 158.657C532.847 159.476 536.724 163.413 539.034 167.809C541.343 172.206 542.41 177.127 543.963 181.844C545.515 186.561 547.718 191.304 551.638 194.357C555.558 197.411 561.573 198.239 565.423 195.098C564.984 198.371 563.525 201.424 561.253 203.824C558.981 206.224 556.011 207.85 552.764 208.471C549.516 209.093 546.155 208.679 543.156 207.288C540.157 205.897 537.672 203.599 536.051 200.72C534.02 197.109 533.495 192.878 532.893 188.781C532.291 184.683 531.508 180.443 529.082 177.084C526.657 173.726 522.117 171.532 518.264 173.062L515.028 166.795Z" fill="#2F2E41"/>
<path d="M264.86 178.52C257.846 178.519 251.119 175.735 246.16 170.781C241.2 165.827 238.414 159.108 238.413 152.102C238.413 147.323 238.416 143.67 238.424 143.15C238.647 126.784 242.773 110.706 250.461 96.251C237.83 113.523 230.885 134.289 230.586 155.676C230.579 156.196 230.576 159.849 230.576 164.627C230.576 171.633 233.363 178.353 238.322 183.307C243.282 188.261 250.008 191.045 257.022 191.045C262.786 191.043 268.391 189.162 272.987 185.687C277.583 182.213 280.917 177.335 282.484 171.795C277.642 176.132 271.364 178.528 264.86 178.52Z" fill="#3F3D56"/>
<path d="M336.028 108.902C344.136 109.288 352.03 111.635 359.03 115.74C366.031 119.846 371.93 125.587 376.22 132.471C380.51 139.355 383.063 147.176 383.661 155.263C384.258 163.349 382.882 171.46 379.65 178.898C384.324 173.414 387.761 166.988 389.724 160.057C391.687 153.126 392.13 145.854 391.025 138.736C389.919 131.619 387.29 124.823 383.316 118.812C379.343 112.801 374.118 107.717 368 103.906C361.881 100.095 355.011 97.6464 347.859 96.7276C340.707 95.8088 333.441 96.4413 326.555 98.5819C319.67 100.722 313.328 104.321 307.961 109.132C302.594 113.942 298.329 119.853 295.456 126.459C300.422 120.625 306.662 116.008 313.696 112.963C320.73 109.919 328.371 108.53 336.028 108.902Z" fill="#3F3D56"/>
<path d="M344.164 342.918C337.009 342.92 330.14 340.111 325.039 335.099C319.938 330.087 317.014 323.273 316.898 316.127C316.566 295.416 316.395 269.898 316.395 266.982C316.39 259.887 317.412 252.829 319.43 246.026L319.421 246.024C320.612 242.61 322.052 239.286 323.727 236.081C318.584 242.926 314.492 250.499 311.584 258.55L311.593 258.552C309.575 265.354 308.553 272.412 308.557 279.507C308.557 282.424 308.729 307.941 309.061 328.653C309.177 335.799 312.101 342.613 317.202 347.625C322.303 352.637 329.172 355.445 336.327 355.443C342.227 355.442 347.967 353.531 352.687 349.995C357.407 346.46 360.852 341.491 362.505 335.834C357.492 340.401 350.949 342.927 344.164 342.918Z" fill="#3F3D56"/>
<path d="M99.1743 456.076L108.782 456.075L113.354 419.056L99.172 419.056L99.1743 456.076Z" fill="#FFB8B8"/>
<path d="M127.313 464.987L97.1154 464.989L97.1149 453.334L115.645 453.334C118.74 453.334 121.707 454.561 123.896 456.747C126.084 458.932 127.313 461.896 127.313 464.987L127.313 464.987Z" fill="#2F2E41"/>
<path d="M64.6901 456.076L74.2979 456.075L78.8694 419.056L64.6877 419.056L64.6901 456.076Z" fill="#FFB8B8"/>
<path d="M92.829 464.987L62.6312 464.989L62.6307 453.334L81.1611 453.334C84.2555 453.334 87.2232 454.561 89.4113 456.747C91.5995 458.932 92.8288 461.896 92.829 464.987L92.829 464.987Z" fill="#2F2E41"/>
<path d="M73.0864 444.69L63.7012 444.197C63.2173 444.172 62.7432 444.051 62.3064 443.841C61.8697 443.631 61.4789 443.337 61.1568 442.975C60.8347 442.614 60.5877 442.192 60.43 441.734C60.2723 441.276 60.2072 440.792 60.2383 440.309L71.4556 316.254L123.112 330.177L128.089 328.821L112.525 438.643C112.393 439.469 111.982 440.225 111.361 440.787C110.74 441.348 109.946 441.681 109.11 441.731L98.9927 442.202C98.4868 442.23 97.9806 442.153 97.5061 441.975C97.0315 441.798 96.599 441.524 96.2357 441.172C95.8725 440.819 95.5865 440.395 95.3958 439.926C95.2051 439.457 95.1138 438.954 95.1277 438.448L96.9609 372.535C96.9695 372.23 96.8635 371.933 96.6637 371.702C96.464 371.472 96.1851 371.324 95.8819 371.289C95.5787 371.253 95.2732 371.333 95.0257 371.511C94.7781 371.69 94.6065 371.954 94.5445 372.253L76.8659 441.779C76.699 442.604 76.2509 443.346 75.5979 443.878C74.9449 444.41 74.1274 444.699 73.2849 444.696C73.2192 444.696 73.153 444.694 73.0864 444.69Z" fill="#2F2E41"/>
<path d="M100.899 214.751C111.531 214.751 120.149 206.143 120.149 195.523C120.149 184.904 111.531 176.296 100.899 176.296C90.2683 176.296 81.6501 184.904 81.6501 195.523C81.6501 206.143 90.2683 214.751 100.899 214.751Z" fill="#FFB8B8"/>
<path d="M68.8506 252.013L70.9672 297.628L71.7323 314.223C71.7628 314.945 72.0083 315.642 72.4375 316.225C72.8668 316.807 73.4601 317.248 74.1417 317.492L123.78 335.453C124.181 335.602 124.606 335.676 125.034 335.672C125.523 335.675 126.007 335.579 126.458 335.39C126.909 335.201 127.317 334.924 127.658 334.574C128 334.224 128.267 333.809 128.444 333.354C128.621 332.898 128.704 332.412 128.689 331.924L126.654 249.907C126.52 243.178 124.04 236.707 119.642 231.608C115.244 226.509 109.202 223.104 102.559 221.977C102.079 221.904 101.59 221.831 101.102 221.766C96.9827 221.255 92.8015 221.652 88.8525 222.929C84.9034 224.206 81.2825 226.332 78.2444 229.157C75.0985 232.047 72.6265 235.592 71.0033 239.542C69.3801 243.491 68.6452 247.749 68.8506 252.013L68.8506 252.013Z" fill="#CCCCCC"/>
<path d="M147.492 326.351C146.318 325.987 145.246 325.354 144.36 324.503C143.475 323.651 142.8 322.605 142.392 321.447C141.983 320.289 141.851 319.051 142.006 317.833C142.161 316.615 142.599 315.45 143.285 314.431L126.452 292.073L140.978 291.175L154.736 312.544C156.208 313.682 157.233 315.301 157.631 317.118C158.028 318.934 157.772 320.833 156.908 322.48C156.044 324.127 154.626 325.418 152.905 326.126C151.183 326.834 149.267 326.913 147.493 326.351H147.492Z" fill="#FFB8B8"/>
<path d="M135.657 310.384C135.211 310.204 134.806 309.936 134.464 309.598C134.122 309.259 133.851 308.857 133.666 308.413L108.305 248.06C107.808 246.878 107.548 245.61 107.541 244.328C107.535 243.046 107.781 241.775 108.266 240.588C108.751 239.402 109.466 238.322 110.369 237.411C111.272 236.5 112.346 235.776 113.529 235.28C114.712 234.784 115.982 234.525 117.265 234.52C118.549 234.514 119.821 234.761 121.008 235.246C122.196 235.732 123.277 236.446 124.188 237.349C125.099 238.252 125.823 239.325 126.319 240.507L151.679 300.861C152.054 301.756 152.058 302.763 151.691 303.661C151.323 304.559 150.614 305.275 149.719 305.651L138.461 310.371C138.018 310.558 137.542 310.656 137.06 310.658C136.579 310.661 136.102 310.567 135.657 310.384L135.657 310.384Z" fill="#CCCCCC"/>
<path d="M94.7106 308.256L119.068 261.669C119.538 260.773 120.344 260.1 121.31 259.797C122.277 259.494 123.323 259.587 124.221 260.054L159.577 278.498C160.474 278.967 161.148 279.773 161.451 280.738C161.754 281.702 161.662 282.748 161.194 283.645L136.836 330.232C136.366 331.127 135.56 331.801 134.594 332.104C133.628 332.406 132.581 332.314 131.683 331.847L96.3277 313.403C95.4308 312.934 94.7568 312.128 94.4536 311.163C94.1505 310.198 94.2428 309.153 94.7106 308.256Z" fill="#3F3D56"/>
<path d="M111.046 286.972C110.613 285.823 109.917 284.79 109.014 283.958C108.11 283.125 107.024 282.515 105.843 282.175C104.662 281.836 103.417 281.777 102.209 282.004C101.001 282.231 99.8625 282.736 98.8846 283.48L75.5463 268.016L75.5066 282.553L97.6752 295.01C98.8989 296.411 100.578 297.337 102.417 297.626C104.256 297.915 106.138 297.548 107.733 296.589C109.328 295.63 110.535 294.14 111.14 292.382C111.746 290.623 111.713 288.708 111.046 286.972Z" fill="#FFB8B8"/>
<path d="M81.5382 290.241L62.4647 275.15C60.4013 274.458 58.5369 273.276 57.0314 271.706C55.526 270.135 54.4245 268.224 53.8215 266.135C53.2185 264.046 53.1321 261.842 53.5696 259.712C54.007 257.582 54.9554 255.59 56.3332 253.907L73.6515 231.236C74.8549 229.767 76.5475 228.78 78.4197 228.455C80.2919 228.13 82.2187 228.488 83.8479 229.465C85.4771 230.442 86.6999 231.973 87.2927 233.776C87.8855 235.579 87.8088 237.536 87.0765 239.287L73.3739 261.677L93.5111 271.217C93.9794 271.439 94.3952 271.758 94.731 272.152C95.0669 272.546 95.3152 273.007 95.4595 273.504C95.6038 274.001 95.6409 274.524 95.5682 275.036C95.4955 275.549 95.3148 276.04 95.0379 276.478L86.9092 289.327C86.6345 289.761 86.2715 290.132 85.844 290.417C85.4165 290.702 84.9338 290.893 84.4274 290.98C84.4073 290.984 84.387 290.987 84.3668 290.99C83.8692 291.065 83.3614 291.037 82.8749 290.908C82.3883 290.78 81.9334 290.553 81.5382 290.241Z" fill="#CCCCCC"/>
<path d="M86.3541 208.399C86.2715 208.158 86.2453 207.901 86.2775 207.647C86.3097 207.394 86.3995 207.152 86.5399 206.939C86.6804 206.726 86.8677 206.548 87.0877 206.419C87.3077 206.289 87.5544 206.212 87.809 206.192C88.3304 206.22 88.8406 206.354 89.3088 206.585C89.777 206.815 90.1936 207.139 90.5333 207.535C91.23 208.337 92.041 209.032 92.9403 209.599C93.8715 210.068 95.1344 210.001 95.6652 209.107C96.1637 208.268 95.8222 207.144 95.5204 206.169C94.7525 203.688 94.3228 201.116 94.243 198.52C94.156 195.624 94.5652 192.6 96.1707 190.341C98.2428 187.425 101.948 186.318 105.454 186.398C108.961 186.479 112.41 187.56 115.884 188.243C117.083 188.479 118.492 188.6 119.294 187.672C120.147 186.685 119.834 185.087 119.471 183.754C118.53 180.296 117.531 176.721 115.344 173.928C112.98 171.026 109.602 169.126 105.892 168.612C102.33 168.172 98.7136 168.582 95.341 169.809C89.8461 171.539 85.011 174.903 81.4824 179.452C77.8448 184.29 76.273 190.37 77.1106 196.362C77.9289 201.581 80.6976 206.296 84.8584 209.557L86.3541 208.399Z" fill="#2F2E41"/>
<path d="M330.154 456.229C325.033 454.001 320.5 450.614 316.913 446.337C313.326 442.059 310.784 437.007 309.487 431.58C308.189 426.153 308.172 420.499 309.437 415.064C310.702 409.629 313.214 404.563 316.775 400.264C312.647 403.275 309.206 407.129 306.682 411.57C304.159 416.01 302.61 420.937 302.138 426.021C301.666 431.106 302.282 436.233 303.945 441.061C305.608 445.89 308.281 450.31 311.785 454.028C315.289 457.746 319.545 460.677 324.27 462.627C328.995 464.576 334.081 465.5 339.19 465.336C344.3 465.172 349.316 463.925 353.906 461.676C358.496 459.428 362.555 456.23 365.813 452.295C360.731 456.005 354.765 458.32 348.508 459.011C342.252 459.701 335.924 458.742 330.154 456.229Z" fill="#3F3D56"/>
</g>
<defs>
<clipPath id="clip0">
<rect width="662" height="466" fill="white"/>
</clipPath>
</defs>
</svg>
