<svg width="98" height="98" viewBox="0 0 98 98" fill="none" xmlns="http://www.w3.org/2000/svg">
<g clip-path="url(#clip0)">
<path d="M89.3364 66.3535L69.5483 61.9581V58.8107C72.5575 56.8426 74.9146 53.9692 76.2436 50.5787H80.6128C84.0998 50.5787 86.9354 47.7431 86.9354 44.2561V33.1916C86.9354 30.8615 85.6549 28.8448 83.7741 27.7481V20.8359C83.7741 17.3929 81.7165 14.325 78.5899 12.999L78.2133 12.245C74.4469 4.71144 66.874 0.03125 58.4506 0.03125C46.2669 0.0327937 36.3547 9.94501 36.3547 22.1286V27.7497C34.4738 28.8464 33.1934 30.8631 33.1934 33.1932V44.2577C33.1934 47.7447 36.029 50.5802 39.516 50.5802H43.8852C45.2142 53.9708 47.5713 56.8442 50.5805 58.8123V61.9597L30.7924 66.3551C25.6915 67.4881 22.1289 71.9313 22.1289 77.1556V97.9996H97.9999V77.1556C97.9999 71.9313 94.4372 67.4881 89.3364 66.3535ZM70.9074 65.4984L68.5588 74.8919L62.5442 70.884L68.4716 64.9566L70.9074 65.4984ZM58.199 82.1932H61.9314L64.4598 94.8383H55.6705L58.199 82.1932ZM61.9916 79.0319H58.1372L57.1246 74.9869L60.0644 73.0288L63.0026 74.9884L61.9916 79.0319ZM83.7741 44.2577C83.7741 46.0012 82.3563 47.419 80.6128 47.419H77.1497C77.3396 46.3917 77.4515 45.339 77.4515 44.2577V30.0319H80.6128C82.3563 30.0319 83.7741 31.4497 83.7741 33.1932V44.2577ZM39.516 22.1286C39.516 11.6885 48.0104 3.19408 58.4506 3.19408C65.6677 3.19408 72.1577 7.20435 75.3854 13.6612L76.3324 15.5514L76.9537 15.759C79.141 16.4891 80.6128 18.5297 80.6128 20.839V26.8706H77.4515V22.1286H74.2902V25.8587C73.1124 26.4615 71.8258 26.7996 70.4999 26.8482C71.2285 26.1844 71.8845 25.4289 72.4441 24.5868L69.8138 22.8333C68.1891 25.2706 65.5063 26.7471 62.5936 26.8513C63.3237 26.186 63.9797 25.4289 64.5408 24.5868L61.9105 22.8333C60.2859 25.2706 57.6031 26.7471 54.6904 26.8513C55.4205 26.186 56.0765 25.4289 56.6376 24.5868L54.0073 22.8333C52.3225 25.3609 49.5008 26.8706 46.463 26.8706H45.8386V22.1286H42.6773V26.8706H39.516V22.1286ZM39.516 47.419C37.7725 47.419 36.3547 46.0012 36.3547 44.2577V33.1932C36.3547 31.4497 37.7725 30.0319 39.516 30.0319H42.6773V44.2577C42.6773 45.339 42.7892 46.3917 42.9791 47.419H39.516ZM45.8386 44.2577V30.0319H46.463C48.4843 30.0319 50.4316 29.5325 52.1612 28.6218V30.0319H54.3662C56.3875 30.0319 58.3348 29.5325 60.0644 28.6218V30.0319H62.2694C64.2908 30.0319 66.238 29.5325 67.9676 28.6218V30.0319H70.1726C71.5889 30.0319 72.9735 29.7586 74.2902 29.2855V44.2577C74.2902 45.3451 74.1559 46.401 73.9236 47.419H66.0945C65.44 45.5836 63.7011 44.2577 61.6435 44.2577H58.4822C55.8681 44.2577 53.7403 46.3855 53.7403 48.9996C53.7403 51.6137 55.8681 53.7415 58.4822 53.7415H61.6435C63.7011 53.7415 65.44 52.4156 66.0945 50.5802H72.7883C70.4559 55.2558 65.6345 58.4835 60.0644 58.4835C52.2198 58.4835 45.8386 52.1022 45.8386 44.2577ZM63.2257 48.9996C63.2257 49.8702 62.5172 50.5802 61.645 50.5802H58.4837C57.6116 50.5802 56.9031 49.8702 56.9031 48.9996C56.9031 48.129 57.6116 47.419 58.4837 47.419H61.645C62.5172 47.419 63.2257 48.129 63.2257 48.9996ZM60.0644 61.6448C62.2964 61.6448 64.4235 61.2072 66.387 60.4369V62.5709L60.0644 68.8935L53.7418 62.5709V60.4369C55.7053 61.2072 57.8323 61.6448 60.0644 61.6448ZM51.6572 64.9566L57.5846 70.884L51.57 74.8919L49.2214 65.4984L51.6572 64.9566ZM25.2902 77.1556C25.2902 73.424 27.8348 70.2496 31.4785 69.4407L46.1357 66.1829L49.5911 80.0105L54.333 76.8492L55.2831 80.6519L52.446 94.8383H37.9354V77.4512H34.7741V94.8383H25.2902V77.1556ZM94.8386 94.8383H85.3547V77.4512H82.1934V94.8383H67.6828L64.8457 80.6519L65.7958 76.8492L70.5377 80.0105L73.9931 66.1829L88.6503 69.4407C92.294 70.2496 94.8386 73.424 94.8386 77.1556V94.8383Z" fill="#969696" stroke="white"/>
<path d="M71.1291 34.774C71.1291 35.6469 70.4213 36.3546 69.5484 36.3546C68.6755 36.3546 67.9678 35.6469 67.9678 34.774C67.9678 33.9011 68.6755 33.1934 69.5484 33.1934C70.4213 33.1934 71.1291 33.9011 71.1291 34.774Z" fill="#969696" stroke="white"/>
<path d="M52.1613 34.774C52.1613 35.6469 51.4536 36.3546 50.5806 36.3546C49.7077 36.3546 49 35.6469 49 34.774C49 33.9011 49.7077 33.1934 50.5806 33.1934C51.4536 33.1934 52.1613 33.9011 52.1613 34.774Z" fill="#969696" stroke="white"/>
<path d="M6.32275 6.32227H22.1292V9.48356H6.32275V6.32227Z" fill="#969696" stroke="white"/>
<path d="M6.32275 12.6455H22.1292V15.8068H6.32275V12.6455Z" fill="#969696" stroke="white"/>
<path d="M23.7097 27.9538V22.129H28.4516V0H0V22.129H13.0388L23.7097 27.9538ZM3.16129 3.16129H25.2903V18.9677H20.5484V22.6268L13.8445 18.9677H3.16129V3.16129Z" fill="#969696" stroke="white"/>
<path d="M33.1936 58.4836H7.69484L9.48387 55.8016V30.032C9.48387 27.4179 7.35602 25.29 4.74194 25.29C2.12785 25.29 0 27.4179 0 30.032V55.8016L3.89604 61.6449H33.1936V58.4836ZM4.74194 28.4513C5.61407 28.4513 6.32258 29.1614 6.32258 30.032V33.1933H3.16129V30.032C3.16129 29.1614 3.8698 28.4513 4.74194 28.4513ZM4.74194 57.214L3.16129 54.843V36.3546H6.32258V54.843L4.74194 57.214Z" fill="#969696" stroke="white"/>
<path d="M30.0322 52.1611H33.1935V55.3224H30.0322V52.1611Z" fill="#969696" stroke="white"/>
<path d="M12.645 52.1611H26.8708V55.3224H12.645V52.1611Z" fill="#969696" stroke="white"/>
<path d="M12.645 45.8389H26.8708V49.0002H12.645V45.8389Z" fill="#969696" stroke="white"/>
<path d="M23.7095 39.5166H26.8708V42.6779H23.7095V39.5166Z" fill="#969696" stroke="white"/>
<path d="M12.645 39.5166H20.5482V42.6779H12.645V39.5166Z" fill="#969696" stroke="white"/>
</g>
<defs>
<clipPath id="clip0">
<rect width="98" height="98" fill="white"/>
</clipPath>
</defs>
</svg>
