<svg width="77" height="98" viewBox="0 0 77 98" fill="none" xmlns="http://www.w3.org/2000/svg">
<path d="M68.3364 66.3539L48.5483 61.9585V58.8111C51.5575 56.843 53.9146 53.9696 55.2436 50.5791H59.6128C63.0998 50.5791 65.9354 47.7435 65.9354 44.2565V33.192C65.9354 30.8619 64.6549 28.8452 62.7741 27.7485V20.8362C62.7741 17.3932 60.7165 14.3253 57.5899 12.9994L57.2133 12.2453C53.4469 4.71181 45.874 0.0316162 37.4506 0.0316162C25.2669 0.0331599 15.3547 9.94538 15.3547 22.129V27.75C13.4738 28.8467 12.1934 30.8635 12.1934 33.1935V44.258C12.1934 47.745 15.029 50.5806 18.516 50.5806H22.8852C24.2142 53.9711 26.5713 56.8445 29.5805 58.8126V61.96L9.79235 66.3554C4.69153 67.4884 1.12891 71.9317 1.12891 77.156V98H76.9999V77.156C76.9999 71.9317 73.4372 67.4884 68.3364 66.3539V66.3539ZM49.9074 65.4987L47.5588 74.8923L41.5442 70.8843L47.4716 64.9569L49.9074 65.4987ZM37.199 82.1935H40.9314L43.4598 94.8387H34.6705L37.199 82.1935ZM40.9916 79.0322H37.1372L36.1246 74.9872L39.0644 73.0292L42.0026 74.9888L40.9916 79.0322ZM62.7741 44.258C62.7741 46.0015 61.3563 47.4193 59.6128 47.4193H56.1497C56.3396 46.3921 56.4515 45.3393 56.4515 44.258V30.0322H59.6128C61.3563 30.0322 62.7741 31.45 62.7741 33.1935V44.258ZM18.516 22.129C18.516 11.6889 27.0104 3.19445 37.4506 3.19445C44.6677 3.19445 51.1577 7.20472 54.3854 13.6616L55.3324 15.5517L55.9537 15.7593C58.141 16.4895 59.6128 18.5301 59.6128 20.8393V26.8709H56.4515V22.129H53.2902V25.8591C52.1124 26.4619 50.8258 26.7999 49.4999 26.8486C50.2285 26.1848 50.8845 25.4292 51.4441 24.5872L48.8138 22.8337C47.1891 25.271 44.5063 26.7475 41.5936 26.8516C42.3237 26.1864 42.9797 25.4292 43.5408 24.5872L40.9105 22.8337C39.2859 25.271 36.6031 26.7475 33.6904 26.8516C34.4205 26.1864 35.0765 25.4292 35.6376 24.5872L33.0073 22.8337C31.3225 25.3613 28.5008 26.8709 25.463 26.8709H24.8386V22.129H21.6773V26.8709H18.516V22.129ZM18.516 47.4193C16.7725 47.4193 15.3547 46.0015 15.3547 44.258V33.1935C15.3547 31.45 16.7725 30.0322 18.516 30.0322H21.6773V44.258C21.6773 45.3393 21.7892 46.3921 21.9791 47.4193H18.516ZM24.8386 44.258V30.0322H25.463C27.4843 30.0322 29.4316 29.5329 31.1612 28.6222V30.0322H33.3662C35.3875 30.0322 37.3348 29.5329 39.0644 28.6222V30.0322H41.2694C43.2908 30.0322 45.238 29.5329 46.9676 28.6222V30.0322H49.1726C50.5889 30.0322 51.9735 29.759 53.2902 29.2859V44.258C53.2902 45.3455 53.1559 46.4013 52.9236 47.4193H45.0945C44.44 45.584 42.7011 44.258 40.6435 44.258H37.4822C34.8681 44.258 32.7403 46.3859 32.7403 49C32.7403 51.6141 34.8681 53.7419 37.4822 53.7419H40.6435C42.7011 53.7419 44.44 52.416 45.0945 50.5806H51.7883C49.4559 55.2562 44.6345 58.4838 39.0644 58.4838C31.2198 58.4838 24.8386 52.1026 24.8386 44.258V44.258ZM42.2257 49C42.2257 49.8706 41.5172 50.5806 40.645 50.5806H37.4837C36.6116 50.5806 35.9031 49.8706 35.9031 49C35.9031 48.1294 36.6116 47.4193 37.4837 47.4193H40.645C41.5172 47.4193 42.2257 48.1294 42.2257 49ZM39.0644 61.6451C41.2964 61.6451 43.4235 61.2075 45.387 60.4373V62.5713L39.0644 68.8939L32.7418 62.5713V60.4373C34.7053 61.2075 36.8323 61.6451 39.0644 61.6451V61.6451ZM30.6572 64.9569L36.5846 70.8843L30.57 74.8923L28.2214 65.4987L30.6572 64.9569ZM4.2902 77.156C4.2902 73.4243 6.83482 70.2499 10.4785 69.4411L25.1357 66.1833L28.5911 80.0109L33.333 76.8496L34.2831 80.6522L31.446 94.8387H16.9354V77.4516H13.7741V94.8387H4.2902V77.156ZM73.8386 94.8387H64.3547V77.4516H61.1934V94.8387H46.6828L43.8457 80.6522L44.7958 76.8496L49.5377 80.0109L52.9931 66.1833L67.6503 69.4411C71.294 70.2499 73.8386 73.4243 73.8386 77.156V94.8387Z" fill="#969696" stroke="white"/>
</svg>
