<svg width="98" height="98" viewBox="0 0 98 98" fill="none" xmlns="http://www.w3.org/2000/svg">
<path d="M44.6562 71.9688C44.6562 61.9745 52.787 53.8438 62.7812 53.8438C72.7755 53.8438 80.9062 61.9745 80.9062 71.9688C80.9062 81.963 72.7755 90.0938 62.7812 90.0938C52.787 90.0938 44.6562 81.963 44.6562 71.9688ZM47.2188 71.9688C47.2188 80.5501 54.1999 87.5312 62.7812 87.5312C71.3626 87.5312 78.3438 80.5501 78.3438 71.9688C78.3438 63.3874 71.3626 56.4062 62.7812 56.4062C54.1999 56.4062 47.2188 63.3874 47.2188 71.9688Z" fill="#969696" stroke="white" stroke-width="0.5"/>
<path d="M66.0047 83.5308C65.0381 83.7988 64.04 83.9451 63.0312 83.9659V81.4027C63.7896 81.383 64.5393 81.2738 65.2665 81.0766L66.0047 83.5308Z" fill="#969696" stroke="white" stroke-width="0.5"/>
<path d="M63.0312 62.5345V59.9713C69.5326 60.1049 74.7812 65.436 74.7812 71.9687C74.7812 75.922 72.8522 79.5929 69.6076 81.8397L68.1928 79.7033C70.7182 77.9328 72.2188 75.061 72.2188 71.9687C72.2188 66.8474 68.1211 62.6674 63.0312 62.5345Z" fill="#969696" stroke="white" stroke-width="0.5"/>
<path d="M47.7696 20.8265L47.4829 21.0816L47.832 21.2408C51.9808 23.1329 54.875 27.3094 54.875 32.1562V34.9688H30.875V32.1562C30.875 27.3094 33.7692 23.1329 37.918 21.2408L38.2671 21.0816L37.9804 20.8265C36.4507 19.466 35.4688 17.5094 35.4688 15.3125C35.4688 11.2289 38.7914 7.90625 42.875 7.90625C46.9586 7.90625 50.2812 11.2289 50.2812 15.3125C50.2812 17.5094 49.2993 19.466 47.7696 20.8265ZM33.4375 32.1562V32.4062H33.6875H52.0625H52.3125V32.1562C52.3125 26.9513 48.08 22.7188 42.875 22.7188C37.67 22.7188 33.4375 26.9513 33.4375 32.1562ZM42.875 10.4688C40.2042 10.4688 38.0312 12.6417 38.0312 15.3125C38.0312 17.9833 40.2042 20.1562 42.875 20.1562C45.5458 20.1562 47.7188 17.9833 47.7188 15.3125C47.7188 12.6417 45.5458 10.4688 42.875 10.4688Z" fill="#969696" stroke="white" stroke-width="0.5"/>
<path d="M58.4375 7.90625H67.125V10.4688H58.4375V7.90625Z" fill="#969696" stroke="white" stroke-width="0.5"/>
<path d="M58.4375 14.0312H67.125V16.5938H58.4375V14.0312Z" fill="#969696" stroke="white" stroke-width="0.5"/>
<path d="M58.4375 20.1562H67.125V22.7188H58.4375V20.1562Z" fill="#969696" stroke="white" stroke-width="0.5"/>
<path d="M58.4375 26.2812H67.125V28.8438H58.4375V26.2812Z" fill="#969696" stroke="white" stroke-width="0.5"/>
<path d="M58.4375 32.4062H67.125V34.9688H58.4375V32.4062Z" fill="#969696" stroke="white" stroke-width="0.5"/>
<path d="M80.1657 21.6512L80.6987 19.1448L89.1962 20.952L88.6631 23.4585L80.1657 21.6512Z" fill="#969696" stroke="white" stroke-width="0.5"/>
<path d="M78.8918 27.6434L79.4248 25.137L87.9223 26.9442L87.3892 29.4506L78.8918 27.6434Z" fill="#969696" stroke="white" stroke-width="0.5"/>
<path d="M77.6159 33.6336L78.1489 31.1272L86.6449 32.9341L86.1118 35.4406L77.6159 33.6336Z" fill="#969696" stroke="white" stroke-width="0.5"/>
<path d="M76.3434 39.6258L76.8765 37.1194L85.3739 38.9266L84.8409 41.4331L76.3434 39.6258Z" fill="#969696" stroke="white" stroke-width="0.5"/>
<path d="M75.0602 45.6112L75.5933 43.1047L84.0907 44.912L83.5577 47.4184L75.0602 45.6112Z" fill="#969696" stroke="white" stroke-width="0.5"/>
<path d="M17.6724 37.0228L17.6725 37.0227C19.0454 34.9091 21.16 33.4552 23.6259 32.9315L17.6724 37.0228ZM17.6724 37.0228C16.3012 39.1363 15.8322 41.6601 16.3575 44.1261L16.4096 44.3705L16.654 44.3185L24.5522 42.6387L24.7502 42.5966V42.3942V33.0582V32.779M17.6724 37.0228L24.7502 32.779M24.7502 32.779L24.4728 32.8097M24.7502 32.779L24.4728 32.8097M24.4728 32.8097L24.4618 32.8109M24.4728 32.8097L24.4618 32.8109M19.4473 29.7506L19.4471 29.7505C18.3628 29.0454 17.6163 27.9614 17.3482 26.6943L19.4473 29.7506ZM19.4473 29.7506C20.532 30.4544 21.8261 30.6934 23.0927 30.4255C23.6501 30.3081 24.1601 30.0504 24.6363 29.7414L24.7502 29.6675V29.5317V21.8402V21.7028L24.6341 21.6291C23.5701 20.9541 22.3111 20.6883 21.0781 20.9495L21.0778 20.9495M19.4473 29.7506L21.0778 20.9495M21.0778 20.9495C19.8124 21.2191 18.7284 21.9655 18.0232 23.0499C17.3178 24.1347 17.0787 25.429 17.3482 26.6943L21.0778 20.9495ZM24.4618 32.8109C24.1904 32.8409 23.903 32.8726 23.626 32.9315L24.4618 32.8109ZM1.54164 16.2202L24.5522 11.3293L24.7502 11.2872V11.0847V1.78125H73.2502V11.0847V11.2872L73.4482 11.3293L96.4587 16.2201L86.0523 65.0965L86.0393 65.1579L86.0568 65.2183C86.68 67.3655 87.0315 69.6251 87.0315 71.9688C87.0315 85.3394 76.1521 96.2188 62.7815 96.2188C50.9665 96.2188 41.1097 87.7194 38.9742 76.5157L38.9354 76.3125H38.7286H32.1565H31.9065V76.5625V79.375H9.18771C5.10413 79.375 1.78146 76.0523 1.78146 71.9688C1.78146 67.8852 5.10413 64.5625 9.18771 64.5625H11.5091H11.8178L11.7536 64.2605L1.54164 16.2202ZM93.3647 18.4377L93.4166 18.1931L93.1721 18.1412L73.5522 13.9716L73.2502 13.9074V14.2161V49.9723V50.1284L73.3904 50.1969C77.8848 52.3949 81.6104 55.9236 84.0216 60.2898L84.3456 60.8766L84.4849 60.2209L93.3647 18.4377ZM70.6877 4.59375V4.34375H70.4377H27.5627H27.3127V4.59375V64.3125V64.5625H27.5627H31.9065V67.375V67.625H32.1565H38.7286H38.9354L38.9741 67.4219C39.3816 65.2875 40.0801 63.2598 41.0096 61.3599L41.1857 61H40.7851H30.8752V38.5312H67.1252V47.9159V48.1228L67.3285 48.1615C68.3634 48.3585 69.3741 48.6221 70.3592 48.9479L70.6877 49.0566V48.7106V4.59375ZM42.5414 58.4375H42.6734L42.7479 58.3285C47.1181 51.9285 54.4659 47.7188 62.7815 47.7188C63.1704 47.7188 63.5498 47.7451 63.939 47.7722C64.0572 47.7804 64.1764 47.7887 64.2969 47.7963L64.5627 47.8132V47.5468V41.3438V41.0938H64.3127H33.6877H33.4377V41.3438V58.1875V58.4375H33.6877H42.5414ZM20.6588 64.3645L20.7009 64.5625H20.9033H24.5002H24.7502V64.3125V51.7869V51.4782L24.4483 51.5423L18.4595 52.8148L18.215 52.8668L18.267 53.1113L20.6588 64.3645ZM4.82834 18.1412L4.5838 18.1931L4.63577 18.4377L14.396 64.3645L14.438 64.5625H14.6405H17.7704H18.0791L18.0149 64.2605L15.1743 50.8938L24.5522 48.9L24.7502 48.8579V48.6555V45.5241V45.2153L24.4482 45.2795L14.4337 47.4095L13.8515 44.6562L13.8514 44.6558C13.1838 41.5205 13.7791 38.3144 15.5254 35.626L15.5255 35.6259C16.3185 34.4042 17.3157 33.3661 18.4537 32.5224L18.7612 32.2945L18.4288 32.1046C18.3743 32.0734 18.318 32.044 18.2667 32.0172C18.2529 32.01 18.2394 32.0029 18.2264 31.9961C18.1628 31.9626 18.1063 31.9317 18.0534 31.8975C16.394 30.8203 15.2525 29.1621 14.8422 27.2259L14.8421 27.2256C14.4303 25.2923 14.7974 23.3127 15.8746 21.6532C16.9516 19.994 18.6099 18.8553 20.545 18.4434L20.5452 18.4434C21.8529 18.1638 23.1821 18.2597 24.4197 18.6806L24.7502 18.793V18.4439V14.2161V13.9074L24.4482 13.9716L4.82834 18.1412ZM29.094 76.8125H29.344V76.5625V67.375V67.125H29.094H9.18771C6.51695 67.125 4.34396 69.298 4.34396 71.9688C4.34396 74.6395 6.51695 76.8125 9.18771 76.8125H29.094ZM31.9065 73.5V73.75H32.1565H38.3596H38.6259L38.6091 73.4842C38.6014 73.3636 38.5931 73.2444 38.5849 73.1261C38.5578 72.737 38.5315 72.3576 38.5315 71.9688C38.5315 71.5799 38.5578 71.2005 38.5849 70.8114C38.5931 70.6931 38.6014 70.5739 38.6091 70.4533L38.6259 70.1875H38.3596H32.1565H31.9065V70.4375V73.5ZM41.094 71.9688C41.094 83.9281 50.8221 93.6562 62.7815 93.6562C74.7408 93.6562 84.469 83.9281 84.469 71.9688C84.469 60.0094 74.7408 50.2812 62.7815 50.2812C50.8221 50.2812 41.094 60.0094 41.094 71.9688Z" fill="#969696" stroke="white" stroke-width="0.5"/>
</svg>
