<svg width="96" height="96" viewBox="0 0 96 96" fill="none" xmlns="http://www.w3.org/2000/svg">
<path d="M16.6724 36.0228L16.6725 36.0227C18.0454 33.9091 20.16 32.4552 22.6259 31.9315L16.6724 36.0228ZM16.6724 36.0228C15.3012 38.1363 14.8322 40.6601 15.3575 43.1261L15.4096 43.3705L15.654 43.3185L23.5522 41.6387L23.7502 41.5966V41.3942V32.0582V31.779M16.6724 36.0228L23.7502 31.779M23.7502 31.779L23.4728 31.8097M23.7502 31.779L23.4728 31.8097M23.4728 31.8097L23.4618 31.8109M23.4728 31.8097L23.4618 31.8109M18.4473 28.7506L18.4471 28.7505C17.3628 28.0454 16.6163 26.9614 16.3482 25.6943L18.4473 28.7506ZM18.4473 28.7506C19.532 29.4544 20.8261 29.6934 22.0927 29.4255C22.6501 29.3081 23.1601 29.0504 23.6363 28.7414L23.7502 28.6675V28.5317V20.8402V20.7028L23.6341 20.6291C22.5701 19.9541 21.3111 19.6883 20.0781 19.9495L20.0778 19.9495M18.4473 28.7506L20.0778 19.9495M20.0778 19.9495C18.8124 20.2191 17.7284 20.9655 17.0232 22.0499C16.3178 23.1347 16.0787 24.429 16.3482 25.6943L20.0778 19.9495ZM23.4618 31.8109C23.1904 31.8409 22.903 31.8726 22.626 31.9315L23.4618 31.8109ZM0.541636 15.2202L23.5522 10.3293L23.7502 10.2872V10.0847V0.78125H72.2502V10.0847V10.2872L72.4482 10.3293L95.4587 15.2201L85.0523 64.0965L85.0393 64.1579L85.0568 64.2183C85.68 66.3655 86.0315 68.6251 86.0315 70.9688C86.0315 84.3394 75.1521 95.2188 61.7815 95.2188C49.9665 95.2188 40.1097 86.7194 37.9742 75.5157L37.9354 75.3125H37.7286H31.1565H30.9065V75.5625V78.375H8.18771C4.10413 78.375 0.781461 75.0523 0.781461 70.9688C0.781461 66.8852 4.10413 63.5625 8.18771 63.5625H10.5091H10.8178L10.7536 63.2605L0.541636 15.2202ZM92.3647 17.4377L92.4166 17.1931L92.1721 17.1412L72.5522 12.9716L72.2502 12.9074V13.2161V48.9723V49.1284L72.3904 49.1969C76.8848 51.3949 80.6104 54.9236 83.0216 59.2898L83.3456 59.8766L83.4849 59.2209L92.3647 17.4377ZM69.6877 3.59375V3.34375H69.4377H26.5627H26.3127V3.59375V63.3125V63.5625H26.5627H30.9065V66.375V66.625H31.1565H37.7286H37.9354L37.9741 66.4219C38.3816 64.2875 39.0801 62.2598 40.0096 60.3599L40.1857 60H39.7851H29.8752V37.5312H66.1252V46.9159V47.1228L66.3285 47.1615C67.3634 47.3585 68.3741 47.6221 69.3592 47.9479L69.6877 48.0566V47.7106V3.59375ZM41.5414 57.4375H41.6734L41.7479 57.3285C46.1181 50.9285 53.4659 46.7188 61.7815 46.7188C62.1704 46.7188 62.5498 46.7451 62.939 46.7722C63.0572 46.7804 63.1764 46.7887 63.2969 46.7963L63.5627 46.8132V46.5468V40.3438V40.0938H63.3127H32.6877H32.4377V40.3438V57.1875V57.4375H32.6877H41.5414ZM19.6588 63.3645L19.7009 63.5625H19.9033H23.5002H23.7502V63.3125V50.7869V50.4782L23.4483 50.5423L17.4595 51.8148L17.215 51.8668L17.267 52.1113L19.6588 63.3645ZM3.82834 17.1412L3.5838 17.1931L3.63577 17.4377L13.396 63.3645L13.438 63.5625H13.6405H16.7704H17.0791L17.0149 63.2605L14.1743 49.8938L23.5522 47.9L23.7502 47.8579V47.6555V44.5241V44.2153L23.4482 44.2795L13.4337 46.4095L12.8515 43.6562L12.8514 43.6558C12.1838 40.5205 12.7791 37.3144 14.5254 34.626L14.5255 34.6259C15.3185 33.4042 16.3157 32.3661 17.4537 31.5224L17.7612 31.2945L17.4288 31.1046C17.3743 31.0734 17.318 31.044 17.2667 31.0172C17.2529 31.01 17.2394 31.0029 17.2264 30.9961C17.1628 30.9626 17.1063 30.9317 17.0534 30.8975C15.394 29.8203 14.2525 28.1621 13.8422 26.2259L13.8421 26.2256C13.4303 24.2923 13.7974 22.3127 14.8746 20.6532C15.9516 18.994 17.6099 17.8553 19.545 17.4434L19.5452 17.4434C20.8529 17.1638 22.1821 17.2597 23.4197 17.6806L23.7502 17.793V17.4439V13.2161V12.9074L23.4482 12.9716L3.82834 17.1412ZM28.094 75.8125H28.344V75.5625V66.375V66.125H28.094H8.18771C5.51695 66.125 3.34396 68.298 3.34396 70.9688C3.34396 73.6395 5.51695 75.8125 8.18771 75.8125H28.094ZM30.9065 72.5V72.75H31.1565H37.3596H37.6259L37.6091 72.4842C37.6014 72.3636 37.5931 72.2444 37.5849 72.1261C37.5578 71.737 37.5315 71.3576 37.5315 70.9688C37.5315 70.5799 37.5578 70.2005 37.5849 69.8114C37.5931 69.6931 37.6014 69.5739 37.6091 69.4533L37.6259 69.1875H37.3596H31.1565H30.9065V69.4375V72.5ZM40.094 70.9688C40.094 82.9281 49.8221 92.6562 61.7815 92.6562C73.7408 92.6562 83.469 82.9281 83.469 70.9688C83.469 59.0094 73.7408 49.2812 61.7815 49.2812C49.8221 49.2812 40.094 59.0094 40.094 70.9688Z" fill="#969696" stroke="white" stroke-width="0.5"/>
</svg>
