<svg width="580" height="518" viewBox="0 0 580 518" fill="none" xmlns="http://www.w3.org/2000/svg">
<g clip-path="url(#clip0)">
<path d="M125.382 159.499C123.826 159.499 122.334 160.118 121.234 161.219C120.133 162.32 119.515 163.814 119.515 165.372C119.515 166.929 120.133 168.423 121.234 169.524C122.334 170.626 123.826 171.244 125.382 171.244H199.131V168.682C199.131 166.862 199.583 165.069 200.445 163.467C201.308 161.864 202.555 160.5 204.074 159.499H125.382Z" fill="#E6E6E6"/>
<path d="M192.49 146.285H167.555C165.999 146.285 164.507 145.667 163.407 144.565C162.306 143.464 161.688 141.97 161.688 140.413C161.688 138.855 162.306 137.361 163.407 136.26C164.507 135.159 165.999 134.54 167.555 134.54H192.49C194.046 134.54 195.539 135.159 196.639 136.26C197.739 137.361 198.357 138.855 198.357 140.413C198.357 141.97 197.739 143.464 196.639 144.565C195.539 145.667 194.046 146.285 192.49 146.285Z" fill="#E6E6E6"/>
<path d="M136.566 104.443H39.7593C38.2032 104.443 36.7109 103.824 35.6106 102.723C34.5104 101.621 33.8922 100.128 33.8922 98.57C33.8922 97.0124 34.5104 95.5187 35.6106 94.4173C36.7109 93.316 38.2032 92.6973 39.7593 92.6973H136.566C138.122 92.6973 139.614 93.316 140.715 94.4173C141.815 95.5187 142.433 97.0124 142.433 98.57C142.433 100.128 141.815 101.621 140.715 102.723C139.614 103.824 138.122 104.443 136.566 104.443Z" fill="#E6E6E6"/>
<path d="M94.3963 79.4837H81.9288C80.3728 79.4837 78.8805 78.865 77.7802 77.7636C76.6799 76.6623 76.0618 75.1685 76.0618 73.611C76.0618 72.0534 76.6799 70.5597 77.7802 69.4584C78.8805 68.357 80.3728 67.7383 81.9288 67.7383H94.3963C95.9524 67.7383 97.4447 68.357 98.545 69.4584C99.6453 70.5597 100.263 72.0534 100.263 73.611C100.263 75.1685 99.6453 76.6623 98.545 77.7636C97.4447 78.865 95.9524 79.4837 94.3963 79.4837Z" fill="#E6E6E6"/>
<path d="M198.395 277.61H107.134C103.829 277.606 100.66 276.29 98.3224 273.951C95.9851 271.611 94.6703 268.439 94.6666 265.131V120.633C94.6703 117.324 95.9851 114.152 98.3224 111.813C100.66 109.473 103.829 108.157 107.134 108.153H252.911C256.217 108.157 259.386 109.473 261.723 111.813C264.061 114.152 265.375 117.324 265.379 120.633V156.447H263.912V120.633C263.909 117.713 262.749 114.915 260.686 112.85C258.624 110.786 255.828 109.625 252.911 109.621H107.134C104.218 109.625 101.421 110.786 99.3591 112.85C97.2968 114.915 96.1367 117.713 96.1334 120.633V265.131C96.1367 268.05 97.2968 270.849 99.3591 272.913C101.421 274.977 104.218 276.139 107.134 276.142H198.395V277.61Z" fill="#CCCCCC"/>
<path d="M95.4001 191.108H28.8753C25.5699 191.105 22.4009 189.789 20.0636 187.449C17.7263 185.11 16.4116 181.938 16.4078 178.629V61.1318C16.4116 57.8232 17.7263 54.6512 20.0636 52.3116C22.4009 49.9721 25.5699 48.6561 28.8753 48.6523H147.45C150.755 48.6561 153.924 49.9721 156.261 52.3116C158.599 54.6512 159.914 57.8232 159.917 61.1318V108.888H158.45V61.1318C158.447 58.2125 157.287 55.4136 155.225 53.3493C153.162 51.285 150.366 50.1238 147.45 50.1205H28.8753C25.9588 50.1238 23.1626 51.285 21.1003 53.3493C19.038 55.4136 17.8779 58.2125 17.8746 61.1318V178.629C17.8779 181.548 19.038 184.347 21.1003 186.411C23.1626 188.476 25.9588 189.637 28.8753 189.64H95.4001V191.108Z" fill="#CCCCCC"/>
<path d="M392.334 159.499C393.853 160.5 395.1 161.864 395.963 163.467C396.825 165.069 397.277 166.862 397.277 168.682V171.244H471.026C472.582 171.244 474.074 170.626 475.174 169.524C476.274 168.423 476.893 166.929 476.893 165.372C476.893 163.814 476.274 162.32 475.174 161.219C474.074 160.118 472.582 159.499 471.026 159.499H392.334Z" fill="#E6E6E6"/>
<path d="M398.05 140.413C398.052 138.856 398.671 137.363 399.771 136.262C400.871 135.161 402.362 134.542 403.917 134.54H428.852C430.409 134.54 431.901 135.159 433.001 136.26C434.101 137.361 434.72 138.855 434.72 140.413C434.72 141.97 434.101 143.464 433.001 144.565C431.901 145.667 430.409 146.285 428.852 146.285H403.917C402.362 146.284 400.871 145.664 399.771 144.563C398.671 143.462 398.052 141.97 398.05 140.413Z" fill="#E6E6E6"/>
<path d="M453.975 98.57C453.977 97.013 454.595 95.5203 455.695 94.4193C456.795 93.3183 458.286 92.699 459.842 92.6973H556.648C558.205 92.6973 559.697 93.316 560.797 94.4173C561.897 95.5187 562.516 97.0124 562.516 98.57C562.516 100.128 561.897 101.621 560.797 102.723C559.697 103.824 558.205 104.443 556.648 104.443H459.842C458.286 104.441 456.795 103.822 455.695 102.721C454.595 101.62 453.977 100.127 453.975 98.57Z" fill="#E6E6E6"/>
<path d="M496.144 73.611C496.146 72.054 496.765 70.5613 497.865 69.4603C498.965 68.3594 500.456 67.7401 502.011 67.7383H514.479C516.035 67.7383 517.527 68.357 518.628 69.4584C519.728 70.5597 520.346 72.0534 520.346 73.611C520.346 75.1685 519.728 76.6623 518.628 77.7636C517.527 78.865 516.035 79.4837 514.479 79.4837H502.011C500.456 79.4819 498.965 78.8626 497.865 77.7616C496.765 76.6607 496.146 75.168 496.144 73.611Z" fill="#E6E6E6"/>
<path d="M398.013 277.61H489.274C492.579 277.606 495.748 276.29 498.086 273.951C500.423 271.611 501.738 268.439 501.741 265.131V120.633C501.738 117.324 500.423 114.152 498.086 111.813C495.748 109.473 492.579 108.157 489.274 108.153H343.496C340.191 108.157 337.022 109.473 334.685 111.813C332.347 114.152 331.033 117.324 331.029 120.633V156.447H332.496V120.633C332.499 117.713 333.659 114.915 335.721 112.85C337.784 110.786 340.58 109.625 343.496 109.621H489.274C492.19 109.625 494.986 110.786 497.049 112.85C499.111 114.915 500.271 117.713 500.275 120.633V265.131C500.271 268.05 499.111 270.849 497.049 272.913C494.986 274.977 492.19 276.139 489.274 276.142H398.013V277.61Z" fill="#CCCCCC"/>
<path d="M501.008 191.108H567.532C570.838 191.105 574.007 189.789 576.344 187.449C578.681 185.11 579.996 181.938 580 178.629V61.1318C579.996 57.8232 578.681 54.6512 576.344 52.3116C574.007 49.9721 570.838 48.6561 567.532 48.6523H448.958C445.653 48.6561 442.484 49.9721 440.146 52.3116C437.809 54.6512 436.494 57.8232 436.49 61.1318V108.888H437.957V61.1318C437.961 58.2125 439.121 55.4136 441.183 53.3493C443.245 51.285 446.041 50.1238 448.958 50.1205H567.532C570.449 50.1238 573.245 51.285 575.307 53.3493C577.37 55.4136 578.53 58.2125 578.533 61.1318V178.629C578.53 181.548 577.37 184.347 575.307 186.411C573.245 188.476 570.449 189.637 567.532 189.64H501.008V191.108Z" fill="#CCCCCC"/>
<path d="M385.968 156.203H210.132C206.827 156.21 203.66 157.527 201.323 159.866C198.987 162.204 197.671 165.375 197.665 168.683V343.021C197.668 346.33 198.983 349.502 201.32 351.842C203.657 354.181 206.827 355.497 210.132 355.501H385.968C389.273 355.497 392.442 354.181 394.78 351.842C397.117 349.502 398.432 346.33 398.435 343.021V168.683C398.432 165.374 397.117 162.202 394.78 159.862C392.442 157.523 389.273 156.207 385.968 156.203ZM396.969 343.021C396.965 345.94 395.805 348.739 393.743 350.803C391.68 352.868 388.884 354.029 385.968 354.032H210.132C207.216 354.029 204.42 352.868 202.357 350.803C200.295 348.739 199.135 345.94 199.131 343.021V168.683C199.136 165.764 200.296 162.965 202.358 160.901C204.42 158.837 207.216 157.676 210.132 157.671H385.968C388.884 157.675 391.68 158.836 393.743 160.9C395.805 162.965 396.965 165.763 396.969 168.683V343.021Z" fill="#3F3D56"/>
<path d="M372.121 224.099H223.978C222.422 224.099 220.929 223.48 219.829 222.379C218.729 221.278 218.111 219.784 218.111 218.226C218.111 216.669 218.729 215.175 219.829 214.074C220.929 212.972 222.422 212.354 223.978 212.354H372.121C373.677 212.354 375.169 212.972 376.27 214.074C377.37 215.175 377.988 216.669 377.988 218.226C377.988 219.784 377.37 221.278 376.27 222.379C375.169 223.48 373.677 224.099 372.121 224.099Z" fill="#CCCCCC"/>
<path d="M329.952 199.14H266.147C264.591 199.14 263.099 198.521 261.999 197.42C260.898 196.319 260.28 194.825 260.28 193.267C260.28 191.71 260.898 190.216 261.999 189.115C263.099 188.013 264.591 187.395 266.147 187.395H329.952C331.508 187.395 333 188.013 334.1 189.115C335.2 190.216 335.819 191.71 335.819 193.267C335.819 194.825 335.2 196.319 334.1 197.42C333 198.521 331.508 199.14 329.952 199.14Z" fill="#458FF6"/>
<path d="M287.415 259.335H223.611C222.055 259.335 220.563 258.717 219.462 257.615C218.362 256.514 217.744 255.02 217.744 253.463C217.744 251.905 218.362 250.411 219.462 249.31C220.563 248.209 222.055 247.59 223.611 247.59H287.415C288.971 247.59 290.464 248.209 291.564 249.31C292.664 250.411 293.282 251.905 293.282 253.463C293.282 255.02 292.664 256.514 291.564 257.615C290.464 258.717 288.971 259.335 287.415 259.335Z" fill="#CCCCCC"/>
<path d="M287.415 285.029H223.611C222.055 285.029 220.563 284.41 219.462 283.309C218.362 282.207 217.744 280.713 217.744 279.156C217.744 277.598 218.362 276.105 219.462 275.003C220.563 273.902 222.055 273.283 223.611 273.283H287.415C288.971 273.283 290.464 273.902 291.564 275.003C292.664 276.105 293.282 277.598 293.282 279.156C293.282 280.713 292.664 282.207 291.564 283.309C290.464 284.41 288.971 285.029 287.415 285.029Z" fill="#CCCCCC"/>
<path d="M287.415 310.721H223.611C222.055 310.721 220.563 310.102 219.462 309.001C218.362 307.9 217.744 306.406 217.744 304.848C217.744 303.291 218.362 301.797 219.462 300.696C220.563 299.594 222.055 298.976 223.611 298.976H287.415C288.971 298.976 290.464 299.594 291.564 300.696C292.664 301.797 293.282 303.291 293.282 304.848C293.282 306.406 292.664 307.9 291.564 309.001C290.464 310.102 288.971 310.721 287.415 310.721Z" fill="#CCCCCC"/>
<path d="M366.992 264.37C373.039 264.37 377.94 259.463 377.94 253.41C377.94 247.358 373.039 242.451 366.992 242.451C360.945 242.451 356.043 247.358 356.043 253.41C356.043 259.463 360.945 264.37 366.992 264.37Z" fill="#458FF6"/>
<path d="M365.907 257.591C365.66 257.591 365.421 257.512 365.224 257.364L365.211 257.355L362.638 255.384C362.398 255.2 362.24 254.927 362.2 254.626C362.161 254.325 362.242 254.02 362.427 253.78C362.611 253.539 362.884 253.381 363.184 253.341C363.485 253.301 363.789 253.383 364.03 253.568L365.696 254.847L369.635 249.704C369.726 249.585 369.84 249.485 369.97 249.409C370.1 249.334 370.243 249.285 370.392 249.266C370.541 249.246 370.692 249.256 370.837 249.295C370.982 249.334 371.118 249.401 371.237 249.492L371.238 249.492L371.213 249.526L371.238 249.492C371.479 249.677 371.636 249.95 371.676 250.251C371.715 250.551 371.634 250.856 371.45 251.097L366.817 257.143C366.71 257.283 366.572 257.395 366.415 257.473C366.257 257.55 366.083 257.59 365.908 257.59L365.907 257.591Z" fill="white"/>
<path d="M88.1626 34.0684C84.7968 34.0684 81.5065 33.0693 78.708 31.1976C75.9094 29.3258 73.7282 26.6655 72.4402 23.5529C71.1521 20.4403 70.8151 17.0153 71.4718 13.7109C72.1284 10.4066 73.7492 7.37145 76.1292 4.98918C78.5092 2.60691 81.5415 0.984571 84.8427 0.32731C88.1438 -0.329951 91.5655 0.00738279 94.6751 1.29666C97.7847 2.58595 100.443 4.76926 102.312 7.57052C104.182 10.3718 105.181 13.6652 105.181 17.0342C105.175 21.5504 103.381 25.8801 100.19 29.0736C97 32.267 92.6744 34.0633 88.1626 34.0684ZM88.1626 1.46818C85.0869 1.4682 82.0802 2.38115 79.5229 4.09158C76.9655 5.802 74.9723 8.23309 73.7953 11.0774C72.6183 13.9217 72.3103 17.0515 72.9104 20.071C73.5104 23.0906 74.9915 25.8641 77.1664 28.0411C79.3413 30.218 82.1122 31.7005 85.1288 32.3011C88.1454 32.9018 91.2722 32.5935 94.1138 31.4153C96.9554 30.2372 99.3841 28.242 101.093 25.6822C102.802 23.1224 103.714 20.1129 103.714 17.0342C103.709 12.9073 102.069 8.95068 99.1538 6.03249C96.2383 3.1143 92.2855 1.47283 88.1626 1.46818Z" fill="#CCCCCC"/>
<path d="M86.5488 23.2526C86.1825 23.2532 85.8258 23.1346 85.5327 22.9146L85.5146 22.9009L81.6875 19.9705C81.5102 19.8345 81.3615 19.6649 81.2497 19.4713C81.138 19.2777 81.0654 19.0641 81.0361 18.8424C81.0069 18.6208 81.0215 18.3956 81.0793 18.1796C81.137 17.9636 81.2366 17.7612 81.3725 17.5837C81.5084 17.4063 81.6778 17.2574 81.8712 17.1456C82.0646 17.0337 82.2781 16.9611 82.4995 16.9318C82.7209 16.9025 82.9459 16.9172 83.1617 16.9749C83.3774 17.0327 83.5797 17.1325 83.757 17.2685L86.2359 19.1712L92.0936 11.5218C92.2294 11.3445 92.3988 11.1956 92.5921 11.0838C92.7854 10.972 92.9988 10.8994 93.2201 10.8701C93.4415 10.8409 93.6664 10.8555 93.8821 10.9133C94.0977 10.971 94.2999 11.0707 94.4771 11.2067L94.4776 11.2071L94.4412 11.2576L94.4786 11.2071C94.836 11.482 95.0699 11.8877 95.1288 12.3351C95.1878 12.7825 95.067 13.235 94.793 13.5933L87.9031 22.5867C87.7437 22.7939 87.5387 22.9616 87.3041 23.0767C87.0695 23.1918 86.8116 23.2513 86.5503 23.2506L86.5488 23.2526Z" fill="#CCCCCC"/>
<path d="M196.114 93.5294C192.748 93.5293 189.457 92.5303 186.659 90.6585C183.86 88.7867 181.679 86.1263 180.391 83.0137C179.103 79.9011 178.766 76.4761 179.423 73.1718C180.08 69.8675 181.7 66.8324 184.08 64.4501C186.46 62.0678 189.493 60.4455 192.794 59.7882C196.095 59.131 199.517 59.4683 202.626 60.7576C205.736 62.0469 208.394 64.2302 210.264 67.0315C212.133 69.8327 213.132 73.1261 213.132 76.4952C213.126 81.0114 211.332 85.3411 208.141 88.5346C204.951 91.728 200.625 93.5243 196.114 93.5294ZM196.114 60.9291C193.038 60.9292 190.031 61.8421 187.474 63.5526C184.916 65.263 182.923 67.6941 181.746 70.5384C180.569 73.3827 180.261 76.5125 180.861 79.532C181.461 82.5515 182.943 85.3251 185.117 87.5021C187.292 89.679 190.063 91.1615 193.08 91.7621C196.096 92.3627 199.223 92.0544 202.065 90.8763C204.906 89.6981 207.335 87.703 209.044 85.1432C210.753 82.5833 211.665 79.5738 211.665 76.4952C211.66 72.3682 210.02 68.4116 207.105 65.4934C204.189 62.5752 200.237 60.9337 196.114 60.9291Z" fill="#CCCCCC"/>
<path d="M194.5 82.7135C194.134 82.7141 193.777 82.5955 193.484 82.3755L193.466 82.3619L189.638 79.4315C189.281 79.1568 189.046 78.751 188.987 78.3034C188.928 77.8557 189.049 77.403 189.324 77.0447C189.598 76.6864 190.003 76.4519 190.451 76.3927C190.898 76.3336 191.35 76.4547 191.708 76.7294L194.187 78.6322L200.045 70.9827C200.18 70.8054 200.35 70.6566 200.543 70.5448C200.736 70.4329 200.95 70.3603 201.171 70.3311C201.393 70.3018 201.617 70.3165 201.833 70.3742C202.049 70.432 202.251 70.5317 202.428 70.6676L202.429 70.668L202.392 70.7185L202.43 70.668C202.787 70.943 203.021 71.3487 203.08 71.796C203.139 72.2434 203.018 72.6959 202.744 73.0543L195.854 82.0476C195.695 82.2548 195.49 82.4225 195.255 82.5376C195.021 82.6528 194.763 82.7123 194.501 82.7115L194.5 82.7135Z" fill="#CCCCCC"/>
<path d="M366.992 290.063C373.039 290.063 377.94 285.156 377.94 279.104C377.94 273.051 373.039 268.145 366.992 268.145C360.945 268.145 356.043 273.051 356.043 279.104C356.043 285.156 360.945 290.063 366.992 290.063Z" fill="#458FF6"/>
<path d="M365.907 283.284C365.661 283.285 365.421 283.205 365.224 283.057L365.211 283.048L362.638 281.078C362.519 280.986 362.419 280.872 362.344 280.742C362.269 280.612 362.22 280.468 362.2 280.319C362.181 280.17 362.191 280.019 362.229 279.874C362.268 279.728 362.335 279.592 362.427 279.473C362.518 279.354 362.632 279.254 362.762 279.178C362.892 279.103 363.035 279.054 363.184 279.035C363.333 279.015 363.484 279.025 363.629 279.064C363.775 279.102 363.911 279.169 364.03 279.261L365.696 280.54L369.635 275.397C369.726 275.278 369.84 275.178 369.97 275.103C370.1 275.028 370.243 274.979 370.392 274.959C370.541 274.939 370.692 274.949 370.837 274.988C370.982 275.027 371.118 275.094 371.237 275.185L371.238 275.186L371.213 275.22L371.238 275.186C371.479 275.37 371.636 275.643 371.676 275.944C371.715 276.245 371.634 276.549 371.45 276.79L366.817 282.837C366.71 282.976 366.572 283.089 366.415 283.166C366.257 283.243 366.083 283.283 365.908 283.283L365.907 283.284Z" fill="white"/>
<path d="M366.992 315.808C373.039 315.808 377.94 310.902 377.94 304.849C377.94 298.796 373.039 293.89 366.992 293.89C360.945 293.89 356.043 298.796 356.043 304.849C356.043 310.902 360.945 315.808 366.992 315.808Z" fill="#458FF6"/>
<path d="M365.907 309.029C365.661 309.03 365.421 308.95 365.224 308.802L365.212 308.793L362.638 306.823C362.398 306.638 362.241 306.365 362.201 306.064C362.162 305.764 362.243 305.46 362.428 305.219C362.612 304.978 362.884 304.82 363.185 304.781C363.485 304.741 363.789 304.822 364.03 305.006L365.696 306.285L369.635 301.142C369.726 301.023 369.84 300.923 369.97 300.848C370.1 300.773 370.243 300.724 370.392 300.704C370.541 300.685 370.692 300.694 370.837 300.733C370.982 300.772 371.118 300.839 371.237 300.93L371.238 300.931L371.213 300.965L371.238 300.931C371.479 301.116 371.636 301.388 371.676 301.689C371.715 301.99 371.634 302.294 371.45 302.535L366.817 308.582C366.71 308.721 366.572 308.834 366.415 308.911C366.257 308.989 366.084 309.029 365.908 309.028L365.907 309.029Z" fill="white"/>
<path d="M298.065 141.245C286.515 141.048 281.266 132.276 281.267 124.21C281.268 116.143 286.517 107.372 298.041 107.177H298.066C309.592 107.374 314.841 116.145 314.84 124.212C314.84 132.279 309.59 141.05 298.065 141.245ZM298.054 108.645C287.528 108.829 282.734 116.841 282.734 124.21C282.733 131.581 287.531 139.597 298.066 139.777C308.575 139.598 313.373 131.583 313.374 124.212C313.374 116.844 308.579 108.832 298.054 108.645Z" fill="#458FF6"/>
<path d="M301.873 125.136C304.817 130.255 296.736 132.254 293.645 129.17L294.419 127.514C299.446 131.86 303.875 124.332 296.197 125.047V123.233C303.228 123.8 299.278 116.716 294.595 120.907L293.838 119.251C297.655 115.286 306.224 120.08 300.175 124.043C300.85 124.201 301.449 124.587 301.873 125.136Z" fill="#458FF6"/>
<path d="M401.461 93.5294C398.095 93.5293 394.805 92.5303 392.006 90.6585C389.208 88.7867 387.026 86.1263 385.738 83.0137C384.45 79.9011 384.113 76.4761 384.77 73.1718C385.427 69.8675 387.047 66.8324 389.427 64.4501C391.807 62.0678 394.84 60.4455 398.141 59.7882C401.442 59.131 404.864 59.4683 407.973 60.7576C411.083 62.0469 413.741 64.2302 415.611 67.0315C417.481 69.8327 418.479 73.1261 418.479 76.4952C418.474 81.0114 416.679 85.3411 413.489 88.5346C410.298 91.728 405.973 93.5243 401.461 93.5294ZM401.461 60.9291C398.385 60.9292 395.378 61.8421 392.821 63.5526C390.264 65.263 388.27 67.6941 387.093 70.5384C385.916 73.3827 385.609 76.5125 386.209 79.532C386.809 82.5515 388.29 85.3251 390.465 87.5021C392.639 89.679 395.41 91.1615 398.427 91.7621C401.444 92.3627 404.57 92.0544 407.412 90.8763C410.254 89.6981 412.682 87.703 414.391 85.1432C416.1 82.5833 417.012 79.5738 417.012 76.4952C417.007 72.3682 415.367 68.4116 412.452 65.4934C409.537 62.5752 405.584 60.9337 401.461 60.9291Z" fill="#CCCCCC"/>
<path d="M406.187 80.3188H404.409V82.7676H402.191V80.3188H396.735V78.6273L402.596 70.2236H404.409V78.5395H406.187V80.3188ZM402.191 78.5395V73.7647L398.882 78.5395H402.191Z" fill="#CCCCCC"/>
<path d="M508.245 34.0684C504.879 34.0684 501.589 33.0693 498.791 31.1976C495.992 29.3258 493.811 26.6654 492.523 23.5528C491.235 20.4402 490.898 17.0152 491.555 13.7109C492.211 10.4066 493.832 7.37141 496.212 4.98915C498.592 2.60689 501.624 0.984555 504.925 0.327301C508.227 -0.329952 511.648 0.00739373 514.758 1.29668C517.868 2.58596 520.525 4.76928 522.395 7.57054C524.265 10.3718 525.263 13.6652 525.263 17.0342C525.258 21.5504 523.464 25.8802 520.273 29.0736C517.083 32.267 512.757 34.0633 508.245 34.0684ZM508.245 1.46819C505.17 1.46822 502.163 2.38118 499.606 4.09162C497.048 5.80206 495.055 8.23316 493.878 11.0775C492.701 13.9218 492.393 17.0516 492.993 20.0711C493.593 23.0906 495.074 25.8642 497.249 28.0411C499.424 30.218 502.195 31.7006 505.212 32.3012C508.228 32.9018 511.355 32.5935 514.197 31.4153C517.038 30.2372 519.467 28.242 521.176 25.6822C522.884 23.1224 523.797 20.1129 523.797 17.0342C523.792 12.9073 522.152 8.95065 519.236 6.03247C516.321 3.11428 512.368 1.47281 508.245 1.46819Z" fill="#CCCCCC"/>
<path d="M510.78 15.7214C511.369 16.0473 511.852 16.5367 512.17 17.1308C512.508 17.7739 512.677 18.492 512.663 19.2184C512.678 19.9817 512.484 20.7346 512.1 21.3945C511.716 22.0308 511.152 22.5394 510.48 22.8566C509.716 23.2163 508.879 23.3942 508.034 23.3763C507.243 23.3756 506.457 23.2416 505.711 22.9799C505.017 22.7555 504.377 22.393 503.827 21.9142L504.584 20.2579C505.567 21.0706 506.795 21.5297 508.069 21.5619C508.724 21.6068 509.371 21.3951 509.873 20.9715C510.279 20.5076 510.502 19.9111 510.498 19.2945C510.495 18.6778 510.267 18.0837 509.856 17.624C509.626 17.4108 509.355 17.2456 509.061 17.1382C508.766 17.0308 508.453 16.9833 508.14 16.9986C507.663 16.9955 507.19 17.0884 506.749 17.2717C506.315 17.4538 505.925 17.7271 505.605 18.0732H504.232V10.6914H512.082V12.4532H506.45V15.8709C507.116 15.4269 507.903 15.1994 508.703 15.2192C509.427 15.204 510.143 15.377 510.78 15.7214Z" fill="#CCCCCC"/>
<path d="M108.683 382.349C108.238 381.367 108.014 380.298 108.026 379.219C108.038 378.14 108.286 377.076 108.753 376.104C109.22 375.131 109.895 374.273 110.729 373.589C111.563 372.906 112.537 372.414 113.582 372.148L115.805 346.01L126.498 354.453L122.747 377.979C123.077 379.766 122.741 381.612 121.802 383.167C120.864 384.722 119.388 385.879 117.654 386.417C115.921 386.956 114.05 386.839 112.397 386.09C110.743 385.34 109.422 384.009 108.683 382.349H108.683Z" fill="#FFB8B8"/>
<path d="M115.56 369.405C114.79 369.303 114.081 368.933 113.558 368.359C113.034 367.786 112.729 367.046 112.697 366.27L111.459 336.607C111.014 325.946 113.182 315.338 117.773 305.707L128.75 282.683C129.486 281.298 130.541 280.109 131.827 279.214C133.114 278.319 134.595 277.745 136.148 277.538C137.656 277.325 139.192 277.48 140.627 277.99C142.061 278.5 143.352 279.35 144.388 280.466C144.913 281.028 145.385 281.638 145.798 282.288C146.626 283.633 147.106 285.163 147.193 286.741C147.28 288.318 146.973 289.892 146.298 291.32L129.466 337.347L128.171 367.333C128.151 367.787 128.038 368.233 127.839 368.641C127.639 369.05 127.357 369.413 127.011 369.707C126.665 370.002 126.262 370.222 125.827 370.353C125.392 370.484 124.934 370.524 124.483 370.471L115.603 369.411L115.56 369.405Z" fill="#458FF6"/>
<path d="M84.0676 499.005L92.3006 502.622L110.157 472.557L98.0063 467.219L84.0676 499.005Z" fill="#FFB8B8"/>
<path d="M83.1475 495.392L99.361 502.515L99.3616 502.515C100.718 503.112 101.945 503.97 102.97 505.04C103.996 506.111 104.801 507.373 105.339 508.755C105.878 510.137 106.139 511.611 106.108 513.094C106.077 514.577 105.754 516.04 105.158 517.398L105.011 517.734L78.4646 506.07L83.1475 495.392Z" fill="#2F2E41"/>
<path d="M194.597 509.009H203.589L207.866 474.296L194.596 474.297L194.597 509.009Z" fill="#FFB8B8"/>
<path d="M192.304 506.072L210.011 506.071H210.011C211.493 506.071 212.961 506.363 214.33 506.931C215.699 507.499 216.943 508.331 217.99 509.379C219.038 510.428 219.87 511.673 220.437 513.044C221.004 514.414 221.296 515.883 221.296 517.366V517.733L192.305 517.734L192.304 506.072Z" fill="#2F2E41"/>
<path d="M104.038 499.141C103.692 499.141 103.348 499.086 103.019 498.98L87.7741 494.075C86.9507 493.806 86.2651 493.225 85.864 492.457C85.4629 491.689 85.3781 490.794 85.6278 489.964L136.184 328.82L174.052 321.388L174.185 321.605C199.22 362.382 207.577 424.672 212.879 490.671C212.944 491.533 212.67 492.386 212.117 493.05C211.564 493.713 210.774 494.135 209.916 494.225L193.249 495.893C192.471 495.975 191.69 495.776 191.046 495.332C190.401 494.888 189.937 494.229 189.736 493.473L159.218 385.41C159.158 385.189 159.031 384.993 158.855 384.848C158.679 384.703 158.462 384.616 158.234 384.6C158.007 384.584 157.78 384.639 157.585 384.758C157.39 384.877 157.237 385.053 157.146 385.263L107.06 497.143C106.807 497.736 106.386 498.241 105.848 498.596C105.311 498.951 104.682 499.141 104.038 499.141Z" fill="#2F2E41"/>
<path d="M155.749 264.294C165.697 264.294 173.761 256.222 173.761 246.264C173.761 236.307 165.697 228.234 155.749 228.234C145.801 228.234 137.736 236.307 137.736 246.264C137.736 256.222 145.801 264.294 155.749 264.294Z" fill="#FFB8B8"/>
<path d="M132.962 333.592L132.839 333.334C132.755 333.158 124.456 315.535 125.228 295.209C125.484 288.537 128.277 282.215 133.036 277.537C137.795 272.859 144.161 270.178 150.83 270.042C156.976 269.922 162.967 271.976 167.749 275.843C172.53 279.711 175.795 285.143 176.968 291.183C179.281 303.001 179.223 314.194 176.796 324.451L176.742 324.679L176.512 324.726L132.962 333.592Z" fill="#458FF6"/>
<path d="M224.799 359.027C223.733 358.869 222.714 358.479 221.814 357.884C220.914 357.29 220.156 356.505 219.592 355.585C219.028 354.665 218.673 353.633 218.551 352.56C218.428 351.488 218.543 350.402 218.885 349.379L198.138 333.352L211.019 328.928L228.746 344.826C230.426 345.516 231.794 346.798 232.591 348.43C233.389 350.062 233.561 351.931 233.074 353.681C232.588 355.431 231.477 356.942 229.952 357.928C228.427 358.913 226.593 359.304 224.799 359.027H224.799Z" fill="#FFB8B8"/>
<path d="M173.886 323.695L173.838 323.617L151.966 288.162C151.201 286.793 150.774 285.262 150.719 283.695C150.664 282.127 150.984 280.57 151.651 279.151C152.289 277.767 153.251 276.558 154.457 275.627C155.662 274.696 157.074 274.071 158.573 273.804C159.33 273.666 160.097 273.599 160.866 273.604C162.444 273.635 163.989 274.06 165.361 274.841C166.733 275.622 167.889 276.733 168.723 278.074L198.261 317.167L222.743 334.497C223.114 334.759 223.427 335.096 223.662 335.485C223.897 335.874 224.049 336.308 224.109 336.758C224.169 337.209 224.135 337.668 224.01 338.105C223.884 338.542 223.67 338.948 223.38 339.299L217.681 346.197C217.183 346.803 216.484 347.212 215.712 347.348C214.939 347.485 214.143 347.34 213.467 346.94L173.886 323.695Z" fill="#458FF6"/>
<path d="M152.528 245.145C153.855 242.959 156.785 242.341 159.328 242.591C161.872 242.84 164.345 243.735 166.901 243.715C173.997 243.66 179.475 235.003 176.492 228.558C174.045 223.272 167.934 220.951 162.406 219.13C150.815 215.31 137.501 211.64 126.984 217.833C123.632 219.865 120.883 222.756 119.021 226.207C117.158 229.658 116.25 233.544 116.39 237.463C116.627 242.337 118.491 247.343 116.914 251.961C115.095 257.287 109.326 260.145 103.875 261.527C94.3182 263.951 84.2422 263.56 74.626 265.734C65.0098 267.907 55.1558 273.679 52.5637 283.199C50.8611 289.453 52.6377 296.185 55.5798 301.959C58.5816 307.85 62.7532 313.065 67.8391 317.286C72.925 321.506 78.8182 324.643 85.1576 326.505C91.4971 328.366 98.1494 328.912 104.707 328.11C111.265 327.308 117.59 325.174 123.295 321.84C134.921 315.045 143.314 303.561 148.317 291.052C151.155 283.754 153.152 276.157 154.271 268.408C155.391 261.153 154.44 253.822 152.411 246.768C152.315 246.504 152.275 246.224 152.296 245.944C152.316 245.664 152.395 245.392 152.528 245.145Z" fill="#2F2E41"/>
<path d="M280.152 518H0.733383C0.538878 518 0.352338 517.923 0.214802 517.785C0.0772664 517.648 0 517.461 0 517.266C0 517.072 0.0772664 516.885 0.214802 516.747C0.352338 516.61 0.538878 516.532 0.733383 516.532H280.152C280.347 516.532 280.533 516.61 280.671 516.747C280.808 516.885 280.886 517.072 280.886 517.266C280.886 517.461 280.808 517.648 280.671 517.785C280.533 517.923 280.347 518 280.152 518Z" fill="#3F3D56"/>
</g>
<defs>
<clipPath id="clip0">
<rect width="580" height="518" fill="white"/>
</clipPath>
</defs>
</svg>
