<svg width="90" height="90" viewBox="0 0 90 90" fill="none" xmlns="http://www.w3.org/2000/svg">
<g clip-path="url(#clip0)">
<path d="M76.2341 36.0798C76.2341 25.4038 67.5488 16.7184 56.8728 16.7184C54.4077 16.7184 51.9598 17.1936 49.687 18.1013V9.05685C49.687 6.77719 47.8317 4.92188 45.5521 4.92188H27.7453C27.014 4.92188 26.4221 5.51445 26.4221 6.24504C26.4221 6.97632 27.0147 7.56821 27.7453 7.56821H45.5521C46.3726 7.56821 47.0407 8.23631 47.0407 9.05685V20.1496C47.04 20.1627 47.04 20.1764 47.0407 20.1894V26.4757C47.0407 27.2969 46.3726 27.9643 45.5521 27.9643H36.9731C36.3771 27.9643 35.8168 28.1964 35.3945 28.618L31.986 32.0272L28.5775 28.618C28.1559 28.1964 27.5949 27.9643 26.9989 27.9643H18.4206C17.5994 27.9643 16.932 27.2969 16.932 26.4757V9.05754C16.932 8.23631 17.5994 7.56889 18.4206 7.56889H22.4224C23.1537 7.56889 23.7456 6.97632 23.7456 6.24573C23.7456 5.51445 23.153 4.92256 22.4224 4.92256H18.4206C16.1403 4.92256 14.285 6.77719 14.285 9.05754V26.4764C14.285 28.7567 16.1403 30.612 18.4206 30.612H26.8272L30.4074 34.1922C30.8427 34.6268 31.4147 34.8445 31.986 34.8445C32.5573 34.8445 33.1293 34.6268 33.5646 34.1922L37.1448 30.612H38.2956C37.7751 32.3774 37.5114 34.2094 37.5114 36.0798C37.5114 38.3533 37.896 40.5547 38.6547 42.6503H5.43892C2.43965 42.6496 0 45.0893 0 48.0878V73.5802C0 76.5795 2.43965 79.0192 5.43892 79.0192L17.9984 79.0212L23.4153 84.4382C23.933 84.9559 24.6121 85.2141 25.2919 85.2141C25.9717 85.2141 26.6508 84.9559 27.1685 84.4382L32.5903 79.0192H45.1449C48.1441 79.0192 50.5838 76.5795 50.5838 73.5809V62.4195C50.5838 61.6882 49.9912 61.0957 49.2606 61.0957C48.53 61.0957 47.9375 61.6882 47.9375 62.4195V73.5809C47.9375 75.1197 46.685 76.3728 45.1456 76.3728H32.5909C31.8816 76.3728 31.2156 76.6489 30.7143 77.1501L25.2871 82.5671L19.8695 77.1494C19.3682 76.6489 18.7022 76.3728 17.9935 76.3728H5.43892C3.89946 76.3728 2.64633 75.1204 2.64633 73.5809V48.0878C2.64633 46.5491 3.89877 45.2959 5.43823 45.2959H45.1449C46.6843 45.2959 47.9368 46.5484 47.9368 48.0878V56.8027C47.9368 57.5333 48.5294 58.1259 49.2599 58.1259C49.9912 58.1259 50.5838 57.5333 50.5838 56.8027V54.3961C52.5964 55.0896 54.7037 55.4411 56.8728 55.4411C67.5488 55.4411 76.2341 46.7558 76.2341 36.0798ZM45.1449 42.6496H41.4995C40.6103 40.5773 40.1585 38.3711 40.1585 36.0798C40.1585 34.1977 40.4675 32.363 41.0751 30.6113H45.5521C47.8317 30.6113 49.687 28.7567 49.687 26.4757V20.988C51.9159 19.9258 54.383 19.3648 56.8728 19.3648C66.0889 19.3648 73.5871 26.8629 73.5871 36.0798C73.5871 45.2959 66.0889 52.7941 56.8728 52.7941C54.6879 52.7941 52.5764 52.3814 50.5838 51.5691V48.0878C50.5838 45.0893 48.1441 42.6496 45.1449 42.6496Z" fill="#969696"/>
<path d="M86.3134 57.7197H63.5085C61.4753 57.7197 59.8219 59.3739 59.8219 61.4063V76.0477C59.8219 78.0801 61.4753 79.7343 63.5085 79.7343H70.4876L73.4353 82.682C73.8418 83.0885 74.376 83.2918 74.9109 83.2918C75.4451 83.2918 75.98 83.0885 76.3872 82.682L79.3343 79.7343H86.3134C88.3458 79.7343 90 78.0801 90 76.0477V61.407C90 59.3739 88.3458 57.7197 86.3134 57.7197ZM87.3536 76.0477C87.3536 76.621 86.8867 77.0879 86.3134 77.0879H79.1029C78.5447 77.0879 78.0208 77.3049 77.6266 77.6991L74.9109 80.4154L72.1953 77.6997C71.8011 77.3049 71.2765 77.0879 70.719 77.0879H63.5085C62.9352 77.0879 62.4682 76.621 62.4682 76.0477V61.407C62.4682 60.833 62.9345 60.3667 63.5085 60.3667H86.3134C86.8867 60.3667 87.3536 60.833 87.3536 61.407V76.0477Z" fill="#969696"/>
<path d="M27.884 60.8541L28.4148 60.4099L29.142 59.7163C29.2916 59.568 29.5203 59.3044 29.8286 58.9253C30.1369 58.5463 30.3704 58.2037 30.529 57.8981C30.6876 57.5925 30.8373 57.2183 30.9774 56.7741C31.1174 56.3298 31.1875 55.8766 31.1875 55.4138C31.1875 54.0632 30.6691 52.9433 29.6329 52.0547C28.5968 51.1669 27.2084 50.7227 25.4698 50.7227C23.9152 50.7227 22.6751 51.0742 21.7502 51.7773C20.8246 52.4812 20.3618 53.2207 20.3618 53.998C20.3618 54.4237 20.5046 54.7519 20.7903 54.9833C21.0766 55.2147 21.3945 55.33 21.7454 55.33C22.0214 55.33 22.2659 55.236 22.4774 55.0471C22.6895 54.8583 22.8701 54.6564 23.0171 54.4422C23.1647 54.228 23.4414 54.0261 23.8472 53.8366C24.253 53.6485 24.7598 53.5537 25.3681 53.5537C26.2347 53.5537 26.9268 53.7597 27.4432 54.171C27.9589 54.583 28.2177 55.1632 28.2177 55.9137C28.2177 56.3525 28.1113 56.7782 27.8984 57.1895C27.6856 57.6008 27.4727 57.9118 27.2599 58.1226C27.047 58.3327 26.7277 58.6205 26.3027 58.9871L25.4972 59.6449C24.3869 60.633 23.8314 62.0784 23.8314 63.9804C23.8314 64.5661 23.9289 64.9685 24.1233 65.1882C24.3176 65.4079 24.6458 65.5171 25.1086 65.5171C26.0335 65.5171 26.4963 65.1841 26.4963 64.5181C26.4963 63.5739 26.5705 62.8529 26.7188 62.3531C26.8664 61.8532 27.2551 61.354 27.884 60.8541Z" fill="#969696"/>
<path d="M25.136 67.5156C24.6176 67.5156 24.2015 67.701 23.887 68.0711C23.5718 68.4412 23.4153 68.8855 23.4153 69.4032C23.4153 69.9031 23.5718 70.3425 23.887 70.7216C24.2015 71.1013 24.6176 71.2908 25.136 71.2908C25.6537 71.2908 26.098 71.1013 26.4681 70.7216C26.8382 70.3425 27.0236 69.9031 27.0236 69.4032C27.0236 68.8855 26.8382 68.4412 26.4681 68.0711C26.098 67.701 25.6537 67.5156 25.136 67.5156Z" fill="#969696"/>
<path d="M55.5133 38.1409C55.5133 38.8447 55.9823 39.1955 56.9216 39.1955C57.2663 39.1955 57.5876 39.1035 57.8849 38.9181C58.1816 38.7334 58.3306 38.4746 58.3306 38.1409C58.3306 36.9193 58.3972 34.8841 58.5318 32.0338C58.6657 29.1842 58.733 27.1483 58.733 25.9275C58.733 25.4647 58.5606 25.0946 58.2152 24.8172C57.8698 24.5391 57.4386 24.4004 56.9209 24.4004C56.4032 24.4004 55.9747 24.535 55.6341 24.8028C55.2942 25.0712 55.1246 25.4462 55.1246 25.9275C55.1246 27.1483 55.1892 29.1842 55.319 32.0338C55.448 34.8841 55.5133 36.9193 55.5133 38.1409Z" fill="#969696"/>
<path d="M56.9476 44.9695C57.4832 44.9695 57.9425 44.78 58.325 44.4003C58.7081 44.0213 58.8997 43.5818 58.8997 43.0819C58.8997 42.5642 58.7075 42.1199 58.325 41.7498C57.9425 41.3797 57.4832 41.1943 56.9476 41.1943C56.39 41.1943 55.9231 41.3797 55.5482 41.7498C55.1726 42.1199 54.9858 42.5642 54.9858 43.0819C54.9858 43.6003 55.1726 44.0446 55.5482 44.4147C55.9231 44.7848 56.39 44.9695 56.9476 44.9695Z" fill="#969696"/>
<path d="M42.2575 10.4629H21.3677C20.6364 10.4629 20.0446 11.0555 20.0446 11.7861C20.0446 12.5166 20.6371 13.1092 21.3677 13.1092H42.2575C42.9881 13.1092 43.5807 12.5166 43.5807 11.7861C43.5807 11.0555 42.9881 10.4629 42.2575 10.4629Z" fill="#969696"/>
<path d="M43.5807 17.121C43.5807 16.3897 42.9881 15.7979 42.2575 15.7979H21.3677C20.6364 15.7979 20.0446 16.3897 20.0446 17.121C20.0446 17.8516 20.6371 18.4442 21.3677 18.4442H42.2575C42.9881 18.4442 43.5807 17.8516 43.5807 17.121Z" fill="#969696"/>
<path d="M21.3677 21.1318C20.6364 21.1318 20.0446 21.7244 20.0446 22.455C20.0446 23.1863 20.6371 23.7789 21.3677 23.7789H31.986C32.7166 23.7789 33.3092 23.1863 33.3092 22.455C33.3092 21.7244 32.7166 21.1318 31.986 21.1318H21.3677Z" fill="#969696"/>
<path d="M70.0949 68.803C70.0949 69.5652 69.4769 70.1832 68.714 70.1832C67.9518 70.1832 67.3339 69.5652 67.3339 68.803C67.3339 68.0408 67.9518 67.4229 68.714 67.4229C69.4769 67.4229 70.0949 68.0408 70.0949 68.803Z" fill="#969696"/>
<path d="M75.9725 68.803C75.9725 69.5652 75.3546 70.1832 74.5917 70.1832C73.8295 70.1832 73.2115 69.5652 73.2115 68.803C73.2115 68.0408 73.8295 67.4229 74.5917 67.4229C75.3546 67.4229 75.9725 68.0408 75.9725 68.803Z" fill="#969696"/>
<path d="M81.9848 68.803C81.9848 69.5652 81.3668 70.1832 80.6046 70.1832C79.8417 70.1832 79.2238 69.5652 79.2238 68.803C79.2238 68.0408 79.8417 67.4229 80.6046 67.4229C81.3668 67.4229 81.9848 68.0408 81.9848 68.803Z" fill="#969696"/>
</g>
<defs>
<clipPath id="clip0">
<rect width="90" height="90" fill="white"/>
</clipPath>
</defs>
</svg>
