<svg width="90" height="90" viewBox="0 0 90 90" fill="none" xmlns="http://www.w3.org/2000/svg">
<g clip-path="url(#clip0)">
<path d="M76.2341 36.0798C76.2341 25.4038 67.5488 16.7184 56.8728 16.7184C54.4077 16.7184 51.9598 17.1936 49.687 18.1013V9.05685C49.687 6.77719 47.8317 4.92188 45.5521 4.92188H27.7453C27.014 4.92188 26.4221 5.51445 26.4221 6.24504C26.4221 6.97632 27.0147 7.56821 27.7453 7.56821H45.5521C46.3726 7.56821 47.0407 8.23631 47.0407 9.05685V20.1496C47.04 20.1627 47.04 20.1764 47.0407 20.1894V26.4757C47.0407 27.2969 46.3726 27.9643 45.5521 27.9643H36.9731C36.3771 27.9643 35.8168 28.1964 35.3945 28.618L31.986 32.0272L28.5775 28.618C28.1559 28.1964 27.5949 27.9643 26.9989 27.9643H18.4206C17.5994 27.9643 16.932 27.2969 16.932 26.4757V9.05754C16.932 8.23631 17.5994 7.56889 18.4206 7.56889H22.4224C23.1537 7.56889 23.7456 6.97632 23.7456 6.24573C23.7456 5.51445 23.153 4.92256 22.4224 4.92256H18.4206C16.1403 4.92256 14.285 6.77719 14.285 9.05754V26.4764C14.285 28.7567 16.1403 30.612 18.4206 30.612H26.8272L30.4074 34.1922C30.8427 34.6268 31.4147 34.8445 31.986 34.8445C32.5573 34.8445 33.1293 34.6268 33.5646 34.1922L37.1448 30.612H38.2956C37.7751 32.3774 37.5114 34.2094 37.5114 36.0798C37.5114 38.3533 37.896 40.5547 38.6547 42.6503H5.43892C2.43965 42.6496 0 45.0893 0 48.0878V73.5802C0 76.5795 2.43965 79.0192 5.43892 79.0192L17.9984 79.0212L23.4153 84.4382C23.933 84.9559 24.6121 85.2141 25.2919 85.2141C25.9717 85.2141 26.6508 84.9559 27.1685 84.4382L32.5903 79.0192H45.1449C48.1441 79.0192 50.5838 76.5795 50.5838 73.5809V62.4195C50.5838 61.6882 49.9912 61.0957 49.2606 61.0957C48.53 61.0957 47.9375 61.6882 47.9375 62.4195V73.5809C47.9375 75.1197 46.685 76.3728 45.1456 76.3728H32.5909C31.8816 76.3728 31.2156 76.6489 30.7143 77.1501L25.2871 82.5671L19.8695 77.1494C19.3682 76.6489 18.7022 76.3728 17.9935 76.3728H5.43892C3.89946 76.3728 2.64633 75.1204 2.64633 73.5809V48.0878C2.64633 46.5491 3.89877 45.2959 5.43823 45.2959H45.1449C46.6843 45.2959 47.9368 46.5484 47.9368 48.0878V56.8027C47.9368 57.5333 48.5294 58.1259 49.2599 58.1259C49.9912 58.1259 50.5838 57.5333 50.5838 56.8027V54.3961C52.5964 55.0896 54.7037 55.4411 56.8728 55.4411C67.5488 55.4411 76.2341 46.7558 76.2341 36.0798ZM45.1449 42.6496H41.4995C40.6103 40.5773 40.1585 38.3711 40.1585 36.0798C40.1585 34.1977 40.4675 32.363 41.0751 30.6113H45.5521C47.8317 30.6113 49.687 28.7567 49.687 26.4757V20.988C51.9159 19.9258 54.383 19.3648 56.8728 19.3648C66.0889 19.3648 73.5871 26.8629 73.5871 36.0798C73.5871 45.2959 66.0889 52.7941 56.8728 52.7941C54.6879 52.7941 52.5764 52.3814 50.5838 51.5691V48.0878C50.5838 45.0893 48.1441 42.6496 45.1449 42.6496Z" fill="#969696"/>
<path d="M86.3134 57.7201H63.5085C61.4753 57.7201 59.8219 59.3742 59.8219 61.4067V76.048C59.8219 78.0805 61.4753 79.7346 63.5085 79.7346H70.4876L73.4353 82.6824C73.8418 83.0889 74.376 83.2921 74.9109 83.2921C75.4451 83.2921 75.98 83.0889 76.3872 82.6824L79.3343 79.7346H86.3134C88.3458 79.7346 90 78.0805 90 76.048V61.4074C90 59.3742 88.3458 57.7201 86.3134 57.7201ZM87.3536 76.048C87.3536 76.6214 86.8867 77.0883 86.3134 77.0883H79.1029C78.5447 77.0883 78.0208 77.3053 77.6266 77.6994L74.9109 80.4158L72.1953 77.7001C71.8011 77.3053 71.2765 77.0883 70.719 77.0883H63.5085C62.9352 77.0883 62.4682 76.6214 62.4682 76.048V61.4074C62.4682 60.8333 62.9345 60.3671 63.5085 60.3671H86.3134C86.8867 60.3671 87.3536 60.8333 87.3536 61.4074V76.048Z" fill="#969696"/>
<path d="M27.884 60.854L28.4148 60.4097L29.142 59.7162C29.2916 59.5679 29.5203 59.3042 29.8286 58.9252C30.1369 58.5462 30.3704 58.2035 30.529 57.898C30.6876 57.5924 30.8373 57.2182 30.9774 56.7739C31.1174 56.3297 31.1875 55.8765 31.1875 55.4137C31.1875 54.0631 30.6691 52.9431 29.6329 52.0546C28.5968 51.1668 27.2084 50.7225 25.4698 50.7225C23.9152 50.7225 22.6751 51.0741 21.7502 51.7772C20.8246 52.481 20.3618 53.2206 20.3618 53.9978C20.3618 54.4236 20.5046 54.7518 20.7903 54.9832C21.0766 55.2146 21.3945 55.3299 21.7454 55.3299C22.0214 55.3299 22.2659 55.2359 22.4774 55.047C22.6895 54.8582 22.8701 54.6563 23.0171 54.4421C23.1647 54.2279 23.4414 54.026 23.8472 53.8365C24.253 53.6483 24.7598 53.5536 25.3681 53.5536C26.2347 53.5536 26.9268 53.7596 27.4432 54.1709C27.9589 54.5829 28.2177 55.1631 28.2177 55.9136C28.2177 56.3523 28.1113 56.7781 27.8984 57.1894C27.6856 57.6007 27.4727 57.9117 27.2599 58.1225C27.047 58.3326 26.7277 58.6203 26.3027 58.987L25.4972 59.6448C24.3869 60.6329 23.8314 62.0783 23.8314 63.9803C23.8314 64.566 23.9289 64.9684 24.1233 65.1881C24.3176 65.4078 24.6458 65.517 25.1086 65.517C26.0335 65.517 26.4963 65.184 26.4963 64.5179C26.4963 63.5738 26.5705 62.8528 26.7188 62.3529C26.8664 61.8531 27.2551 61.3539 27.884 60.854Z" fill="#969696"/>
<path d="M25.136 67.5157C24.6176 67.5157 24.2015 67.7011 23.887 68.0712C23.5718 68.4413 23.4153 68.8856 23.4153 69.4033C23.4153 69.9032 23.5718 70.3427 23.887 70.7217C24.2015 71.1014 24.6176 71.2909 25.136 71.2909C25.6537 71.2909 26.098 71.1014 26.4681 70.7217C26.8382 70.3427 27.0236 69.9032 27.0236 69.4033C27.0236 68.8856 26.8382 68.4413 26.4681 68.0712C26.098 67.7011 25.6537 67.5157 25.136 67.5157Z" fill="#969696"/>
<path d="M55.5133 38.1411C55.5133 38.8449 55.9823 39.1958 56.9216 39.1958C57.2663 39.1958 57.5876 39.1038 57.8849 38.9184C58.1816 38.7337 58.3306 38.4748 58.3306 38.1411C58.3306 36.9196 58.3972 34.8843 58.5318 32.0341C58.6657 29.1845 58.733 27.1486 58.733 25.9277C58.733 25.4649 58.5606 25.0948 58.2152 24.8174C57.8698 24.5393 57.4386 24.4006 56.9209 24.4006C56.4032 24.4006 55.9747 24.5352 55.6341 24.803C55.2942 25.0715 55.1246 25.4464 55.1246 25.9277C55.1246 27.1486 55.1892 29.1845 55.319 32.0341C55.448 34.8843 55.5133 36.9196 55.5133 38.1411Z" fill="#969696"/>
<path d="M56.9476 44.9698C57.4832 44.9698 57.9425 44.7802 58.325 44.4005C58.7081 44.0215 58.8997 43.582 58.8997 43.0822C58.8997 42.5644 58.7075 42.1202 58.325 41.7501C57.9425 41.38 57.4832 41.1946 56.9476 41.1946C56.39 41.1946 55.9231 41.38 55.5482 41.7501C55.1726 42.1202 54.9858 42.5644 54.9858 43.0822C54.9858 43.6006 55.1726 44.0448 55.5482 44.4149C55.9231 44.785 56.39 44.9698 56.9476 44.9698Z" fill="#969696"/>
<path d="M42.2575 10.4624H21.3677C20.6364 10.4624 20.0446 11.055 20.0446 11.7856C20.0446 12.5162 20.6371 13.1087 21.3677 13.1087H42.2575C42.9881 13.1087 43.5807 12.5162 43.5807 11.7856C43.5807 11.055 42.9881 10.4624 42.2575 10.4624Z" fill="#969696"/>
<path d="M43.5807 17.1208C43.5807 16.3895 42.9881 15.7976 42.2575 15.7976H21.3677C20.6364 15.7976 20.0446 16.3895 20.0446 17.1208C20.0446 17.8514 20.6371 18.4439 21.3677 18.4439H42.2575C42.9881 18.4439 43.5807 17.8514 43.5807 17.1208Z" fill="#969696"/>
<path d="M21.3677 21.1322C20.6364 21.1322 20.0446 21.7248 20.0446 22.4554C20.0446 23.1866 20.6371 23.7792 21.3677 23.7792H31.986C32.7166 23.7792 33.3092 23.1866 33.3092 22.4554C33.3092 21.7248 32.7166 21.1322 31.986 21.1322H21.3677Z" fill="#969696"/>
<path d="M70.0949 68.8025C70.0949 69.5647 69.4769 70.1827 68.714 70.1827C67.9518 70.1827 67.3339 69.5647 67.3339 68.8025C67.3339 68.0403 67.9518 67.4224 68.714 67.4224C69.4769 67.4224 70.0949 68.0403 70.0949 68.8025Z" fill="#969696"/>
<path d="M75.9725 68.8025C75.9725 69.5647 75.3546 70.1827 74.5917 70.1827C73.8295 70.1827 73.2115 69.5647 73.2115 68.8025C73.2115 68.0403 73.8295 67.4224 74.5917 67.4224C75.3546 67.4224 75.9725 68.0403 75.9725 68.8025Z" fill="#969696"/>
<path d="M81.9848 68.8025C81.9848 69.5647 81.3668 70.1827 80.6046 70.1827C79.8417 70.1827 79.2238 69.5647 79.2238 68.8025C79.2238 68.0403 79.8417 67.4224 80.6046 67.4224C81.3668 67.4224 81.9848 68.0403 81.9848 68.8025Z" fill="#969696"/>
</g>
<defs>
<clipPath id="clip0">
<rect width="90" height="90" fill="white"/>
</clipPath>
</defs>
</svg>
