<svg width="210" height="28" viewBox="0 0 210 28" fill="none" xmlns="http://www.w3.org/2000/svg">
<path d="M12.5275 7.05182C11.7528 7.02534 10.9846 7.20043 10.2979 7.55997C9.61117 7.9195 9.02959 8.45115 8.61003 9.1029C7.6773 10.4684 7.21094 12.3535 7.21094 14.758C7.21094 19.7556 9.11183 22.2544 12.9136 22.2544C14.0437 22.2569 15.1681 22.0958 16.2519 21.7759C17.3549 21.4471 18.4402 21.0614 19.5034 20.6202V26.5524C17.1803 27.5426 14.6747 28.0327 12.1497 27.9907C8.23227 27.9907 5.22702 26.8546 3.13398 24.5825C1.04093 22.3103 -0.00372096 19.0243 9.95797e-06 14.7245C9.95797e-06 12.0345 0.50648 9.67185 1.51942 7.63664C2.46997 5.66707 3.99218 4.02979 5.88739 2.93848C7.79016 1.84346 10.0287 1.29595 12.603 1.29595C15.3867 1.28931 18.1359 1.91204 20.645 3.11757L18.496 8.64119C17.5625 8.20116 16.6017 7.82168 15.6195 7.50513C14.6187 7.1941 13.5755 7.04116 12.5275 7.05182Z" fill="#458FF6"/>
<path d="M43.3802 17.5303C43.3802 20.821 42.495 23.3869 40.7247 25.2281C38.9544 27.0693 36.477 27.9899 33.2927 27.9899C30.2371 27.9899 27.8064 27.0488 26.0006 25.1666C24.1949 23.2843 23.292 20.7389 23.292 17.5303C23.292 14.2509 24.1771 11.7017 25.9475 9.88288C27.7178 8.06406 30.2016 7.15558 33.399 7.15745C35.2242 7.12054 37.0282 7.55419 38.6372 8.41663C40.1412 9.2449 41.3632 10.5039 42.1462 12.0319C43 13.7365 43.4237 15.6243 43.3802 17.5303ZM30.3434 17.5303C30.3434 19.2596 30.5747 20.5766 31.0374 21.4814C31.5 22.3861 32.2751 22.8394 33.3627 22.8413C34.439 22.8413 35.2001 22.388 35.646 21.4814C36.0918 20.5747 36.3138 19.2577 36.312 17.5303C36.312 15.8122 36.0872 14.5157 35.6376 13.6408C35.188 12.7659 34.4176 12.3276 33.3263 12.3257C32.263 12.3257 31.5 12.7603 31.0374 13.6297C30.5747 14.499 30.3416 15.7992 30.3378 17.5303H30.3434Z" fill="#458FF6"/>
<path d="M60.0409 27.6379V16.6606C60.0409 15.3203 59.8479 14.3129 59.4645 13.6302C59.2841 13.3014 59.0139 13.0308 58.6853 12.8499C58.3568 12.669 57.9836 12.5854 57.6093 12.6088C56.4359 12.6088 55.589 13.0752 55.0686 14.0079C54.5481 14.9407 54.2879 16.5449 54.2879 18.8208V27.6323H47.3428V7.51333H52.581L53.4512 9.99812H53.8598C54.4469 9.05715 55.304 8.31505 56.3194 7.86871C57.4596 7.37564 58.6925 7.13326 59.9346 7.15797C62.162 7.15797 63.894 7.80341 65.1308 9.09431C66.3676 10.3852 66.9888 12.2022 66.9944 14.5452V27.6379H60.0409Z" fill="#458FF6"/>
<path d="M87.2532 21.4566C87.2532 23.6112 86.5191 25.2388 85.051 26.3394C83.5829 27.4401 81.4749 27.9904 78.7271 27.9904C77.4236 27.9998 76.121 27.9165 74.8293 27.7413C73.6826 27.5709 72.5572 27.2801 71.4714 26.8739V21.3055C72.615 21.8009 73.8006 22.1933 75.0139 22.478C76.1375 22.7647 77.2907 22.9196 78.4501 22.9397C79.9555 22.9397 80.7083 22.5964 80.7083 21.9099C80.7083 21.5546 80.4956 21.2356 80.0759 20.9585C79.6561 20.6815 78.4333 20.1387 76.4074 19.3328C74.5606 18.5736 73.2707 17.7126 72.5375 16.7501C71.8044 15.7875 71.4369 14.5647 71.4351 13.0816C71.4351 11.2162 72.157 9.75926 73.6009 8.71088C75.0447 7.66249 77.0874 7.14203 79.7289 7.14949C80.9866 7.14646 82.2399 7.29585 83.4617 7.5944C84.7084 7.91262 85.9255 8.33765 87.0993 8.86478L85.2161 13.3419C84.2667 12.9183 83.2875 12.5648 82.2864 12.2842C81.4698 12.0287 80.623 11.882 79.7681 11.8476C78.632 11.8476 78.064 12.1275 78.064 12.6871C78.0751 12.8733 78.136 13.053 78.2403 13.2076C78.3447 13.3622 78.4887 13.4858 78.6572 13.5657C79.0545 13.8101 80.2008 14.3045 82.0961 15.0488C83.2187 15.4715 84.2787 16.0448 85.2469 16.7529C85.9102 17.2695 86.4351 17.9425 86.7747 18.7116C87.1201 19.5843 87.2829 20.5185 87.2532 21.4566Z" fill="#458FF6"/>
<path d="M105.441 27.6373L104.571 25.1189H104.162C103.577 26.0476 102.734 26.7856 101.736 27.2427C100.594 27.7556 99.3508 28.007 98.0986 27.9786C95.8843 27.9786 94.1615 27.3369 92.9303 26.0535C91.6991 24.77 91.0835 22.955 91.0835 20.6082V7.5127H98.0286V18.5068C98.0286 19.8126 98.2151 20.8069 98.5882 21.4896C98.7647 21.8169 99.0316 22.0864 99.3571 22.266C99.6826 22.4457 100.053 22.5278 100.424 22.5026C101.621 22.5026 102.472 22.0325 102.984 21.1035C103.496 20.1745 103.745 18.5851 103.745 16.3466V7.5127H110.69V27.6373H105.441Z" fill="#458FF6"/>
<path d="M122.421 27.6377H115.476V0H122.421V27.6377Z" fill="#458FF6"/>
<path d="M137.091 22.5025C138.242 22.4614 139.377 22.2268 140.449 21.8086V26.8733C139.594 27.2522 138.702 27.5428 137.788 27.7407C136.808 27.9253 135.811 28.0115 134.814 27.9982C132.48 27.9982 130.801 27.4273 129.777 26.2857C128.753 25.144 128.231 23.3905 128.213 21.0251V12.7145H125.778V9.89111L128.856 7.70573L130.653 3.48047H135.2V7.51266H140.136V12.7145H135.211V20.5494C135.211 21.8515 135.838 22.5025 137.091 22.5025Z" fill="#458FF6"/>
<path d="M144.375 1.66797H153.433C156.962 1.66797 159.582 2.19216 161.293 3.24055C163.003 4.28893 163.859 5.92027 163.859 8.13457C163.897 9.46599 163.505 10.7742 162.739 11.8646C162.035 12.8672 160.986 13.5755 159.793 13.8541V14.0304C161.403 14.4575 162.569 15.1683 163.291 16.1626C164.013 17.1569 164.373 18.4478 164.371 20.0353C164.371 22.3913 163.486 24.2475 161.715 25.6036C159.945 26.9598 157.533 27.6379 154.479 27.6379H144.375V1.66797ZM151.39 11.6323H153.505C154.511 11.6323 155.289 11.4252 155.839 11.0111C156.119 10.7954 156.342 10.5142 156.489 10.1922C156.635 9.87025 156.7 9.51731 156.679 9.1643C156.679 7.70552 155.578 6.97705 153.377 6.97892H151.418L151.39 11.6323ZM151.39 16.767V22.2178H153.861C156.049 22.2178 157.144 21.2944 157.146 19.4476C157.168 19.0701 157.099 18.6929 156.946 18.347C156.794 18.0011 156.561 17.6964 156.267 17.4581C155.68 16.9964 154.832 16.767 153.718 16.767H151.39Z" fill="#458FF6"/>
<path d="M181.605 27.6381L180.273 24.9715H180.13C179.198 26.1318 178.244 26.9255 177.271 27.3527C176.297 27.7799 175.041 27.9926 173.504 27.9907C171.611 27.9907 170.119 27.4227 169.027 26.2866C167.936 25.1505 167.391 23.5518 167.393 21.4905C167.393 19.3471 168.139 17.7521 169.632 16.7056C171.124 15.6591 173.288 15.0696 176.123 14.9372L179.481 14.8308V14.551C179.481 12.8945 178.664 12.0662 177.03 12.0662C175.562 12.0662 173.696 12.5634 171.434 13.5577L169.408 8.96863C171.753 7.75982 174.713 7.15634 178.289 7.15821C180.869 7.15821 182.867 7.79713 184.283 9.07497C185.699 10.3528 186.407 12.1408 186.407 14.4391V27.6381H181.605ZM176.454 23.0911C177.248 23.107 178.019 22.821 178.611 22.2908C178.905 22.0319 179.138 21.7113 179.293 21.3518C179.448 20.9924 179.522 20.6031 179.509 20.2117V18.6504L177.909 18.7203C175.623 18.8043 174.481 19.6437 174.481 21.2387C174.481 22.4755 175.138 23.0929 176.454 23.0911Z" fill="#458FF6"/>
<path d="M200.857 27.9902C197.499 27.9902 194.897 27.0995 193.052 25.318C191.207 23.5365 190.28 20.9994 190.271 17.7069C190.271 14.3099 191.13 11.6983 192.848 9.87199C194.566 8.04571 197.017 7.13723 200.202 7.14656C203.233 7.14656 205.574 7.93658 207.225 9.51662C208.876 11.0967 209.702 13.3772 209.702 16.3582V19.4362H197.289C197.287 19.941 197.397 20.4398 197.611 20.8974C197.824 21.3549 198.135 21.7598 198.523 22.0833C199.299 22.725 200.356 23.0449 201.693 23.043C202.822 23.0522 203.948 22.9358 205.051 22.6961C206.2 22.4221 207.316 22.0262 208.381 21.5152V26.5072C207.318 27.0543 206.181 27.4427 205.006 27.6601C203.636 27.8931 202.247 28.0036 200.857 27.9902ZM200.448 11.8811C199.689 11.859 198.953 12.1364 198.397 12.6534C197.837 13.1682 197.515 13.9769 197.429 15.0794H203.397C203.414 14.2265 203.115 13.3975 202.558 12.7513C202.29 12.4625 201.962 12.2352 201.598 12.085C201.234 11.9348 200.842 11.8652 200.448 11.8811Z" fill="#458FF6"/>
</svg>
