<svg width="210" height="28" viewBox="0 0 210 28" fill="none" xmlns="http://www.w3.org/2000/svg">
<path d="M12.5275 7.05133C11.7528 7.02485 10.9846 7.19995 10.2979 7.55948C9.61117 7.91901 9.02959 8.45066 8.61003 9.10241C7.6773 10.4679 7.21094 12.353 7.21094 14.7575C7.21094 19.7551 9.11183 22.2539 12.9136 22.2539C14.0437 22.2564 15.1681 22.0953 16.2519 21.7754C17.3549 21.4466 18.4402 21.0609 19.5034 20.6197V26.5519C17.1803 27.5421 14.6747 28.0322 12.1497 27.9902C8.23227 27.9902 5.22702 26.8541 3.13398 24.582C1.04093 22.3098 -0.00372096 19.0238 9.95797e-06 14.724C9.95797e-06 12.034 0.50648 9.67137 1.51942 7.63615C2.46997 5.66658 3.99218 4.0293 5.88739 2.938C7.79016 1.84297 10.0287 1.29546 12.603 1.29546C15.3867 1.28882 18.1359 1.91155 20.645 3.11708L18.496 8.6407C17.5625 8.20067 16.6017 7.8212 15.6195 7.50464C14.6187 7.19361 13.5755 7.04067 12.5275 7.05133Z" fill="#458FF6"/>
<path d="M43.3802 17.5306C43.3802 20.8212 42.4951 23.3872 40.7247 25.2284C38.9544 27.0696 36.4771 27.9902 33.2928 27.9902C30.2371 27.9902 27.8065 27.0491 26.0007 25.1668C24.1949 23.2846 23.2921 20.7392 23.2921 17.5306C23.2921 14.2511 24.1772 11.7019 25.9475 9.88312C27.7178 8.0643 30.2017 7.15583 33.3991 7.15769C35.2243 7.12079 37.0283 7.55444 38.6373 8.41687C40.1412 9.24514 41.3632 10.5041 42.1462 12.0321C43.0001 13.7368 43.4237 15.6245 43.3802 17.5306ZM30.3435 17.5306C30.3435 19.2598 30.5748 20.5769 31.0374 21.4816C31.5001 22.3864 32.2752 22.8397 33.3627 22.8415C34.4391 22.8415 35.2002 22.3882 35.646 21.4816C36.0919 20.575 36.3139 19.258 36.312 17.5306C36.312 15.8125 36.0872 14.516 35.6376 13.6411C35.1881 12.7662 34.4176 12.3278 33.3263 12.3259C32.263 12.3259 31.5001 12.7606 31.0374 13.6299C30.5748 14.4992 30.3416 15.7994 30.3379 17.5306H30.3435Z" fill="#458FF6"/>
<path d="M60.0407 27.6376V16.6604C60.0407 15.32 59.8476 14.3127 59.4643 13.6299C59.2839 13.3012 59.0136 13.0305 58.6851 12.8497C58.3566 12.6688 57.9834 12.5852 57.6091 12.6086C56.4357 12.6086 55.5888 13.075 55.0683 14.0077C54.5479 14.9404 54.2876 16.5447 54.2876 18.8206V27.632H47.3425V7.51309H52.5807L53.451 9.99788H53.8595C54.4466 9.05691 55.3038 8.31481 56.3191 7.86846C57.4594 7.3754 58.6923 7.13302 59.9344 7.15772C62.1617 7.15772 63.8938 7.80316 65.1306 9.09406C66.3674 10.385 66.9886 12.2019 66.9942 14.5449V27.6376H60.0407Z" fill="#458FF6"/>
<path d="M87.253 21.4564C87.253 23.611 86.519 25.2386 85.0508 26.3392C83.5827 27.4398 81.4748 27.9901 78.7269 27.9901C77.4234 27.9995 76.1208 27.9163 74.8291 27.7411C73.6825 27.5706 72.557 27.2799 71.4713 26.8737V21.3053C72.6149 21.8007 73.8004 22.193 75.0138 22.4777C76.1374 22.7644 77.2905 22.9194 78.4499 22.9394C79.9554 22.9394 80.7081 22.5962 80.7081 21.9097C80.7081 21.5543 80.4954 21.2353 80.0757 20.9583C79.6559 20.6813 78.4331 20.1384 76.4073 19.3326C74.5605 18.5733 73.2705 17.7124 72.5374 16.7498C71.8042 15.7872 71.4367 14.5644 71.4349 13.0814C71.4349 11.2159 72.1568 9.75902 73.6007 8.71063C75.0445 7.66225 77.0872 7.14179 79.7287 7.14925C80.9864 7.14621 82.2398 7.29561 83.4615 7.59416C84.7083 7.91238 85.9253 8.33741 87.0991 8.86454L85.2159 13.3416C84.2665 12.9181 83.2873 12.5646 82.2862 12.2839C81.4696 12.0285 80.6229 11.8817 79.7679 11.8474C78.6318 11.8474 78.0638 12.1272 78.0638 12.6869C78.0749 12.873 78.1358 13.0528 78.2402 13.2074C78.3445 13.3619 78.4885 13.4856 78.657 13.5655C79.0543 13.8099 80.2007 14.3042 82.096 15.0485C83.2185 15.4713 84.2785 16.0445 85.2467 16.7526C85.91 17.2693 86.435 17.9422 86.7745 18.7114C87.1199 19.5841 87.2827 20.5183 87.253 21.4564Z" fill="#458FF6"/>
<path d="M105.441 27.6377L104.571 25.1194H104.162C103.577 26.0481 102.734 26.7861 101.736 27.2432C100.594 27.7561 99.3509 28.0075 98.0987 27.9791C95.8844 27.9791 94.1617 27.3374 92.9305 26.054C91.6993 24.7705 91.0837 22.9554 91.0837 20.6087V7.51318H98.0288V18.5073C98.0288 19.8131 98.2153 20.8074 98.5884 21.4901C98.7649 21.8174 99.0318 22.0869 99.3573 22.2665C99.6828 22.4461 100.053 22.5283 100.424 22.5031C101.622 22.5031 102.472 22.033 102.984 21.104C103.496 20.175 103.745 18.5856 103.745 16.3471V7.51318H110.691V27.6377H105.441Z" fill="#458FF6"/>
<path d="M122.421 27.6377H115.476V0H122.421V27.6377Z" fill="#458FF6"/>
<path d="M137.092 22.503C138.242 22.4618 139.377 22.2272 140.449 21.8091V26.8738C139.594 27.2526 138.702 27.5433 137.788 27.7412C136.808 27.9258 135.811 28.012 134.814 27.9987C132.48 27.9987 130.801 27.4278 129.777 26.2862C128.753 25.1445 128.232 23.391 128.213 21.0256V12.715H125.778V9.8916L128.856 7.70622L130.653 3.48096H135.2V7.51314H140.136V12.715H135.211V20.5499C135.211 21.852 135.838 22.503 137.092 22.503Z" fill="#458FF6"/>
<path d="M144.375 1.66772H153.433C156.962 1.66772 159.582 2.19192 161.293 3.2403C163.004 4.28869 163.859 5.92003 163.859 8.13433C163.897 9.46575 163.505 10.774 162.74 11.8643C162.035 12.867 160.986 13.5752 159.793 13.8538V14.0301C161.403 14.4573 162.569 15.168 163.291 16.1623C164.013 17.1566 164.373 18.4475 164.371 20.035C164.371 22.3911 163.486 24.2472 161.716 25.6034C159.945 26.9596 157.533 27.6377 154.479 27.6377H144.375V1.66772ZM151.39 11.6321H153.506C154.511 11.6321 155.289 11.425 155.839 11.0109C156.12 10.7951 156.343 10.5139 156.489 10.192C156.635 9.87001 156.701 9.51706 156.679 9.16406C156.679 7.70527 155.578 6.97681 153.377 6.97868H151.418L151.39 11.6321ZM151.39 16.7667V22.2176H153.861C156.049 22.2176 157.144 21.2942 157.146 19.4474C157.168 19.0699 157.099 18.6926 156.947 18.3468C156.794 18.0009 156.561 17.6962 156.267 17.4579C155.68 16.9962 154.832 16.7667 153.718 16.7667H151.39Z" fill="#458FF6"/>
<path d="M181.605 27.6376L180.273 24.971H180.13C179.198 26.1313 178.244 26.925 177.271 27.3522C176.297 27.7794 175.041 27.9921 173.504 27.9902C171.611 27.9902 170.119 27.4222 169.027 26.2861C167.936 25.1501 167.391 23.5514 167.393 21.49C167.393 19.3466 168.139 17.7516 169.632 16.7051C171.124 15.6586 173.288 15.0691 176.123 14.9367L179.481 14.8303V14.5505C179.481 12.894 178.664 12.0657 177.03 12.0657C175.562 12.0657 173.696 12.5629 171.434 13.5572L169.408 8.96815C171.753 7.75933 174.713 7.15585 178.289 7.15772C180.869 7.15772 182.867 7.79664 184.283 9.07448C185.699 10.3523 186.407 12.1404 186.407 14.4386V27.6376H181.605ZM176.454 23.0906C177.248 23.1065 178.019 22.8205 178.611 22.2903C178.905 22.0314 179.138 21.7108 179.293 21.3513C179.448 20.9919 179.522 20.6026 179.509 20.2113V18.6499L177.909 18.7198C175.623 18.8038 174.481 19.6432 174.481 21.2382C174.481 22.475 175.138 23.0925 176.454 23.0906Z" fill="#458FF6"/>
<path d="M200.857 27.9902C197.499 27.9902 194.897 27.0995 193.052 25.318C191.207 23.5365 190.28 20.9994 190.271 17.7069C190.271 14.3099 191.13 11.6983 192.848 9.87199C194.566 8.04571 197.017 7.13723 200.202 7.14656C203.233 7.14656 205.574 7.93658 207.225 9.51662C208.876 11.0967 209.702 13.3772 209.702 16.3582V19.4362H197.289C197.287 19.941 197.397 20.4398 197.611 20.8974C197.824 21.3549 198.135 21.7598 198.523 22.0833C199.299 22.725 200.356 23.0449 201.693 23.043C202.822 23.0522 203.948 22.9358 205.051 22.6961C206.2 22.4221 207.316 22.0262 208.381 21.5152V26.5072C207.318 27.0543 206.181 27.4427 205.006 27.6601C203.636 27.8931 202.247 28.0036 200.857 27.9902ZM200.448 11.8811C199.689 11.859 198.953 12.1364 198.397 12.6534C197.837 13.1682 197.515 13.9769 197.429 15.0794H203.397C203.414 14.2265 203.115 13.3975 202.558 12.7513C202.29 12.4625 201.962 12.2352 201.598 12.085C201.234 11.9348 200.842 11.8652 200.448 11.8811Z" fill="#458FF6"/>
</svg>
