<svg width="90" height="90" viewBox="0 0 90 90" fill="none" xmlns="http://www.w3.org/2000/svg">
<g clip-path="url(#clip0)">
<path d="M59.7464 23.5912C60.5045 23.5912 61.1519 22.9253 61.1519 22.1672C61.1519 21.3904 60.5045 20.7432 59.7464 20.7432C58.9327 20.7432 58.3224 21.3904 58.3224 22.1672C58.3224 22.9253 58.9327 23.5912 59.7464 23.5912Z" fill="#969696" stroke="white" stroke-width="0.3"/>
<path d="M59.7279 19.4668C60.1717 19.4668 60.8007 19.2264 60.8007 18.6531C60.8007 16.4524 61.0596 13.2899 61.0596 11.0891C61.0596 10.3679 60.4493 9.96094 59.7281 9.96094C58.9699 9.96094 58.3781 10.3679 58.3781 11.0891C58.3781 13.2899 58.637 16.4524 58.637 18.6531C58.6368 19.2264 59.1362 19.4668 59.7279 19.4668Z" fill="#969696" stroke="white" stroke-width="0.3"/>
<path d="M28.3131 5.97168C25.8163 5.97168 24.6697 7.45123 24.6697 8.44984C24.6697 9.17107 25.28 9.504 25.7794 9.504C26.778 9.504 26.3711 8.08 28.2575 8.08C29.1823 8.08 29.922 8.48676 29.922 9.33754C29.922 10.3362 28.8863 10.9096 28.2762 11.4274C27.7399 11.8897 27.0371 12.648 27.0371 14.2385C27.0371 15.2002 27.296 15.4776 28.0543 15.4776C28.9605 15.4776 29.1456 15.0708 29.1456 14.7194C29.1456 13.7577 29.1641 13.203 30.1813 12.4077C30.6807 12.0194 32.2527 10.7619 32.2527 9.02342C32.2527 7.28494 30.6803 5.97168 28.3131 5.97168Z" fill="#969696" stroke="white" stroke-width="0.3"/>
<path d="M28.0725 16.7539C27.2958 16.7539 26.667 17.4011 26.667 18.1779C26.667 18.9361 27.2773 19.6019 28.0725 19.6019C28.8678 19.6019 29.4965 18.9361 29.4965 18.1779C29.4965 17.4011 28.8493 16.7539 28.0725 16.7539Z" fill="#969696" stroke="white" stroke-width="0.3"/>
<path d="M36.8036 59.7301C36.3863 59.2103 36.3794 58.7468 36.403 57.972C36.4965 54.896 35.8509 52.0103 34.5153 49.4091C36.8458 47.7035 38.3633 44.9497 38.3633 41.8468C38.3633 40.1349 36.9706 38.7422 35.2587 38.7422H11.7978C5.6476 38.7422 0.644165 43.7456 0.644165 49.896L0.644692 62.0907C0.644692 68.5471 3.79329 72.9348 8.25338 74.6506V82.064C6.36813 82.4994 4.95801 84.1908 4.95801 86.2063V87.4199C4.95801 88.8425 6.11536 89.9998 7.53795 89.9998H29.9204C31.343 89.9998 32.5003 88.8425 32.5003 87.4199V86.2063C32.5003 83.8784 30.6198 81.9824 28.2984 81.9552V78.9224C31.3723 78.927 30.4138 78.926 30.6052 78.926C33.0238 78.926 35.0154 76.9707 35.0156 74.5158L35.0159 69.0441C35.0159 68.8215 35.1818 68.6289 35.4021 68.5958L38.1028 68.192C40.3031 67.8632 41.3112 65.266 39.9049 63.5389L36.8036 59.7301ZM3.28141 62.0905L3.28088 49.8959C3.28088 45.1995 7.10149 41.3789 11.7978 41.3789H35.2588C35.5169 41.3789 35.7268 41.5888 35.7268 41.8468C35.7268 45.5581 32.7074 48.5777 28.9959 48.5777H22.8343C20.3364 48.5777 18.2996 50.6101 18.2942 53.1079L18.2859 56.99C18.2836 58.0373 17.4299 58.8894 16.3826 58.8894H16.3824L13.7223 58.889C11.4282 58.889 9.56172 60.7554 9.56172 63.0496C9.56172 64.3333 10.1409 65.5249 11.151 66.3191C12.5206 67.3961 12.3419 68.7331 12.3577 68.801C12.3577 70.0471 10.9075 71.4134 9.41987 72.2735C6.05752 71.1067 3.28141 67.8041 3.28141 62.0905ZM37.7131 65.5843L35.0124 65.9881C33.5114 66.2124 32.3795 67.5262 32.3794 69.0439L32.379 74.5154C32.3788 75.4882 31.5927 76.2891 30.6052 76.2891C30.6043 76.2891 30.6033 76.2891 30.6024 76.2891L28.0965 76.2854C28.095 76.2854 28.0938 76.2854 28.0926 76.2854C26.7507 76.2854 25.6619 77.3712 25.6619 78.7161V81.9538H17.5735C16.8454 81.9538 16.2551 82.5441 16.2551 83.2721C16.2551 84.0002 16.8454 84.5905 17.5735 84.5905H28.2482C29.139 84.5905 29.8638 85.3153 29.8638 86.2061V87.3631H7.59473V86.2061C7.59473 85.3153 8.31948 84.5905 9.21034 84.5905H12.3387C13.0668 84.5905 13.6571 84.0002 13.6571 83.2721C13.6571 82.5441 13.0668 81.9538 12.3387 81.9538H10.8901V74.4678C16.1008 71.3661 15.9143 66.7104 12.7806 64.2463C12.4106 63.9552 12.1983 63.5191 12.1983 63.0494C12.1983 62.2092 12.8819 61.5255 13.7219 61.5255L16.3819 61.5259H16.3824C18.8804 61.5257 20.9172 59.4937 20.9226 56.9957L20.9309 53.1135C20.9332 52.0662 21.787 51.2142 22.8343 51.2142H28.9959C30.1171 51.2142 31.1927 51.0158 32.1899 50.6529C33.2799 52.7926 33.8487 55.2138 33.7675 57.8918C33.741 58.7619 33.7011 60.0769 34.7531 61.3877L37.8604 65.2038C37.9764 65.3461 37.895 65.5571 37.7131 65.5843Z" fill="#969696" stroke="white" stroke-width="0.3"/>
<path d="M82.0407 41.4544C81.3318 40.9843 80.4314 40.9309 79.6717 41.3074C68.4419 34.3089 53.6986 42.4421 53.6575 55.8895C53.6367 56.1755 53.6452 56.4531 53.6532 56.722C53.6773 57.5113 53.6701 57.9838 53.2493 58.5081L50.1002 62.3755C48.6851 64.1131 49.6966 66.7308 51.9153 67.0625L54.6524 67.4718C54.8839 67.5064 55.0588 67.7091 55.0588 67.9434L55.0593 73.4888C55.0597 75.9212 57.0251 77.9406 59.5113 77.9406H59.5184L61.8668 77.9369V81.9546H61.8462C59.5015 81.9546 57.5941 83.8621 57.5941 86.2069V87.4205C57.5941 88.8431 58.7514 90.0004 60.174 90.0004H82.5564C83.9792 90.0004 85.1366 88.8431 85.1366 87.4205V86.2069C85.1366 84.3014 83.8767 82.6847 82.1463 82.1458V74.1342C82.9676 73.8987 84.1019 73.4394 85.2441 72.5476C88.6423 69.894 89.3558 65.558 89.3558 62.3878L89.356 55.0714C89.356 49.5823 86.6216 44.4919 82.0407 41.4544ZM63.7858 76.0151C63.3239 75.5538 62.7104 75.3 62.0579 75.3C62.0565 75.3 62.0552 75.3 62.054 75.3L59.5143 75.3039C59.5134 75.3039 59.5124 75.3039 59.5113 75.3039C58.5141 75.3039 57.696 74.497 57.696 73.4886L57.6955 67.9432C57.6955 66.4137 56.5549 65.0901 55.0423 64.8639L52.3052 64.4546C52.1074 64.4251 52.018 64.1957 52.1447 64.0403L55.2996 60.1656C56.3559 58.8499 56.3155 57.5211 56.2887 56.6419C56.2821 56.4204 56.2757 56.211 56.2891 56.0583C56.2926 56.02 56.2942 55.9813 56.2942 55.9428C56.2942 44.4627 68.8562 37.606 78.3423 43.5854C78.2913 47.9745 75.516 51.9461 71.4012 53.494C69.8659 54.0716 68.8367 55.5707 68.8404 57.2244C68.8458 59.7467 70.9018 61.7981 73.4237 61.7981H73.4246L76.12 61.7977C76.9814 61.7977 77.6822 62.4984 77.6822 63.3597C77.6822 63.8336 77.4714 64.2743 77.1028 64.5726C75.2281 65.9409 74.9495 68.615 76.4672 70.3421C76.4767 70.353 76.4864 70.3637 76.4964 70.3743L79.5098 73.584V81.9549H64.5039V77.746C64.5035 77.0917 64.2486 76.4772 63.7858 76.0151ZM82.4997 87.3639H60.2308V86.2069C60.2308 85.316 60.9556 84.5913 61.8462 84.5913H80.8841C81.7749 84.5913 82.4997 85.316 82.4997 86.2069V87.3639ZM86.7189 62.388C86.7189 69.5377 82.8066 71.2444 81.2977 71.6364L78.4358 68.588C77.9833 68.0587 77.9786 67.2357 78.7151 66.6593C79.7343 65.8577 80.3187 64.655 80.3187 63.3597C80.3187 61.0445 78.4351 59.161 76.1197 59.161L73.4241 59.1613C73.4239 59.1613 73.4237 59.1613 73.4235 59.1613C72.3525 59.1613 71.4792 58.2898 71.4769 57.2188C71.4757 56.6593 71.8183 56.1543 72.3295 55.962C77.3614 54.0691 80.7877 49.2677 80.9735 43.9202C84.5804 46.493 86.7195 50.6266 86.7193 55.0718L86.7189 62.388Z" fill="#969696" stroke="white" stroke-width="0.3"/>
<path d="M36.3046 0H21.6172C14.9716 0 9.56494 5.40668 9.56494 12.0523C9.56494 18.6979 14.9716 24.1045 21.6172 24.1045H22.1929L22.2353 31.3954C22.249 33.7296 25.1914 34.731 26.6315 32.908L33.5867 24.1045H36.3044C42.95 24.1045 48.3567 18.6979 48.3567 12.0523C48.3567 5.40668 42.9502 0 36.3046 0ZM36.3046 21.468H32.9482C31.7837 21.468 32.0377 22.0904 24.8692 30.8856L24.8221 22.7786C24.8178 22.0535 24.2288 21.4678 23.5037 21.4678H21.6172C16.4253 21.4678 12.2017 17.244 12.2017 12.0523C12.2017 6.86057 16.4255 2.63672 21.6172 2.63672H36.3046C41.4963 2.63672 45.7202 6.86057 45.7202 12.0523C45.7202 17.244 41.4963 21.468 36.3046 21.468Z" fill="#969696" stroke="white" stroke-width="0.3"/>
<path d="M54.8325 28.057L61.4102 36.3829C62.8217 38.1699 65.6887 37.1748 65.7016 34.9065L65.7415 28.0572H69.6414C75.9832 28.0572 81.1427 22.8976 81.1427 16.5558C81.1427 10.214 75.9832 5.05443 69.6414 5.05443C52.3895 5.11402 52.6549 4.91557 50.8695 5.24006C50.1532 5.37031 49.6781 6.05656 49.8083 6.77287C49.9386 7.48936 50.6246 7.96449 51.3413 7.83424C52.773 7.57408 52.4482 7.73773 69.6414 7.69115C74.5293 7.69115 78.506 11.6679 78.506 16.5558C78.506 21.4438 74.5293 25.4205 69.6414 25.4205H64.4308C63.7057 25.4205 63.1167 26.006 63.1125 26.7311L63.0689 34.2289L56.5056 25.9214C56.2556 25.605 55.8743 25.4203 55.4711 25.4203H52.9363C50.7943 25.4203 48.7267 24.646 47.1146 23.2399C46.5658 22.7612 45.733 22.8182 45.2545 23.367C44.7759 23.9158 44.8328 24.7484 45.3816 25.2271C47.4739 27.0521 50.1571 28.0572 52.9365 28.0572H54.8325V28.057Z" fill="#969696" stroke="white" stroke-width="0.3"/>
</g>
<defs>
<clipPath id="clip0">
<rect width="90" height="90" fill="white"/>
</clipPath>
</defs>
</svg>
