<svg width="90" height="90" viewBox="0 0 90 90" fill="none" xmlns="http://www.w3.org/2000/svg">
<g clip-path="url(#clip0)">
<path d="M59.7464 23.5914C60.5045 23.5914 61.1519 22.9256 61.1519 22.1674C61.1519 21.3906 60.5045 20.7434 59.7464 20.7434C58.9327 20.7434 58.3224 21.3906 58.3224 22.1674C58.3224 22.9256 58.9327 23.5914 59.7464 23.5914Z" fill="#969696" stroke="white" stroke-width="0.3"/>
<path d="M59.7279 19.4671C60.1717 19.4671 60.8007 19.2266 60.8007 18.6534C60.8007 16.4526 61.0596 13.2901 61.0596 11.0893C61.0596 10.3681 60.4493 9.96118 59.7281 9.96118C58.9699 9.96118 58.3781 10.3681 58.3781 11.0893C58.3781 13.2901 58.637 16.4526 58.637 18.6534C58.6368 19.2266 59.1362 19.4671 59.7279 19.4671Z" fill="#969696" stroke="white" stroke-width="0.3"/>
<path d="M28.3131 5.97205C25.8163 5.97205 24.6697 7.4516 24.6697 8.45021C24.6697 9.17144 25.28 9.50437 25.7794 9.50437C26.778 9.50437 26.3711 8.08037 28.2575 8.08037C29.1823 8.08037 29.922 8.48712 29.922 9.33791C29.922 10.3365 28.8863 10.9099 28.2762 11.4278C27.7399 11.8901 27.0371 12.6484 27.0371 14.2389C27.0371 15.2006 27.296 15.4779 28.0543 15.4779C28.9605 15.4779 29.1456 15.0712 29.1456 14.7198C29.1456 13.7581 29.1641 13.2033 30.1813 12.4081C30.6807 12.0198 32.2527 10.7623 32.2527 9.02378C32.2527 7.28531 30.6803 5.97205 28.3131 5.97205Z" fill="#969696" stroke="white" stroke-width="0.3"/>
<path d="M28.0725 16.7543C27.2958 16.7543 26.667 17.4015 26.667 18.1783C26.667 18.9364 27.2773 19.6023 28.0725 19.6023C28.8678 19.6023 29.4965 18.9364 29.4965 18.1783C29.4965 17.4015 28.8493 16.7543 28.0725 16.7543Z" fill="#969696" stroke="white" stroke-width="0.3"/>
<path d="M36.8036 59.73C36.3863 59.2102 36.3794 58.7467 36.403 57.9718C36.4965 54.8958 35.8509 52.0102 34.5153 49.409C36.8458 47.7034 38.3633 44.9496 38.3633 41.8467C38.3633 40.1348 36.9706 38.7421 35.2587 38.7421H11.7978C5.6476 38.7421 0.644165 43.7455 0.644165 49.8959L0.644692 62.0906C0.644692 68.547 3.79329 72.9347 8.25338 74.6505V82.0639C6.36813 82.4993 4.95801 84.1907 4.95801 86.2062V87.4198C4.95801 88.8424 6.11536 89.9997 7.53795 89.9997H29.9204C31.343 89.9997 32.5003 88.8424 32.5003 87.4198V86.2062C32.5003 83.8783 30.6198 81.9823 28.2984 81.9551V78.9223C31.3723 78.9269 30.4138 78.9258 30.6052 78.9258C33.0238 78.9258 35.0154 76.9706 35.0156 74.5157L35.0159 69.0439C35.0159 68.8214 35.1818 68.6287 35.4021 68.5957L38.1028 68.1919C40.3031 67.863 41.3112 65.2659 39.9049 63.5388L36.8036 59.73ZM3.28141 62.0904L3.28088 49.8957C3.28088 45.1994 7.10149 41.3788 11.7978 41.3788H35.2588C35.5169 41.3788 35.7268 41.5887 35.7268 41.8467C35.7268 45.558 32.7074 48.5776 28.9959 48.5776H22.8343C20.3364 48.5776 18.2996 50.6099 18.2942 53.1078L18.2859 56.9899C18.2836 58.0372 17.4299 58.8892 16.3826 58.8892H16.3824L13.7223 58.8889C11.4282 58.8889 9.56172 60.7553 9.56172 63.0494C9.56172 64.3332 10.1409 65.5248 11.151 66.319C12.5206 67.396 12.3419 68.733 12.3577 68.8008C12.3577 70.0469 10.9075 71.4133 9.41987 72.2734C6.05752 71.1066 3.28141 67.804 3.28141 62.0904ZM37.7131 65.5842L35.0124 65.988C33.5114 66.2123 32.3795 67.5261 32.3794 69.0438L32.379 74.5153C32.3788 75.4881 31.5927 76.2889 30.6052 76.2889C30.6043 76.2889 30.6033 76.2889 30.6024 76.2889L28.0965 76.2852C28.095 76.2852 28.0938 76.2852 28.0926 76.2852C26.7507 76.2852 25.6619 77.371 25.6619 78.716V81.9537H17.5735C16.8454 81.9537 16.2551 82.5439 16.2551 83.272C16.2551 84.0001 16.8454 84.5904 17.5735 84.5904H28.2482C29.139 84.5904 29.8638 85.3151 29.8638 86.206V87.363H7.59473V86.206C7.59473 85.3151 8.31948 84.5904 9.21034 84.5904H12.3387C13.0668 84.5904 13.6571 84.0001 13.6571 83.272C13.6571 82.5439 13.0668 81.9537 12.3387 81.9537H10.8901V74.4677C16.1008 71.366 15.9143 66.7103 12.7806 64.2462C12.4106 63.9551 12.1983 63.519 12.1983 63.0493C12.1983 62.209 12.8819 61.5254 13.7219 61.5254L16.3819 61.5258H16.3824C18.8804 61.5256 20.9172 59.4936 20.9226 56.9955L20.9309 53.1134C20.9332 52.0661 21.787 51.2141 22.8343 51.2141H28.9959C30.1171 51.2141 31.1927 51.0156 32.1899 50.6528C33.2799 52.7924 33.8487 55.2136 33.7675 57.8917C33.741 58.7618 33.7011 60.0768 34.7531 61.3876L37.8604 65.2036C37.9764 65.346 37.895 65.557 37.7131 65.5842Z" fill="#969696" stroke="white" stroke-width="0.3"/>
<path d="M82.0407 41.454C81.3318 40.984 80.4314 40.9305 79.6717 41.3071C68.4419 34.3085 53.6986 42.4417 53.6575 55.8892C53.6367 56.1752 53.6452 56.4527 53.6532 56.7217C53.6773 57.5109 53.6701 57.9834 53.2493 58.5078L50.1002 62.3751C48.6851 64.1127 49.6966 66.7305 51.9153 67.0622L54.6524 67.4714C54.8839 67.506 55.0588 67.7087 55.0588 67.943L55.0593 73.4884C55.0597 75.9208 57.0251 77.9402 59.5113 77.9402H59.5184L61.8668 77.9365V81.9542H61.8462C59.5015 81.9542 57.5941 83.8618 57.5941 86.2065V87.4201C57.5941 88.8427 58.7514 90 60.174 90H82.5564C83.9792 90 85.1366 88.8427 85.1366 87.4201V86.2065C85.1366 84.301 83.8767 82.6844 82.1463 82.1454V74.1339C82.9676 73.8983 84.1019 73.439 85.2441 72.5473C88.6423 69.8937 89.3558 65.5577 89.3558 62.3874L89.356 55.0711C89.356 49.582 86.6216 44.4915 82.0407 41.454ZM63.7858 76.0147C63.3239 75.5535 62.7104 75.2996 62.0579 75.2996C62.0565 75.2996 62.0552 75.2996 62.054 75.2996L59.5143 75.3035C59.5134 75.3035 59.5124 75.3035 59.5113 75.3035C58.5141 75.3035 57.696 74.4967 57.696 73.4882L57.6955 67.9428C57.6955 66.4134 56.5549 65.0897 55.0423 64.8635L52.3052 64.4543C52.1074 64.4247 52.018 64.1954 52.1447 64.04L55.2996 60.1652C56.3559 58.8495 56.3155 57.5208 56.2887 56.6415C56.2821 56.42 56.2757 56.2107 56.2891 56.0579C56.2926 56.0196 56.2942 55.9809 56.2942 55.9424C56.2942 44.4623 68.8562 37.6056 78.3423 43.585C78.2913 47.9741 75.516 51.9457 71.4012 53.4936C69.8659 54.0712 68.8367 55.5703 68.8404 57.224C68.8458 59.7463 70.9018 61.7977 73.4237 61.7977H73.4246L76.12 61.7973C76.9814 61.7973 77.6822 62.498 77.6822 63.3593C77.6822 63.8332 77.4714 64.2739 77.1028 64.5722C75.2281 65.9405 74.9495 68.6147 76.4672 70.3417C76.4767 70.3526 76.4864 70.3633 76.4964 70.3739L79.5098 73.5837V81.9545H64.5039V77.7456C64.5035 77.0914 64.2486 76.4768 63.7858 76.0147ZM82.4997 87.3635H60.2308V86.2065C60.2308 85.3157 60.9556 84.5909 61.8462 84.5909H80.8841C81.7749 84.5909 82.4997 85.3157 82.4997 86.2065V87.3635ZM86.7189 62.3876C86.7189 69.5373 82.8066 71.244 81.2977 71.636L78.4358 68.5876C77.9833 68.0583 77.9786 67.2353 78.7151 66.6589C79.7343 65.8574 80.3187 64.6547 80.3187 63.3593C80.3187 61.0441 78.4351 59.1606 76.1197 59.1606L73.4241 59.161C73.4239 59.161 73.4237 59.161 73.4235 59.161C72.3525 59.161 71.4792 58.2895 71.4769 57.2184C71.4757 56.6589 71.8183 56.1539 72.3295 55.9616C77.3614 54.0688 80.7877 49.2673 80.9735 43.9199C84.5804 46.4926 86.7195 50.6263 86.7193 55.0714L86.7189 62.3876Z" fill="#969696" stroke="white" stroke-width="0.3"/>
<path d="M36.3046 0H21.6172C14.9716 0 9.56494 5.40668 9.56494 12.0523C9.56494 18.6979 14.9716 24.1045 21.6172 24.1045H22.1929L22.2353 31.3954C22.249 33.7296 25.1914 34.731 26.6315 32.908L33.5867 24.1045H36.3044C42.95 24.1045 48.3567 18.6979 48.3567 12.0523C48.3567 5.40668 42.9502 0 36.3046 0ZM36.3046 21.468H32.9482C31.7837 21.468 32.0377 22.0904 24.8692 30.8856L24.8221 22.7786C24.8178 22.0535 24.2288 21.4678 23.5037 21.4678H21.6172C16.4253 21.4678 12.2017 17.244 12.2017 12.0523C12.2017 6.86057 16.4255 2.63672 21.6172 2.63672H36.3046C41.4963 2.63672 45.7202 6.86057 45.7202 12.0523C45.7202 17.244 41.4963 21.468 36.3046 21.468Z" fill="#969696" stroke="white" stroke-width="0.3"/>
<path d="M54.8325 28.0566L61.4102 36.3825C62.8217 38.1695 65.6887 37.1744 65.7016 34.9061L65.7415 28.0568H69.6414C75.9832 28.0568 81.1427 22.8973 81.1427 16.5554C81.1427 10.2136 75.9832 5.05407 69.6414 5.05407C52.3895 5.11366 52.6549 4.9152 50.8695 5.23969C50.1532 5.36995 49.6781 6.0562 49.8083 6.77251C49.9386 7.48899 50.6246 7.96413 51.3413 7.83387C52.773 7.57372 52.4482 7.73737 69.6414 7.69079C74.5293 7.69079 78.506 11.6675 78.506 16.5554C78.506 21.4434 74.5293 25.4201 69.6414 25.4201H64.4308C63.7057 25.4201 63.1167 26.0056 63.1125 26.7307L63.0689 34.2285L56.5056 25.9211C56.2556 25.6047 55.8743 25.4199 55.4711 25.4199H52.9363C50.7943 25.4199 48.7267 24.6456 47.1146 23.2395C46.5658 22.7609 45.733 22.8178 45.2545 23.3666C44.7759 23.9154 44.8328 24.7481 45.3816 25.2267C47.4739 27.0517 50.1571 28.0568 52.9365 28.0568H54.8325V28.0566Z" fill="#969696" stroke="white" stroke-width="0.3"/>
</g>
<defs>
<clipPath id="clip0">
<rect width="90" height="90" fill="white"/>
</clipPath>
</defs>
</svg>
