<svg width="90" height="90" viewBox="0 0 90 90" fill="none" xmlns="http://www.w3.org/2000/svg">
<g clip-path="url(#clip0)">
<path d="M79.7278 42.3519H32.6898C31.9617 42.3519 31.3716 42.9422 31.3716 43.6701C31.3716 44.398 31.9619 44.9883 32.6898 44.9883H79.7278C80.4559 44.9883 81.046 44.398 81.046 43.6701C81.046 42.9422 80.4559 42.3519 79.7278 42.3519Z" fill="#969696"/>
<path d="M79.7278 49.8563H32.6898C31.9617 49.8563 31.3716 50.4466 31.3716 51.1745C31.3716 51.9026 31.9619 52.4927 32.6898 52.4927H79.7278C80.4559 52.4927 81.046 51.9024 81.046 51.1745C81.046 50.4466 80.4559 49.8563 79.7278 49.8563Z" fill="#969696"/>
<path d="M79.7277 59.9054H50.793C50.0649 59.9054 49.4749 60.4957 49.4749 61.2236C49.4749 61.9517 50.0649 62.5418 50.793 62.5418H79.7277C80.4558 62.5418 81.0459 61.9515 81.0459 61.2236C81.0459 60.4957 80.4558 59.9054 79.7277 59.9054Z" fill="#969696"/>
<path d="M79.7277 67.4098H50.793C50.0649 67.4098 49.4749 68.0001 49.4749 68.728C49.4749 69.4561 50.0649 70.0462 50.793 70.0462H79.7277C80.4558 70.0462 81.0459 69.4559 81.0459 68.728C81.0459 68.0001 80.4558 67.4098 79.7277 67.4098Z" fill="#969696"/>
<path d="M32.7821 17.927C32.054 17.927 31.4639 18.5173 31.4639 19.2452V28.1959C31.4639 30.3359 33.2048 32.077 35.3449 32.077H48.4203C50.5604 32.077 52.3013 30.3361 52.3013 28.1959V11.9828C52.3013 9.8428 50.5604 8.10168 48.4203 8.10168H35.3449C33.205 8.10168 31.4639 9.84262 31.4639 11.9828V13.0824C31.4639 13.8105 32.0541 14.4006 32.7821 14.4006C33.51 14.4006 34.1002 13.8104 34.1002 13.0824V11.9828C34.1002 11.2965 34.6585 10.7382 35.3448 10.7382H48.4201C49.1063 10.7382 49.6646 11.2965 49.6646 11.9828V24.5219C48.7544 23.5906 47.6792 22.8274 46.4856 22.2723C46.9906 21.4509 47.2826 20.4851 47.2826 19.4521C47.2826 16.4743 44.86 14.0517 41.8823 14.0517C38.9045 14.0517 36.4819 16.4743 36.4819 19.4521C36.4819 20.4849 36.7739 21.4509 37.2789 22.2723C36.0855 22.8274 35.0103 23.5908 34.1001 24.5219V19.2452C34.1002 18.5171 33.5101 17.927 32.7821 17.927ZM41.8824 16.6881C43.4065 16.6881 44.6464 17.928 44.6464 19.4521C44.6464 20.9761 43.4065 22.216 41.8824 22.216C40.3584 22.216 39.1186 20.9761 39.1186 19.4521C39.1186 17.928 40.3584 16.6881 41.8824 16.6881ZM39.4306 24.2613C40.167 24.6381 40.9998 24.8524 41.8824 24.8524C42.7649 24.8524 43.5979 24.6383 44.3342 24.2613C46.6387 24.9753 48.5059 26.6577 49.4593 28.8789C49.2366 29.2167 48.8541 29.4403 48.4201 29.4403H35.3448C34.9108 29.4403 34.5284 29.2167 34.3055 28.8789C35.2592 26.6577 37.1263 24.9755 39.4306 24.2613Z" fill="#969696"/>
<path d="M88.6819 66.9043C89.41 66.9043 90.0001 66.314 90.0001 65.5861V19.099C90.0001 17.4331 89.3514 15.867 88.1735 14.6893L75.3292 1.84498C74.1513 0.667065 72.5852 0.0184326 70.9194 0.0184326H28.6536C25.2148 0.0184326 22.4173 2.81599 22.4173 6.25462V53.0223C19.4214 53.3661 16.6975 54.8757 14.8024 57.2823L12.8609 59.748C12.3246 60.429 11.6155 60.9502 10.8201 61.2677C10.4866 58.5902 8.19833 56.5108 5.43188 56.5108C2.43692 56.5108 0.000244141 58.9475 0.000244141 61.9425V84.5493C0.000244141 87.5443 2.43692 89.981 5.43188 89.981C7.89194 89.981 9.97407 88.3366 10.6398 86.0894C11.2487 86.1226 12.1578 85.954 13.3735 86.4383C15.6151 87.1567 20.1019 89.981 27.4509 89.981H35.0967C37.3207 89.981 39.1302 88.1717 39.1302 85.9475V85.2138H83.7639C87.2027 85.2138 90.0001 82.4162 90.0001 78.9774V71.8092C90.0001 71.0812 89.41 70.4911 88.6819 70.4911C87.9538 70.4911 87.3637 71.0813 87.3637 71.8092V78.9774C87.3637 80.9624 85.7488 82.5773 83.7639 82.5773H38.7843C38.7524 82.5059 38.7187 82.4356 38.683 82.3665C39.981 81.6954 40.8704 80.3401 40.8704 78.7809V77.0447C40.8704 76.3177 40.6771 75.6348 40.339 75.0452C41.4873 74.3335 42.2535 73.0617 42.2535 71.6145V69.8783C42.2535 69.0632 42.0104 68.3036 41.5931 67.6685C42.5688 66.9317 43.2009 65.7622 43.2009 64.4479V62.7117C43.2009 60.4877 41.3916 58.6782 39.1678 58.6782L26.1433 58.6754C25.5425 58.6752 25.0538 58.1864 25.0538 57.5857V54.2679C25.0538 54.2666 25.054 54.2656 25.054 54.2645V6.25462C25.054 4.2697 26.6689 2.6548 28.6538 2.6548H70.9197C71.164 2.6548 71.4045 2.67941 71.6385 2.72669V14.0129C71.6385 16.4209 73.5976 18.3802 76.0058 18.3802H87.2918C87.3391 18.6143 87.3637 18.8548 87.3637 19.099V65.5861C87.3635 66.3142 87.9536 66.9043 88.6819 66.9043ZM5.43171 87.3444C3.89046 87.3444 2.63644 86.0906 2.63644 84.5493V61.9423C2.63644 60.4011 3.89046 59.1472 5.43171 59.1472C6.97296 59.1472 8.22681 60.4011 8.22681 61.9423V84.5492C8.22698 86.0906 6.97313 87.3444 5.43171 87.3444ZM26.1424 61.3123L39.1673 61.3151C39.9376 61.3151 40.5642 61.9418 40.5642 62.712V64.4482C40.5642 65.2185 39.9376 65.8452 39.1673 65.8452H38.22L26.8387 65.8439C26.8387 65.8439 26.8387 65.8439 26.8385 65.8439C26.1106 65.8439 25.5203 66.434 25.5203 67.1619C25.5203 67.89 26.1104 68.4803 26.8383 68.4803L38.2197 68.4815H38.2198C38.9901 68.4815 39.6168 69.1082 39.6168 69.8785V71.6147C39.6168 72.3849 38.9901 73.0116 38.2198 73.0116H36.837L25.4342 73.0105C24.7063 73.0105 24.116 73.6006 24.116 74.3287C24.116 75.0568 24.7061 75.6469 25.4342 75.6471L36.837 75.6481C37.6072 75.6481 38.2339 76.2748 38.2339 77.0451V78.7813C38.2339 79.5515 37.6072 80.1782 36.837 80.1782H35.0971L23.6632 80.1752C23.663 80.1752 23.663 80.1752 23.6629 80.1752C22.9349 80.1752 22.3449 80.7653 22.3447 81.493C22.3445 82.2211 22.9346 82.8114 23.6625 82.8116L35.0964 82.8146H35.0967C35.867 82.8146 36.4937 83.4412 36.4937 84.2115V85.9477C36.4937 86.718 35.867 87.3446 35.0967 87.3446H27.4509C20.7452 87.3446 16.8276 84.7905 14.3491 83.9891C12.6261 83.3027 11.2898 83.4827 10.8633 83.453V64.0199C12.4616 63.6113 13.903 62.686 14.9322 61.3791L16.8737 58.9134C18.2646 57.147 20.2367 56.0095 22.4171 55.6815V57.5861C22.4171 59.6401 24.0882 61.3118 26.1424 61.3123ZM74.2747 14.0129V4.51914L85.4992 15.7436H76.0054C75.0513 15.7436 74.2747 14.9672 74.2747 14.0129Z" fill="#969696"/>
</g>
<defs>
<clipPath id="clip0">
<rect width="90" height="90" fill="white"/>
</clipPath>
</defs>
</svg>
