<svg width="90" height="90" viewBox="0 0 90 90" fill="none" xmlns="http://www.w3.org/2000/svg">
<g clip-path="url(#clip0)">
<path d="M79.7278 42.3525H32.6898C31.9617 42.3525 31.3716 42.9428 31.3716 43.6707C31.3716 44.3986 31.9619 44.9889 32.6898 44.9889H79.7278C80.4559 44.9889 81.046 44.3986 81.046 43.6707C81.046 42.9428 80.4559 42.3525 79.7278 42.3525Z" fill="#969696"/>
<path d="M79.7278 49.8564H32.6898C31.9617 49.8564 31.3716 50.4467 31.3716 51.1746C31.3716 51.9027 31.9619 52.4928 32.6898 52.4928H79.7278C80.4559 52.4928 81.046 51.9025 81.046 51.1746C81.046 50.4467 80.4559 49.8564 79.7278 49.8564Z" fill="#969696"/>
<path d="M79.7277 59.9053H50.793C50.0649 59.9053 49.4749 60.4955 49.4749 61.2235C49.4749 61.9515 50.0649 62.5416 50.793 62.5416H79.7277C80.4558 62.5416 81.0459 61.9514 81.0459 61.2235C81.0459 60.4955 80.4558 59.9053 79.7277 59.9053Z" fill="#969696"/>
<path d="M79.7277 67.4102H50.793C50.0649 67.4102 49.4749 68.0004 49.4749 68.7283C49.4749 69.4564 50.0649 70.0465 50.793 70.0465H79.7277C80.4558 70.0465 81.0459 69.4563 81.0459 68.7283C81.0459 68.0004 80.4558 67.4102 79.7277 67.4102Z" fill="#969696"/>
<path d="M32.7821 17.9269C32.054 17.9269 31.4639 18.5171 31.4639 19.245V28.1958C31.4639 30.3358 33.2048 32.0769 35.3449 32.0769H48.4203C50.5604 32.0769 52.3013 30.336 52.3013 28.1958V11.9826C52.3013 9.84268 50.5604 8.10156 48.4203 8.10156H35.3449C33.205 8.10156 31.4639 9.8425 31.4639 11.9826V13.0823C31.4639 13.8104 32.0541 14.4005 32.7821 14.4005C33.51 14.4005 34.1002 13.8102 34.1002 13.0823V11.9826C34.1002 11.2964 34.6585 10.7381 35.3448 10.7381H48.4201C49.1063 10.7381 49.6646 11.2964 49.6646 11.9826V24.5218C48.7544 23.5905 47.6792 22.8273 46.4856 22.2722C46.9906 21.4507 47.2826 20.485 47.2826 19.4519C47.2826 16.4742 44.86 14.0516 41.8823 14.0516C38.9045 14.0516 36.4819 16.4742 36.4819 19.4519C36.4819 20.4848 36.7739 21.4507 37.2789 22.2722C36.0855 22.8273 35.0103 23.5907 34.1001 24.5218V19.245C34.1002 18.517 33.5101 17.9269 32.7821 17.9269ZM41.8824 16.6879C43.4065 16.6879 44.6464 17.9279 44.6464 19.4519C44.6464 20.976 43.4065 22.2159 41.8824 22.2159C40.3584 22.2159 39.1186 20.976 39.1186 19.4519C39.1186 17.9279 40.3584 16.6879 41.8824 16.6879ZM39.4306 24.2611C40.167 24.638 40.9998 24.8523 41.8824 24.8523C42.7649 24.8523 43.5979 24.6382 44.3342 24.2611C46.6387 24.9752 48.5059 26.6576 49.4593 28.8787C49.2366 29.2166 48.8541 29.4402 48.4201 29.4402H35.3448C34.9108 29.4402 34.5284 29.2166 34.3055 28.8787C35.2592 26.6576 37.1263 24.9753 39.4306 24.2611Z" fill="#969696"/>
<path d="M88.6819 66.9044C89.41 66.9044 90.0001 66.3141 90.0001 65.5862V19.0991C90.0001 17.4332 89.3514 15.8672 88.1735 14.6894L75.3292 1.8451C74.1513 0.667187 72.5852 0.0185547 70.9194 0.0185547H28.6536C25.2148 0.0185547 22.4173 2.81611 22.4173 6.25475V53.0224C19.4214 53.3662 16.6975 54.8758 14.8024 57.2825L12.8609 59.7481C12.3246 60.4291 11.6155 60.9503 10.8201 61.2678C10.4866 58.5903 8.19833 56.511 5.43188 56.511C2.43692 56.511 0.000244141 58.9476 0.000244141 61.9426V84.5495C0.000244141 87.5444 2.43692 89.9811 5.43188 89.9811C7.89194 89.9811 9.97407 88.3367 10.6398 86.0895C11.2487 86.1227 12.1578 85.9541 13.3735 86.4384C15.6151 87.1568 20.1019 89.9811 27.4509 89.9811H35.0967C37.3207 89.9811 39.1302 88.1718 39.1302 85.9476V85.2139H83.7639C87.2027 85.2139 90.0001 82.4164 90.0001 78.9776V71.8094C90.0001 71.0813 89.41 70.4912 88.6819 70.4912C87.9538 70.4912 87.3637 71.0815 87.3637 71.8094V78.9776C87.3637 80.9625 85.7488 82.5774 83.7639 82.5774H38.7843C38.7524 82.506 38.7187 82.4357 38.683 82.3666C39.981 81.6955 40.8704 80.3402 40.8704 78.781V77.0448C40.8704 76.3178 40.6771 75.6349 40.339 75.0453C41.4873 74.3336 42.2535 73.0618 42.2535 71.6146V69.8784C42.2535 69.0633 42.0104 68.3038 41.5931 67.6687C42.5688 66.9318 43.2009 65.7623 43.2009 64.448V62.7118C43.2009 60.4878 41.3916 58.6783 39.1678 58.6783L26.1433 58.6755C25.5425 58.6754 25.0538 58.1865 25.0538 57.5859V54.268C25.0538 54.2668 25.054 54.2657 25.054 54.2646V6.25475C25.054 4.26982 26.6689 2.65492 28.6538 2.65492H70.9197C71.164 2.65492 71.4045 2.67953 71.6385 2.72682V14.013C71.6385 16.4211 73.5976 18.3803 76.0058 18.3803H87.2918C87.3391 18.6145 87.3637 18.8549 87.3637 19.0991V65.5862C87.3635 66.3143 87.9536 66.9044 88.6819 66.9044ZM5.43171 87.3446C3.89046 87.3446 2.63644 86.0907 2.63644 84.5495V61.9424C2.63644 60.4012 3.89046 59.1473 5.43171 59.1473C6.97296 59.1473 8.22681 60.4012 8.22681 61.9424V84.5493C8.22698 86.0907 6.97313 87.3446 5.43171 87.3446ZM26.1424 61.3124L39.1673 61.3152C39.9376 61.3152 40.5642 61.9419 40.5642 62.7122V64.4484C40.5642 65.2186 39.9376 65.8453 39.1673 65.8453H38.22L26.8387 65.8441C26.8387 65.8441 26.8387 65.8441 26.8385 65.8441C26.1106 65.8441 25.5203 66.4342 25.5203 67.1621C25.5203 67.8902 26.1104 68.4804 26.8383 68.4804L38.2197 68.4817H38.2198C38.9901 68.4817 39.6168 69.1083 39.6168 69.8786V71.6148C39.6168 72.3851 38.9901 73.0117 38.2198 73.0117H36.837L25.4342 73.0107C24.7063 73.0107 24.116 73.6008 24.116 74.3288C24.116 75.0569 24.7061 75.647 25.4342 75.6472L36.837 75.6483C37.6072 75.6483 38.2339 76.2749 38.2339 77.0452V78.7814C38.2339 79.5517 37.6072 80.1783 36.837 80.1783H35.0971L23.6632 80.1753C23.663 80.1753 23.663 80.1753 23.6629 80.1753C22.9349 80.1753 22.3449 80.7654 22.3447 81.4932C22.3445 82.2213 22.9346 82.8115 23.6625 82.8117L35.0964 82.8147H35.0967C35.867 82.8147 36.4937 83.4413 36.4937 84.2116V85.9478C36.4937 86.7181 35.867 87.3447 35.0967 87.3447H27.4509C20.7452 87.3447 16.8276 84.7906 14.3491 83.9893C12.6261 83.3028 11.2898 83.4828 10.8633 83.4531V64.02C12.4616 63.6115 13.903 62.6862 14.9322 61.3792L16.8737 58.9135C18.2646 57.1471 20.2367 56.0096 22.4171 55.6816V57.5862C22.4171 59.6402 24.0882 61.3119 26.1424 61.3124ZM74.2747 14.013V4.51926L85.4992 15.7438H76.0054C75.0513 15.7438 74.2747 14.9673 74.2747 14.013Z" fill="#969696"/>
</g>
<defs>
<clipPath id="clip0">
<rect width="90" height="90" fill="white"/>
</clipPath>
</defs>
</svg>
