<svg width="706" height="538" viewBox="0 0 706 538" fill="none" xmlns="http://www.w3.org/2000/svg">
<g filter="url(#filter0_dddd)">
<path d="M495.059 408.282C433.366 408.282 377.616 365.537 363.756 302.946C350.925 245.001 387.687 187.435 445.706 174.62C456.781 172.174 468.23 171.93 479.399 173.903C490.569 175.876 501.24 180.027 510.803 186.118C520.366 192.21 528.634 200.123 535.135 209.406C541.636 218.689 546.243 229.16 548.692 240.221C552.637 258.132 549.307 276.875 539.433 292.337C529.558 307.8 513.946 318.719 496.021 322.699C483.636 325.384 470.706 323.783 459.353 318.16C448 312.536 438.899 303.224 433.544 291.753C433.499 291.656 433.473 291.55 433.468 291.443C433.464 291.335 433.481 291.228 433.518 291.127C433.555 291.026 433.611 290.934 433.685 290.855C433.758 290.776 433.845 290.712 433.943 290.667C434.041 290.622 434.147 290.597 434.254 290.593C434.362 290.589 434.469 290.606 434.57 290.644C434.671 290.681 434.763 290.738 434.842 290.812C434.921 290.885 434.984 290.973 435.029 291.071C440.225 302.205 449.059 311.244 460.078 316.701C471.098 322.159 483.648 323.712 495.668 321.105C513.17 317.219 528.414 306.557 538.056 291.46C547.697 276.362 550.949 258.062 547.097 240.573C542.244 218.657 528.872 199.564 509.924 187.494C490.975 175.425 468.002 171.367 446.058 176.214C418.592 182.313 394.67 199.044 379.539 222.737C364.409 246.429 359.307 275.148 365.351 302.593C381.171 374.035 452.236 419.303 523.771 403.504C547.405 398.3 569.614 388 588.844 373.325C608.074 358.649 623.86 339.953 635.096 318.546C635.146 318.451 635.214 318.366 635.296 318.298C635.379 318.229 635.474 318.177 635.577 318.145C635.679 318.113 635.787 318.101 635.894 318.111C636.001 318.121 636.105 318.151 636.201 318.201C636.296 318.251 636.38 318.32 636.449 318.402C636.518 318.485 636.569 318.58 636.601 318.683C636.633 318.785 636.644 318.893 636.634 319C636.624 319.107 636.593 319.211 636.543 319.306C625.196 340.923 609.255 359.803 589.837 374.622C570.418 389.442 547.99 399.843 524.124 405.098C514.581 407.21 504.835 408.278 495.059 408.282Z" fill="#E6E6E6"/>
<path d="M654.049 224.571C653.847 224.571 653.653 224.496 653.503 224.362C653.354 224.227 653.259 224.042 653.237 223.842C652.572 217.673 651.567 211.546 650.226 205.488C628.886 109.116 541.796 40.5568 443.146 42.5607C442.929 42.565 442.72 42.4832 442.563 42.3332C442.407 42.1832 442.317 41.9774 442.313 41.761C442.308 41.5446 442.39 41.3353 442.54 41.1792C442.691 41.0231 442.897 40.933 443.113 40.9286C491.534 40.0306 538.774 55.8931 576.817 85.8241C614.859 115.755 641.36 157.91 651.822 205.136C653.176 211.253 654.191 217.44 654.862 223.668C654.874 223.775 654.864 223.882 654.834 223.985C654.804 224.088 654.753 224.184 654.686 224.267C654.619 224.351 654.535 224.42 654.441 224.471C654.347 224.523 654.244 224.555 654.137 224.566C654.108 224.569 654.078 224.571 654.049 224.571Z" fill="#E6E6E6"/>
<path d="M203.413 358.405C203.227 358.405 203.047 358.341 202.902 358.225C202.757 358.109 202.656 357.947 202.616 357.765C192.332 311.482 194.847 263.276 209.891 218.311C224.936 173.345 251.944 133.313 288.022 102.502C288.104 102.432 288.198 102.378 288.3 102.344C288.403 102.31 288.511 102.297 288.618 102.305C288.725 102.313 288.83 102.342 288.926 102.39C289.023 102.439 289.108 102.506 289.178 102.587C289.248 102.669 289.302 102.764 289.335 102.866C289.368 102.969 289.381 103.076 289.372 103.184C289.364 103.291 289.334 103.395 289.285 103.491C289.236 103.587 289.168 103.672 289.086 103.741C253.232 134.36 226.393 174.142 211.442 218.828C196.491 263.513 193.992 311.418 204.212 357.413C204.238 357.532 204.237 357.656 204.21 357.775C204.182 357.894 204.128 358.005 204.051 358.101C203.974 358.196 203.877 358.273 203.767 358.325C203.656 358.378 203.535 358.405 203.413 358.405Z" fill="#E6E6E6"/>
<path d="M429.239 131.386H301.771C298.088 131.382 294.557 129.919 291.953 127.318C289.349 124.717 287.884 121.191 287.88 117.513V13.873C287.884 10.1949 289.349 6.66869 291.953 4.06789C294.557 1.46708 298.088 0.00414059 301.771 0H429.239C432.922 0.00414059 436.453 1.46708 439.057 4.06789C441.661 6.66869 443.126 10.1949 443.13 13.873V117.513C443.126 121.191 441.661 124.717 439.057 127.318C436.453 129.919 432.922 131.382 429.239 131.386ZM301.771 1.63212C298.521 1.63579 295.406 2.92664 293.108 5.22146C290.81 7.51628 289.518 10.6277 289.514 13.873V117.513C289.518 120.758 290.81 123.87 293.108 126.164C295.406 128.459 298.521 129.75 301.771 129.754H429.239C432.489 129.75 435.604 128.459 437.902 126.164C440.199 123.87 441.492 120.758 441.496 117.513V13.873C441.492 10.6277 440.199 7.51628 437.902 5.22146C435.604 2.92664 432.489 1.63579 429.239 1.63212H301.771Z" fill="#3F3D56"/>
<path d="M414.75 31.123H350.419C349.853 31.1345 349.305 30.9311 348.884 30.554C348.463 30.177 348.201 29.6543 348.151 29.0918C348.135 28.8006 348.179 28.5092 348.28 28.2355C348.381 27.9618 348.536 27.7115 348.737 27.4998C348.938 27.2881 349.18 27.1196 349.448 27.0044C349.716 26.8891 350.005 26.8297 350.297 26.8297H415.783C417.94 28.723 416.625 31.123 414.75 31.123L414.75 31.123Z" fill="#CCCCCC"/>
<path d="M414.75 42.3928H350.419C349.853 42.4042 349.305 42.2009 348.884 41.8238C348.463 41.4468 348.201 40.9241 348.151 40.3616C348.135 40.0704 348.179 39.779 348.28 39.5053C348.381 39.2316 348.536 38.9813 348.737 38.7696C348.938 38.5579 349.18 38.3893 349.448 38.2741C349.716 38.1589 350.005 38.0995 350.297 38.0995H415.783C417.94 39.9928 416.625 42.3928 414.75 42.3928H414.75Z" fill="#CCCCCC"/>
<path d="M336.512 48.8096H316.878C316.237 48.8089 315.623 48.5543 315.169 48.1016C314.716 47.6489 314.461 47.0351 314.46 46.3948V23.2554C314.461 22.6152 314.716 22.0014 315.169 21.5487C315.623 21.096 316.237 20.8413 316.878 20.8407H336.512C337.153 20.8416 337.767 21.0963 338.22 21.5489C338.674 22.0016 338.929 22.6153 338.929 23.2554V46.3948C338.929 47.0351 338.674 47.6489 338.221 48.1016C337.767 48.5543 337.153 48.8089 336.512 48.8096Z" fill="#458FF6"/>
<path d="M414.563 65.4676H316.381C315.816 65.4791 315.267 65.2757 314.846 64.8987C314.425 64.5216 314.163 63.999 314.113 63.4364C314.098 63.1452 314.142 62.8539 314.242 62.5801C314.343 62.3064 314.499 62.0561 314.7 61.8444C314.9 61.6328 315.142 61.4642 315.411 61.349C315.679 61.2337 315.968 61.1743 316.26 61.1743H415.596C417.754 63.0676 416.439 65.4676 414.563 65.4676V65.4676Z" fill="#CCCCCC"/>
<path d="M414.563 76.7408H316.381C315.816 76.7523 315.267 76.5489 314.846 76.1719C314.425 75.7948 314.163 75.2722 314.113 74.7096C314.098 74.4184 314.142 74.127 314.242 73.8533C314.343 73.5796 314.499 73.3293 314.7 73.1176C314.9 72.906 315.142 72.7374 315.411 72.6222C315.679 72.5069 315.968 72.4475 316.26 72.4475H415.596C417.754 74.3408 416.439 76.7408 414.563 76.7408V76.7408Z" fill="#CCCCCC"/>
<path d="M414.563 88.0064H316.381C315.816 88.0179 315.267 87.8145 314.846 87.4375C314.425 87.0604 314.163 86.5378 314.113 85.9752C314.098 85.684 314.142 85.3927 314.242 85.119C314.343 84.8453 314.499 84.5949 314.7 84.3832C314.9 84.1716 315.142 84.003 315.411 83.8878C315.679 83.7726 315.968 83.7131 316.26 83.7131H415.596C417.754 85.6064 416.439 88.0064 414.563 88.0064V88.0064Z" fill="#CCCCCC"/>
<path d="M414.563 99.2787H316.381C315.816 99.2902 315.267 99.0868 314.846 98.7098C314.425 98.3327 314.163 97.8101 314.113 97.2476C314.098 96.9563 314.142 96.665 314.242 96.3913C314.343 96.1176 314.499 95.8673 314.7 95.6556C314.9 95.4439 315.142 95.2753 315.411 95.1601C315.679 95.0449 315.968 94.9855 316.26 94.9855H415.596C417.754 96.8787 416.439 99.2788 414.563 99.2788V99.2787Z" fill="#CCCCCC"/>
<path d="M414.563 110.545H316.381C315.816 110.557 315.267 110.353 314.846 109.976C314.425 109.599 314.163 109.077 314.113 108.514C314.098 108.223 314.142 107.931 314.242 107.658C314.343 107.384 314.499 107.134 314.7 106.922C314.9 106.71 315.142 106.542 315.411 106.427C315.679 106.311 315.968 106.252 316.26 106.252H415.596C417.754 108.145 416.439 110.545 414.563 110.545V110.545Z" fill="#CCCCCC"/>
<path d="M691.121 319.742H598.788C595.904 319.739 593.138 318.593 591.099 316.556C589.059 314.519 587.912 311.757 587.909 308.877V233.804C587.912 230.923 589.059 228.162 591.099 226.125C593.138 224.088 595.904 222.942 598.788 222.939H691.121C694.005 222.942 696.77 224.088 698.81 226.125C700.849 228.162 701.997 230.923 702 233.804V308.877C701.997 311.757 700.849 314.519 698.81 316.556C696.77 318.593 694.005 319.739 691.121 319.742ZM598.788 224.571C596.337 224.574 593.987 225.547 592.254 227.278C590.521 229.009 589.546 231.356 589.543 233.804V308.877C589.546 311.325 590.521 313.672 592.254 315.402C593.987 317.133 596.337 318.107 598.788 318.11H691.121C693.572 318.107 695.922 317.133 697.655 315.402C699.388 313.672 700.363 311.325 700.366 308.877V233.804C700.363 231.356 699.388 229.009 697.655 227.278C695.922 225.547 693.572 224.574 691.121 224.571L598.788 224.571Z" fill="#3F3D56"/>
<path d="M680.626 246.299H634.027C633.617 246.308 633.22 246.16 632.915 245.887C632.61 245.614 632.42 245.236 632.384 244.828C632.373 244.617 632.404 244.406 632.477 244.208C632.55 244.01 632.663 243.828 632.809 243.675C632.954 243.522 633.129 243.399 633.324 243.316C633.518 243.233 633.727 243.189 633.939 243.189H681.374C682.937 244.561 681.984 246.299 680.626 246.299L680.626 246.299Z" fill="#CCCCCC"/>
<path d="M680.626 254.463H634.027C633.617 254.471 633.22 254.324 632.915 254.051C632.61 253.777 632.42 253.399 632.384 252.991C632.373 252.78 632.405 252.569 632.478 252.371C632.551 252.173 632.663 251.992 632.809 251.838C632.954 251.685 633.129 251.563 633.324 251.479C633.518 251.396 633.727 251.353 633.939 251.353H681.374C682.937 252.724 681.984 254.463 680.626 254.463L680.626 254.463Z" fill="#CCCCCC"/>
<path d="M623.953 259.111H609.731C609.267 259.11 608.822 258.926 608.493 258.598C608.165 258.27 607.98 257.825 607.98 257.361V240.6C607.98 240.136 608.165 239.692 608.493 239.364C608.822 239.036 609.267 238.852 609.731 238.851H623.953C624.417 238.852 624.862 239.036 625.191 239.364C625.519 239.692 625.704 240.136 625.704 240.6V257.361C625.704 257.825 625.519 258.27 625.191 258.598C624.863 258.926 624.417 259.11 623.953 259.111Z" fill="#458FF6"/>
<path d="M680.491 271.177H609.372C608.962 271.186 608.565 271.038 608.26 270.765C607.955 270.492 607.765 270.113 607.729 269.706C607.717 269.495 607.749 269.284 607.822 269.086C607.895 268.887 608.008 268.706 608.153 268.553C608.299 268.399 608.474 268.277 608.668 268.194C608.863 268.11 609.072 268.067 609.284 268.067H681.239C682.802 269.439 681.849 271.177 680.491 271.177V271.177Z" fill="#CCCCCC"/>
<path d="M680.491 279.343H609.372C608.962 279.351 608.565 279.204 608.26 278.931C607.955 278.658 607.765 278.279 607.729 277.871C607.717 277.661 607.749 277.449 607.822 277.251C607.895 277.053 608.008 276.872 608.153 276.718C608.299 276.565 608.474 276.443 608.668 276.359C608.863 276.276 609.072 276.233 609.284 276.233H681.239C682.802 277.604 681.849 279.343 680.491 279.343V279.343Z" fill="#CCCCCC"/>
<path d="M680.491 287.503H609.372C608.962 287.512 608.565 287.364 608.26 287.091C607.955 286.818 607.765 286.439 607.729 286.032C607.717 285.821 607.749 285.61 607.822 285.412C607.895 285.213 608.008 285.032 608.153 284.879C608.299 284.726 608.474 284.603 608.668 284.52C608.863 284.436 609.072 284.393 609.284 284.393H681.239C682.802 285.765 681.849 287.503 680.491 287.503V287.503Z" fill="#CCCCCC"/>
<path d="M680.491 295.669H609.372C608.962 295.677 608.565 295.53 608.26 295.257C607.955 294.983 607.765 294.605 607.729 294.197C607.717 293.986 607.749 293.775 607.822 293.577C607.895 293.379 608.008 293.198 608.153 293.044C608.299 292.891 608.474 292.769 608.668 292.685C608.863 292.602 609.072 292.559 609.284 292.559H681.239C682.802 293.93 681.849 295.669 680.491 295.669V295.669Z" fill="#CCCCCC"/>
<path d="M680.491 303.83H609.372C608.962 303.838 608.565 303.691 608.26 303.417C607.955 303.144 607.765 302.766 607.729 302.358C607.717 302.147 607.749 301.936 607.822 301.738C607.895 301.54 608.008 301.358 608.153 301.205C608.299 301.052 608.474 300.93 608.668 300.846C608.863 300.763 609.072 300.72 609.284 300.72H681.239C682.802 302.091 681.849 303.83 680.491 303.83V303.83Z" fill="#CCCCCC"/>
<path d="M464.228 292.533H405.689C403.781 292.53 401.952 291.773 400.603 290.425C399.254 289.078 398.495 287.251 398.493 285.345V237.75C398.495 235.845 399.254 234.018 400.603 232.67C401.952 231.323 403.781 230.565 405.689 230.563H464.228C466.136 230.565 467.965 231.323 469.314 232.67C470.663 234.018 471.422 235.845 471.424 237.75V285.345C471.422 287.251 470.663 289.078 469.314 290.425C467.965 291.773 466.136 292.53 464.228 292.533ZM405.689 232.195C404.215 232.197 402.801 232.782 401.758 233.824C400.715 234.865 400.129 236.277 400.127 237.75V285.345C400.129 286.818 400.715 288.23 401.758 289.272C402.801 290.313 404.215 290.899 405.689 290.9H464.228C465.703 290.899 467.116 290.313 468.159 289.272C469.202 288.23 469.788 286.818 469.79 285.345V237.75C469.788 236.277 469.202 234.865 468.159 233.824C467.116 232.782 465.703 232.197 464.228 232.195H405.689Z" fill="#3F3D56"/>
<path d="M454.978 266.648H414.939C413.964 266.648 413.029 266.261 412.339 265.572C411.65 264.884 411.262 263.95 411.262 262.976C411.262 262.002 411.65 261.068 412.339 260.379C413.029 259.69 413.964 259.303 414.939 259.303H454.978C455.953 259.303 456.888 259.69 457.578 260.379C458.267 261.068 458.655 262.002 458.655 262.976C458.655 263.95 458.267 264.884 457.578 265.572C456.888 266.261 455.953 266.648 454.978 266.648Z" fill="#458FF6"/>
<path d="M446.807 251.551H423.111C422.135 251.551 421.2 251.164 420.511 250.475C419.821 249.787 419.434 248.853 419.434 247.879C419.434 246.905 419.821 245.971 420.511 245.282C421.2 244.593 422.135 244.206 423.111 244.206H446.807C447.782 244.206 448.717 244.593 449.407 245.282C450.096 245.971 450.484 246.905 450.484 247.879C450.484 248.853 450.096 249.787 449.407 250.475C448.717 251.164 447.782 251.551 446.807 251.551Z" fill="#458FF6"/>
<path d="M454.978 278.889H414.939C413.964 278.889 413.029 278.502 412.339 277.813C411.65 277.125 411.262 276.191 411.262 275.217C411.262 274.243 411.65 273.309 412.339 272.62C413.029 271.931 413.964 271.544 414.939 271.544H454.978C455.953 271.544 456.888 271.931 457.578 272.62C458.267 273.309 458.655 274.243 458.655 275.217C458.655 276.191 458.267 277.125 457.578 277.813C456.888 278.502 455.953 278.889 454.978 278.889Z" fill="#458FF6"/>
<path d="M107.28 386.488C106.715 385.43 106.389 384.26 106.325 383.062C106.261 381.864 106.461 380.667 106.911 379.555C107.361 378.442 108.049 377.442 108.928 376.624C109.807 375.806 110.854 375.19 111.997 374.821L112.599 345.665L125.091 354.267L122.604 380.635C123.099 382.593 122.858 384.665 121.925 386.457C120.993 388.249 119.435 389.638 117.546 390.359C115.657 391.081 113.568 391.086 111.676 390.372C109.784 389.659 108.22 388.277 107.28 386.488H107.28Z" fill="#A0616A"/>
<path d="M121.093 274.223L108.865 366.041L123.585 366.595L135.887 270.209L132.935 268.469C131.812 267.807 130.542 267.434 129.238 267.381C127.935 267.329 126.64 267.6 125.467 268.17C124.294 268.74 123.281 269.591 122.517 270.647C121.754 271.703 121.265 272.932 121.093 274.223Z" fill="#458FF6"/>
<path d="M160.119 520.281L170.136 520.281L174.902 481.691L160.117 481.691L160.119 520.281Z" fill="#A0616A"/>
<path d="M189.457 529.57L157.973 529.572L157.972 517.423L177.292 517.422C180.518 517.422 183.612 518.702 185.893 520.98C188.175 523.258 189.456 526.348 189.457 529.57Z" fill="#2F2E41"/>
<path d="M76.772 508.325L85.8623 512.527L106.421 479.509L93.0038 473.306L76.772 508.325Z" fill="#A0616A"/>
<path d="M99.4868 529.064L70.9162 515.854L76.0264 504.83L93.5583 512.936C96.486 514.289 98.7553 516.749 99.8671 519.774C100.979 522.798 100.842 526.14 99.4868 529.064Z" fill="#2F2E41"/>
<path d="M170.621 512.127C170.474 512.127 170.327 512.119 170.182 512.102L162.256 511.17C161.423 511.069 160.649 510.687 160.061 510.087C159.474 509.488 159.109 508.706 159.025 507.872L149.512 408.197C149.487 407.937 149.379 407.691 149.204 407.496C149.03 407.302 148.797 407.168 148.54 407.115C148.284 407.062 148.017 407.092 147.779 407.201C147.542 407.311 147.345 407.493 147.219 407.722L94.2857 503.5C93.8876 504.225 93.2555 504.794 92.4921 505.115C91.7288 505.435 90.8794 505.487 90.0823 505.264L81.179 502.794C80.6983 502.661 80.2499 502.432 79.8608 502.12C79.4718 501.808 79.1503 501.421 78.9161 500.981C78.6818 500.541 78.5396 500.059 78.4981 499.562C78.4566 499.066 78.5167 498.566 78.6748 498.094C86.4288 474.923 125.277 358.792 128.599 348.103C132.567 335.332 162.194 330.299 164.746 329.889L166.213 328.424L166.495 328.803C179.572 346.384 185.899 369.668 184.312 394.367L184.312 394.376L174.274 508.775C174.194 509.688 173.775 510.539 173.099 511.159C172.423 511.779 171.539 512.125 170.621 512.127Z" fill="#2F2E41"/>
<path d="M128.867 253.313C139.951 253.313 148.936 244.339 148.936 233.27C148.936 222.2 139.951 213.226 128.867 213.226C117.784 213.226 108.798 222.2 108.798 233.27C108.798 244.339 117.784 253.313 128.867 253.313Z" fill="#A0616A"/>
<path d="M129.891 345.033L117.983 283.043C116.986 277.806 118.02 272.387 120.874 267.883C123.729 263.38 128.191 260.128 133.356 258.786C136.548 257.957 139.906 258.013 143.069 258.948C146.232 259.883 149.08 261.661 151.306 264.092C157.384 270.719 165.105 280.363 167.37 288.675C169.288 295.731 174.684 322.171 174.739 322.437L174.781 322.647L174.632 322.802C174.604 322.831 171.713 325.815 167.212 329.54C164.571 331.726 161.872 333.755 159.19 335.57C151.657 340.65 131.163 344.779 130.295 344.952L129.891 345.033Z" fill="#458FF6"/>
<path opacity="0.2" d="M158.96 335.233C161.951 333.209 164.664 331.12 166.952 329.226C166.126 317.035 148.142 291.508 140.853 291.508C140.853 291.508 139.129 330.851 158.96 335.233Z" fill="black"/>
<path d="M195.979 367.253C194.849 366.844 193.824 366.193 192.974 365.345C192.124 364.497 191.47 363.474 191.059 362.346C190.648 361.219 190.489 360.016 190.594 358.821C190.699 357.626 191.065 356.468 191.667 355.429L172.58 333.36L187.627 331.404L203.445 352.661C205.125 353.786 206.333 355.487 206.841 357.442C207.349 359.397 207.121 361.471 206.201 363.269C205.281 365.068 203.732 366.467 201.848 367.201C199.964 367.935 197.875 367.953 195.979 367.253H195.979Z" fill="#A0616A"/>
<path d="M142.617 260.11C143.448 260.127 144.276 260.222 145.09 260.393C146.737 260.769 148.265 261.547 149.537 262.658C150.808 263.769 151.784 265.178 152.377 266.758L175.973 315.99L201.303 342.92L188.638 353.121L148.6 317.214L132.604 273.733C132.093 272.163 131.964 270.494 132.227 268.864C132.489 267.234 133.136 265.69 134.115 264.359C135.093 263.028 136.374 261.948 137.852 261.21C139.331 260.471 140.964 260.094 142.617 260.11Z" fill="#458FF6"/>
<path d="M127.679 253.128C124.823 248.859 122.569 242.938 125.714 238.875C128.818 234.865 134.941 235.456 139.695 233.681C146.317 231.21 150.157 223.44 148.959 216.482C147.762 209.524 142.169 203.756 135.507 201.396C128.844 199.036 121.331 199.804 114.807 202.521C106.775 205.867 99.8854 212.339 96.9964 220.537C94.1074 228.735 95.6518 238.579 101.645 244.88C108.071 251.635 118.155 253.436 127.484 253.327" fill="#2F2E41"/>
<path d="M96.1644 229.496C95.3468 234.058 90.3353 236.65 85.7294 237.219C81.1235 237.789 76.3589 237.058 71.8751 238.255C63.9703 240.364 58.7567 247.956 55.887 255.609C53.0173 263.261 51.7447 271.52 48.0162 278.794C44.2877 286.068 37.0584 292.481 28.9048 291.8C30.5021 295.817 33.3013 299.243 36.9203 301.612C40.5394 303.981 44.8022 305.177 49.127 305.037C53.4518 304.897 57.628 303.427 61.0858 300.829C64.5436 298.231 67.1146 294.631 68.448 290.52C71.4433 281.284 68.005 270.271 73.2432 262.093C76.1418 257.568 81.147 254.907 85.9732 252.535C90.7993 250.163 95.8648 247.729 99.1005 243.438C102.336 239.147 102.983 232.37 98.9953 228.764" fill="#2F2E41"/>
<path d="M4.97303 530H266.687C266.944 529.999 267.191 529.896 267.373 529.714C267.555 529.532 267.657 529.285 267.657 529.028C267.657 528.771 267.555 528.524 267.373 528.342C267.191 528.16 266.944 528.057 266.687 528.057H4.97303C4.71549 528.057 4.46875 528.16 4.2869 528.342C4.10505 528.524 4.00293 528.771 4.00293 529.028C4.00293 529.285 4.10505 529.532 4.2869 529.714C4.46875 529.896 4.71549 529.999 4.97303 530Z" fill="#3F3D56"/>
<path d="M219.756 206.618C226.074 206.618 231.195 201.503 231.195 195.193C231.195 188.883 226.074 183.768 219.756 183.768C213.438 183.768 208.316 188.883 208.316 195.193C208.316 201.503 213.438 206.618 219.756 206.618Z" fill="#E6E6E6"/>
<path d="M583.368 106.242C589.686 106.242 594.807 101.127 594.807 94.8173C594.807 88.5075 589.686 83.3925 583.368 83.3925C577.05 83.3925 571.928 88.5075 571.928 94.8173C571.928 101.127 577.05 106.242 583.368 106.242Z" fill="#E6E6E6"/>
<path d="M458.351 414.713C464.668 414.713 469.79 409.598 469.79 403.288C469.79 396.979 464.668 391.864 458.351 391.864C452.033 391.864 446.911 396.979 446.911 403.288C446.911 409.598 452.033 414.713 458.351 414.713Z" fill="#E6E6E6"/>
</g>
<defs>
<filter id="filter0_dddd" x="0" y="0" width="706" height="538" filterUnits="userSpaceOnUse" color-interpolation-filters="sRGB">
<feFlood flood-opacity="0" result="BackgroundImageFix"/>
<feColorMatrix in="SourceAlpha" type="matrix" values="0 0 0 0 0 0 0 0 0 0 0 0 0 0 0 0 0 0 127 0"/>
<feOffset dy="4"/>
<feGaussianBlur stdDeviation="2"/>
<feColorMatrix type="matrix" values="0 0 0 0 0 0 0 0 0 0 0 0 0 0 0 0 0 0 0.25 0"/>
<feBlend mode="normal" in2="BackgroundImageFix" result="effect1_dropShadow"/>
<feColorMatrix in="SourceAlpha" type="matrix" values="0 0 0 0 0 0 0 0 0 0 0 0 0 0 0 0 0 0 127 0"/>
<feOffset dy="4"/>
<feGaussianBlur stdDeviation="2"/>
<feColorMatrix type="matrix" values="0 0 0 0 0 0 0 0 0 0 0 0 0 0 0 0 0 0 0.25 0"/>
<feBlend mode="normal" in2="effect1_dropShadow" result="effect2_dropShadow"/>
<feColorMatrix in="SourceAlpha" type="matrix" values="0 0 0 0 0 0 0 0 0 0 0 0 0 0 0 0 0 0 127 0"/>
<feOffset dy="4"/>
<feGaussianBlur stdDeviation="2"/>
<feColorMatrix type="matrix" values="0 0 0 0 0 0 0 0 0 0 0 0 0 0 0 0 0 0 0.25 0"/>
<feBlend mode="normal" in2="effect2_dropShadow" result="effect3_dropShadow"/>
<feColorMatrix in="SourceAlpha" type="matrix" values="0 0 0 0 0 0 0 0 0 0 0 0 0 0 0 0 0 0 127 0"/>
<feOffset dy="4"/>
<feGaussianBlur stdDeviation="2"/>
<feColorMatrix type="matrix" values="0 0 0 0 0 0 0 0 0 0 0 0 0 0 0 0 0 0 0.25 0"/>
<feBlend mode="normal" in2="effect3_dropShadow" result="effect4_dropShadow"/>
<feBlend mode="normal" in="SourceGraphic" in2="effect4_dropShadow" result="shape"/>
</filter>
</defs>
</svg>
