<svg width="698" height="530" viewBox="0 0 698 530" fill="none" xmlns="http://www.w3.org/2000/svg">
<path d="M491.059 408.282C429.366 408.282 373.616 365.537 359.756 302.946C346.925 245.001 383.687 187.435 441.706 174.62C452.781 172.174 464.23 171.93 475.399 173.903C486.569 175.876 497.24 180.027 506.803 186.118C516.366 192.21 524.634 200.123 531.135 209.406C537.636 218.689 542.243 229.16 544.692 240.221C548.637 258.132 545.307 276.875 535.433 292.337C525.558 307.8 509.946 318.719 492.021 322.699C479.636 325.384 466.706 323.784 455.353 318.16C444 312.537 434.899 303.225 429.544 291.753C429.499 291.656 429.473 291.55 429.468 291.443C429.464 291.336 429.481 291.228 429.518 291.127C429.555 291.026 429.611 290.934 429.685 290.855C429.758 290.776 429.845 290.712 429.943 290.667C430.041 290.622 430.147 290.597 430.254 290.593C430.362 290.589 430.469 290.606 430.57 290.644C430.671 290.681 430.763 290.738 430.842 290.812C430.921 290.885 430.984 290.973 431.029 291.071C436.225 302.205 445.059 311.244 456.078 316.702C467.098 322.159 479.648 323.712 491.668 321.105C509.17 317.219 524.414 306.557 534.056 291.46C543.697 276.362 546.949 258.062 543.097 240.573C538.244 218.657 524.872 199.564 505.924 187.495C486.975 175.425 464.002 171.367 442.058 176.214C414.592 182.313 390.67 199.044 375.539 222.737C360.409 246.429 355.307 275.148 361.351 302.594C377.171 374.035 448.236 419.303 519.771 403.504C543.405 398.3 565.614 388 584.844 373.325C604.074 358.649 619.86 339.954 631.096 318.546C631.146 318.451 631.214 318.367 631.296 318.298C631.379 318.229 631.474 318.177 631.577 318.145C631.679 318.113 631.787 318.102 631.894 318.111C632.001 318.121 632.105 318.152 632.201 318.202C632.296 318.252 632.38 318.32 632.449 318.402C632.518 318.485 632.569 318.58 632.601 318.683C632.633 318.785 632.644 318.893 632.634 319C632.624 319.107 632.593 319.211 632.543 319.306C621.196 340.923 605.255 359.803 585.837 374.622C566.418 389.442 543.99 399.843 520.124 405.098C510.581 407.211 500.835 408.278 491.059 408.282Z" fill="#E6E6E6"/>
<path d="M650.049 224.571C649.847 224.571 649.653 224.496 649.503 224.362C649.354 224.227 649.259 224.042 649.237 223.842C648.572 217.673 647.567 211.546 646.226 205.488C624.886 109.116 537.796 40.5569 439.146 42.5608C438.929 42.5651 438.72 42.4833 438.563 42.3333C438.407 42.1833 438.317 41.9775 438.313 41.7611C438.308 41.5447 438.39 41.3354 438.54 41.1793C438.691 41.0232 438.897 40.9331 439.113 40.9287C487.534 40.0307 534.774 55.8932 572.817 85.8242C610.859 115.755 637.36 157.911 647.822 205.136C649.176 211.253 650.191 217.44 650.862 223.668C650.874 223.775 650.864 223.883 650.834 223.985C650.804 224.088 650.753 224.184 650.686 224.267C650.619 224.351 650.535 224.42 650.441 224.471C650.347 224.523 650.244 224.555 650.137 224.566C650.108 224.57 650.078 224.571 650.049 224.571Z" fill="#E6E6E6"/>
<path d="M199.413 358.405C199.227 358.405 199.047 358.342 198.902 358.225C198.757 358.109 198.656 357.947 198.616 357.766C188.332 311.482 190.847 263.276 205.891 218.311C220.936 173.345 247.944 133.313 284.022 102.502C284.104 102.432 284.198 102.378 284.3 102.344C284.403 102.31 284.511 102.297 284.618 102.305C284.725 102.313 284.83 102.342 284.926 102.39C285.023 102.439 285.108 102.506 285.178 102.588C285.248 102.669 285.302 102.764 285.335 102.866C285.368 102.969 285.381 103.077 285.372 103.184C285.364 103.291 285.334 103.396 285.285 103.491C285.236 103.587 285.168 103.672 285.086 103.742C249.232 134.361 222.393 174.143 207.442 218.828C192.491 263.513 189.992 311.418 200.212 357.413C200.238 357.533 200.237 357.656 200.21 357.775C200.182 357.894 200.128 358.006 200.051 358.101C199.974 358.196 199.877 358.273 199.767 358.326C199.656 358.378 199.535 358.406 199.413 358.405Z" fill="#E6E6E6"/>
<path d="M425.239 131.386H297.771C294.088 131.382 290.557 129.919 287.953 127.318C285.349 124.717 283.884 121.191 283.88 117.513V13.873C283.884 10.1949 285.349 6.66869 287.953 4.06789C290.557 1.46708 294.088 0.00414059 297.771 0H425.239C428.922 0.00414059 432.453 1.46708 435.057 4.06789C437.661 6.66869 439.126 10.1949 439.13 13.873V117.513C439.126 121.191 437.661 124.717 435.057 127.318C432.453 129.919 428.922 131.382 425.239 131.386ZM297.771 1.63212C294.521 1.63579 291.406 2.92664 289.108 5.22146C286.81 7.51628 285.518 10.6277 285.514 13.873V117.513C285.518 120.758 286.81 123.87 289.108 126.164C291.406 128.459 294.521 129.75 297.771 129.754H425.239C428.489 129.75 431.604 128.459 433.902 126.164C436.199 123.87 437.492 120.758 437.496 117.513V13.873C437.492 10.6277 436.199 7.51628 433.902 5.22146C431.604 2.92664 428.489 1.63579 425.239 1.63212H297.771Z" fill="#3F3D56"/>
<path d="M410.75 31.1234H346.419C345.853 31.1348 345.305 30.9315 344.884 30.5544C344.463 30.1773 344.201 29.6547 344.151 29.0921C344.135 28.8009 344.179 28.5096 344.28 28.2359C344.381 27.9622 344.536 27.7119 344.737 27.5002C344.938 27.2885 345.18 27.1199 345.448 27.0047C345.716 26.8895 346.005 26.8301 346.297 26.8301H411.783C413.94 28.7233 412.625 31.1234 410.75 31.1234L410.75 31.1234Z" fill="#CCCCCC"/>
<path d="M410.75 42.3929H346.419C345.853 42.4044 345.305 42.201 344.884 41.8239C344.463 41.4469 344.201 40.9242 344.151 40.3617C344.135 40.0705 344.179 39.7791 344.28 39.5054C344.381 39.2317 344.536 38.9814 344.737 38.7697C344.938 38.558 345.18 38.3895 345.448 38.2743C345.716 38.159 346.005 38.0996 346.297 38.0996H411.783C413.94 39.9929 412.625 42.3929 410.75 42.3929H410.75Z" fill="#CCCCCC"/>
<path d="M332.512 48.8097H312.878C312.237 48.809 311.623 48.5544 311.169 48.1017C310.716 47.649 310.461 47.0352 310.46 46.395V23.2555C310.461 22.6153 310.716 22.0015 311.169 21.5488C311.623 21.0961 312.237 20.8415 312.878 20.8408H332.512C333.153 20.8417 333.767 21.0964 334.22 21.549C334.674 22.0017 334.929 22.6154 334.929 23.2555V46.395C334.929 47.0352 334.674 47.649 334.221 48.1017C333.767 48.5544 333.153 48.809 332.512 48.8097Z" fill="#458FF6"/>
<path d="M410.563 65.4681H312.381C311.816 65.4796 311.267 65.2762 310.846 64.8991C310.425 64.5221 310.163 63.9994 310.113 63.4369C310.098 63.1457 310.142 62.8543 310.242 62.5806C310.343 62.3069 310.499 62.0566 310.7 61.8449C310.9 61.6333 311.142 61.4647 311.411 61.3494C311.679 61.2342 311.968 61.1748 312.26 61.1748H411.596C413.754 63.0681 412.439 65.4681 410.563 65.4681V65.4681Z" fill="#CCCCCC"/>
<path d="M410.563 76.7406H312.381C311.816 76.752 311.267 76.5487 310.846 76.1716C310.425 75.7945 310.163 75.2719 310.113 74.7093C310.098 74.4181 310.142 74.1268 310.242 73.8531C310.343 73.5794 310.499 73.3291 310.7 73.1174C310.9 72.9057 311.142 72.7371 311.411 72.6219C311.679 72.5067 311.968 72.4473 312.26 72.4473H411.596C413.754 74.3405 412.439 76.7406 410.563 76.7406V76.7406Z" fill="#CCCCCC"/>
<path d="M410.563 88.0062H312.381C311.816 88.0176 311.267 87.8143 310.846 87.4372C310.425 87.0602 310.163 86.5375 310.113 85.975C310.098 85.6838 310.142 85.3924 310.242 85.1187C310.343 84.845 310.499 84.5947 310.7 84.383C310.9 84.1713 311.142 84.0027 311.411 83.8875C311.679 83.7723 311.968 83.7129 312.26 83.7129H411.596C413.754 85.6061 412.439 88.0062 410.563 88.0062V88.0062Z" fill="#CCCCCC"/>
<path d="M410.563 99.2786H312.381C311.816 99.2901 311.267 99.0867 310.846 98.7097C310.425 98.3326 310.163 97.81 310.113 97.2474C310.098 96.9562 310.142 96.6649 310.242 96.3912C310.343 96.1175 310.499 95.8672 310.7 95.6555C310.9 95.4438 311.142 95.2752 311.411 95.16C311.679 95.0448 311.968 94.9854 312.26 94.9854H411.596C413.754 96.8786 412.439 99.2787 410.563 99.2787V99.2786Z" fill="#CCCCCC"/>
<path d="M410.563 110.545H312.381C311.816 110.557 311.267 110.353 310.846 109.976C310.425 109.599 310.163 109.077 310.113 108.514C310.098 108.223 310.142 107.931 310.242 107.658C310.343 107.384 310.499 107.134 310.7 106.922C310.9 106.71 311.142 106.542 311.411 106.427C311.679 106.311 311.968 106.252 312.26 106.252H411.596C413.754 108.145 412.439 110.545 410.563 110.545V110.545Z" fill="#CCCCCC"/>
<path d="M687.121 319.741H594.788C591.904 319.738 589.138 318.592 587.099 316.556C585.059 314.519 583.912 311.757 583.909 308.876V233.804C583.912 230.923 585.059 228.161 587.099 226.124C589.138 224.087 591.904 222.942 594.788 222.938H687.121C690.005 222.942 692.77 224.087 694.81 226.124C696.849 228.161 697.997 230.923 698 233.804V308.876C697.997 311.757 696.849 314.519 694.81 316.556C692.77 318.592 690.005 319.738 687.121 319.741ZM594.788 224.571C592.337 224.573 589.987 225.547 588.254 227.278C586.521 229.009 585.546 231.356 585.543 233.804V308.876C585.546 311.324 586.521 313.671 588.254 315.402C589.987 317.133 592.337 318.107 594.788 318.109H687.121C689.572 318.107 691.922 317.133 693.655 315.402C695.388 313.671 696.363 311.324 696.366 308.876V233.804C696.363 231.356 695.388 229.009 693.655 227.278C691.922 225.547 689.572 224.573 687.121 224.571L594.788 224.571Z" fill="#3F3D56"/>
<path d="M676.626 246.299H630.027C629.617 246.308 629.22 246.16 628.915 245.887C628.61 245.614 628.42 245.236 628.384 244.828C628.373 244.617 628.404 244.406 628.477 244.208C628.55 244.01 628.663 243.828 628.809 243.675C628.954 243.522 629.129 243.399 629.324 243.316C629.518 243.233 629.727 243.189 629.939 243.189H677.374C678.937 244.561 677.984 246.299 676.626 246.299L676.626 246.299Z" fill="#CCCCCC"/>
<path d="M676.626 254.462H630.027C629.617 254.471 629.22 254.323 628.915 254.05C628.61 253.777 628.42 253.399 628.384 252.991C628.373 252.78 628.405 252.569 628.478 252.371C628.551 252.173 628.663 251.991 628.809 251.838C628.954 251.685 629.129 251.562 629.324 251.479C629.518 251.396 629.727 251.353 629.939 251.353H677.374C678.937 252.724 677.984 254.462 676.626 254.462L676.626 254.462Z" fill="#CCCCCC"/>
<path d="M619.953 259.11H605.731C605.267 259.11 604.822 258.925 604.493 258.597C604.165 258.269 603.98 257.825 603.98 257.361V240.6C603.98 240.136 604.165 239.691 604.493 239.363C604.822 239.035 605.267 238.851 605.731 238.851H619.953C620.417 238.851 620.862 239.036 621.191 239.364C621.519 239.691 621.704 240.136 621.704 240.6V257.361C621.704 257.825 621.519 258.269 621.191 258.597C620.863 258.925 620.417 259.11 619.953 259.11Z" fill="#458FF6"/>
<path d="M676.491 271.177H605.372C604.962 271.186 604.565 271.038 604.26 270.765C603.955 270.492 603.765 270.113 603.729 269.706C603.717 269.495 603.749 269.284 603.822 269.086C603.895 268.887 604.008 268.706 604.153 268.553C604.299 268.399 604.474 268.277 604.668 268.194C604.863 268.11 605.072 268.067 605.284 268.067H677.239C678.802 269.439 677.849 271.177 676.491 271.177V271.177Z" fill="#CCCCCC"/>
<path d="M676.491 279.343H605.372C604.962 279.352 604.565 279.204 604.26 278.931C603.955 278.658 603.765 278.279 603.729 277.872C603.717 277.661 603.749 277.45 603.822 277.252C603.895 277.053 604.008 276.872 604.153 276.719C604.299 276.565 604.474 276.443 604.668 276.36C604.863 276.276 605.072 276.233 605.284 276.233H677.239C678.802 277.605 677.849 279.343 676.491 279.343V279.343Z" fill="#CCCCCC"/>
<path d="M676.491 287.503H605.372C604.962 287.512 604.565 287.364 604.26 287.091C603.955 286.818 603.765 286.44 603.729 286.032C603.717 285.821 603.749 285.61 603.822 285.412C603.895 285.214 604.008 285.032 604.153 284.879C604.299 284.726 604.474 284.603 604.668 284.52C604.863 284.437 605.072 284.394 605.284 284.394H677.239C678.802 285.765 677.849 287.503 676.491 287.503V287.503Z" fill="#CCCCCC"/>
<path d="M676.491 295.669H605.372C604.962 295.677 604.565 295.53 604.26 295.256C603.955 294.983 603.765 294.605 603.729 294.197C603.717 293.986 603.749 293.775 603.822 293.577C603.895 293.379 604.008 293.197 604.153 293.044C604.299 292.891 604.474 292.769 604.668 292.685C604.863 292.602 605.072 292.559 605.284 292.559H677.239C678.802 293.93 677.849 295.668 676.491 295.668V295.669Z" fill="#CCCCCC"/>
<path d="M676.491 303.83H605.372C604.962 303.838 604.565 303.691 604.26 303.417C603.955 303.144 603.765 302.766 603.729 302.358C603.717 302.147 603.749 301.936 603.822 301.738C603.895 301.54 604.008 301.358 604.153 301.205C604.299 301.052 604.474 300.93 604.668 300.846C604.863 300.763 605.072 300.72 605.284 300.72H677.239C678.802 302.091 677.849 303.83 676.491 303.83V303.83Z" fill="#CCCCCC"/>
<path d="M460.228 292.532H401.689C399.781 292.53 397.952 291.772 396.603 290.425C395.254 289.077 394.495 287.251 394.493 285.345V237.75C394.495 235.844 395.254 234.017 396.603 232.67C397.952 231.323 399.781 230.565 401.689 230.562H460.228C462.136 230.565 463.965 231.323 465.314 232.67C466.663 234.017 467.422 235.844 467.424 237.75V285.345C467.422 287.251 466.663 289.077 465.314 290.425C463.965 291.772 462.136 292.53 460.228 292.532ZM401.689 232.195C400.215 232.196 398.801 232.782 397.758 233.824C396.715 234.865 396.129 236.277 396.127 237.75V285.345C396.129 286.818 396.715 288.23 397.758 289.271C398.801 290.313 400.215 290.898 401.689 290.9H460.228C461.703 290.898 463.116 290.313 464.159 289.271C465.202 288.23 465.788 286.818 465.79 285.345V237.75C465.788 236.277 465.202 234.865 464.159 233.824C463.116 232.782 461.703 232.196 460.228 232.195H401.689Z" fill="#3F3D56"/>
<path d="M450.978 266.648H410.939C409.964 266.648 409.029 266.261 408.339 265.573C407.65 264.884 407.262 263.95 407.262 262.976C407.262 262.002 407.65 261.068 408.339 260.379C409.029 259.691 409.964 259.304 410.939 259.304H450.978C451.953 259.304 452.888 259.691 453.578 260.379C454.267 261.068 454.655 262.002 454.655 262.976C454.655 263.95 454.267 264.884 453.578 265.573C452.888 266.261 451.953 266.648 450.978 266.648Z" fill="#458FF6"/>
<path d="M442.807 251.551H419.111C418.135 251.551 417.2 251.164 416.511 250.475C415.821 249.786 415.434 248.852 415.434 247.878C415.434 246.904 415.821 245.97 416.511 245.282C417.2 244.593 418.135 244.206 419.111 244.206H442.807C443.782 244.206 444.717 244.593 445.407 245.282C446.096 245.97 446.484 246.904 446.484 247.878C446.484 248.852 446.096 249.786 445.407 250.475C444.717 251.164 443.782 251.551 442.807 251.551Z" fill="#458FF6"/>
<path d="M450.978 278.889H410.939C409.964 278.889 409.029 278.502 408.339 277.813C407.65 277.124 407.262 276.19 407.262 275.216C407.262 274.242 407.65 273.308 408.339 272.62C409.029 271.931 409.964 271.544 410.939 271.544H450.978C451.953 271.544 452.888 271.931 453.578 272.62C454.267 273.308 454.655 274.242 454.655 275.216C454.655 276.19 454.267 277.124 453.578 277.813C452.888 278.502 451.953 278.889 450.978 278.889Z" fill="#458FF6"/>
<path d="M103.28 386.489C102.715 385.43 102.389 384.261 102.325 383.063C102.261 381.865 102.461 380.667 102.911 379.555C103.361 378.442 104.049 377.442 104.928 376.624C105.807 375.806 106.854 375.19 107.997 374.821L108.599 345.665L121.091 354.267L118.604 380.635C119.099 382.593 118.858 384.665 117.925 386.457C116.993 388.25 115.435 389.638 113.546 390.36C111.657 391.081 109.568 391.086 107.676 390.372C105.784 389.659 104.22 388.277 103.28 386.489H103.28Z" fill="#A0616A"/>
<path d="M117.093 274.223L104.865 366.041L119.585 366.595L131.887 270.209L128.935 268.469C127.812 267.807 126.542 267.434 125.238 267.381C123.935 267.329 122.64 267.6 121.467 268.17C120.294 268.74 119.281 269.591 118.517 270.647C117.754 271.703 117.265 272.932 117.093 274.223Z" fill="#458FF6"/>
<path d="M156.119 520.281L166.136 520.28L170.902 481.69L156.117 481.691L156.119 520.281Z" fill="#A0616A"/>
<path d="M185.457 529.57L153.973 529.572L153.972 517.423L173.292 517.422C176.518 517.422 179.612 518.702 181.893 520.98C184.175 523.258 185.456 526.348 185.457 529.57Z" fill="#2F2E41"/>
<path d="M72.772 508.325L81.8623 512.527L102.421 479.509L89.0038 473.306L72.772 508.325Z" fill="#A0616A"/>
<path d="M95.4868 529.064L66.9162 515.855L72.0264 504.83L89.5583 512.936C92.486 514.29 94.7553 516.749 95.8671 519.774C96.9789 522.799 96.8421 526.141 95.4868 529.064Z" fill="#2F2E41"/>
<path d="M166.621 512.127C166.474 512.127 166.327 512.119 166.182 512.101L158.256 511.17C157.423 511.069 156.649 510.687 156.061 510.087C155.474 509.488 155.109 508.706 155.025 507.872L145.512 408.197C145.487 407.937 145.379 407.691 145.204 407.496C145.03 407.302 144.797 407.168 144.54 407.115C144.284 407.062 144.017 407.092 143.779 407.201C143.542 407.311 143.345 407.493 143.219 407.722L90.2857 503.5C89.8876 504.225 89.2555 504.794 88.4921 505.114C87.7288 505.435 86.8794 505.487 86.0823 505.264L77.179 502.794C76.6983 502.661 76.2499 502.431 75.8608 502.12C75.4718 501.808 75.1503 501.421 74.9161 500.981C74.6818 500.541 74.5396 500.058 74.4981 499.562C74.4566 499.066 74.5167 498.566 74.6748 498.094C82.4288 474.922 121.277 358.792 124.599 348.103C128.567 335.332 158.194 330.299 160.746 329.889L162.213 328.424L162.495 328.803C175.572 346.384 181.899 369.668 180.312 394.367L180.312 394.376L170.274 508.775C170.194 509.688 169.775 510.539 169.099 511.159C168.423 511.779 167.539 512.125 166.621 512.127Z" fill="#2F2E41"/>
<path d="M124.867 253.313C135.951 253.313 144.936 244.339 144.936 233.27C144.936 222.2 135.951 213.227 124.867 213.227C113.784 213.227 104.798 222.2 104.798 233.27C104.798 244.339 113.784 253.313 124.867 253.313Z" fill="#A0616A"/>
<path d="M125.891 345.033L113.983 283.043C112.986 277.806 114.02 272.387 116.874 267.883C119.729 263.38 124.191 260.128 129.356 258.786C132.548 257.957 135.906 258.013 139.069 258.948C142.232 259.883 145.08 261.661 147.306 264.092C153.384 270.719 161.105 280.363 163.37 288.675C165.288 295.731 170.684 322.171 170.739 322.437L170.781 322.647L170.632 322.802C170.604 322.831 167.713 325.815 163.212 329.54C160.571 331.726 157.872 333.755 155.19 335.57C147.657 340.65 127.163 344.779 126.295 344.952L125.891 345.033Z" fill="#458FF6"/>
<path opacity="0.2" d="M154.96 335.232C157.951 333.209 160.664 331.12 162.952 329.226C162.126 317.034 144.142 291.508 136.853 291.508C136.853 291.508 135.129 330.85 154.96 335.232Z" fill="black"/>
<path d="M191.979 367.253C190.849 366.844 189.824 366.192 188.974 365.345C188.124 364.497 187.47 363.474 187.059 362.346C186.648 361.219 186.489 360.016 186.594 358.82C186.699 357.625 187.065 356.468 187.667 355.429L168.58 333.36L183.627 331.404L199.445 352.661C201.125 353.786 202.333 355.487 202.841 357.442C203.349 359.397 203.121 361.47 202.201 363.269C201.281 365.068 199.732 366.466 197.848 367.201C195.964 367.935 193.875 367.953 191.979 367.253H191.979Z" fill="#A0616A"/>
<path d="M138.617 260.11C139.448 260.127 140.276 260.222 141.09 260.393C142.737 260.769 144.265 261.547 145.537 262.658C146.808 263.769 147.784 265.178 148.377 266.758L171.973 315.99L197.303 342.92L184.638 353.121L144.6 317.214L128.604 273.733C128.093 272.163 127.964 270.494 128.227 268.864C128.489 267.234 129.136 265.689 130.115 264.358C131.093 263.027 132.374 261.948 133.852 261.209C135.331 260.471 136.964 260.094 138.617 260.11Z" fill="#458FF6"/>
<path d="M123.679 253.128C120.823 248.858 118.569 242.938 121.714 238.875C124.818 234.865 130.941 235.456 135.695 233.681C142.317 231.21 146.157 223.44 144.959 216.482C143.762 209.524 138.169 203.756 131.507 201.396C124.844 199.036 117.331 199.804 110.807 202.521C102.775 205.867 95.8854 212.339 92.9964 220.537C90.1074 228.735 91.6518 238.578 97.6451 244.88C104.071 251.635 114.155 253.436 123.484 253.326" fill="#2F2E41"/>
<path d="M92.1644 229.496C91.3468 234.058 86.3353 236.65 81.7294 237.219C77.1235 237.789 72.3589 237.059 67.8751 238.255C59.9703 240.364 54.7567 247.956 51.887 255.609C49.0173 263.261 47.7447 271.521 44.0162 278.794C40.2877 286.068 33.0584 292.481 24.9048 291.801C26.5021 295.817 29.3013 299.243 32.9203 301.612C36.5394 303.981 40.8022 305.177 45.127 305.037C49.4518 304.897 53.628 303.427 57.0858 300.829C60.5436 298.231 63.1146 294.631 64.448 290.52C67.4433 281.285 64.005 270.271 69.2432 262.094C72.1418 257.569 77.147 254.907 81.9732 252.535C86.7993 250.164 91.8648 247.729 95.1005 243.438C98.3363 239.147 98.9828 232.37 94.9953 228.765" fill="#2F2E41"/>
<path d="M0.973029 530H262.687C262.944 529.999 263.191 529.896 263.373 529.714C263.555 529.532 263.657 529.285 263.657 529.028C263.657 528.771 263.555 528.524 263.373 528.342C263.191 528.16 262.944 528.057 262.687 528.057H0.973029C0.715485 528.057 0.46875 528.16 0.286901 528.342C0.105053 528.524 0.00292969 528.771 0.00292969 529.028C0.00292969 529.285 0.105053 529.532 0.286901 529.714C0.46875 529.896 0.715485 529.999 0.973029 530Z" fill="#3F3D56"/>
<path d="M215.756 206.617C222.074 206.617 227.195 201.502 227.195 195.192C227.195 188.883 222.074 183.768 215.756 183.768C209.438 183.768 204.316 188.883 204.316 195.192C204.316 201.502 209.438 206.617 215.756 206.617Z" fill="#E6E6E6"/>
<path d="M579.368 106.242C585.686 106.242 590.807 101.127 590.807 94.8174C590.807 88.5077 585.686 83.3926 579.368 83.3926C573.05 83.3926 567.928 88.5077 567.928 94.8174C567.928 101.127 573.05 106.242 579.368 106.242Z" fill="#E6E6E6"/>
<path d="M454.351 414.713C460.668 414.713 465.79 409.598 465.79 403.288C465.79 396.978 460.668 391.863 454.351 391.863C448.033 391.863 442.911 396.978 442.911 403.288C442.911 409.598 448.033 414.713 454.351 414.713Z" fill="#E6E6E6"/>
</svg>
