<svg width="90" height="90" viewBox="0 0 90 90" fill="none" xmlns="http://www.w3.org/2000/svg">
<g clip-path="url(#clip0)">
<path d="M71.0662 48.2764H25.2416C24.5136 48.2764 23.9235 48.8666 23.9235 49.5946C23.9235 50.3225 24.5137 50.9127 25.2416 50.9127H71.0664C71.7945 50.9127 72.3846 50.3225 72.3846 49.5946C72.3846 48.8666 71.7943 48.2764 71.0662 48.2764Z" fill="#969696"/>
<path d="M71.0662 56.7705H25.2416C24.5136 56.7705 23.9235 57.3608 23.9235 58.0887C23.9235 58.8166 24.5137 59.4069 25.2416 59.4069H71.0664C71.7945 59.4069 72.3846 58.8166 72.3846 58.0887C72.3846 57.3608 71.7943 56.7705 71.0662 56.7705Z" fill="#969696"/>
<path d="M71.0662 65.2646H25.2416C24.5136 65.2646 23.9235 65.8549 23.9235 66.5828C23.9235 67.3107 24.5137 67.901 25.2416 67.901H71.0664C71.7945 67.901 72.3846 67.3107 72.3846 66.5828C72.3846 65.8549 71.7943 65.2646 71.0662 65.2646Z" fill="#969696"/>
<path d="M71.0662 73.7598H25.2416C24.5136 73.7598 23.9235 74.35 23.9235 75.0779C23.9235 75.8059 24.5137 76.3961 25.2416 76.3961H71.0664C71.7945 76.3961 72.3846 75.8059 72.3846 75.0779C72.3846 74.35 71.7943 73.7598 71.0662 73.7598Z" fill="#969696"/>
<path d="M71.0663 30.8848H54.2277C53.4996 30.8848 52.9095 31.475 52.9095 32.203C52.9095 32.9309 53.4998 33.5211 54.2277 33.5211H71.0663C71.7944 33.5211 72.3845 32.9309 72.3845 32.203C72.3845 31.475 71.7944 30.8848 71.0663 30.8848Z" fill="#969696"/>
<path d="M71.0663 23.917H54.2277C53.4996 23.917 52.9095 24.5073 52.9095 25.2352C52.9095 25.9631 53.4998 26.5534 54.2277 26.5534H71.0663C71.7944 26.5534 72.3845 25.9631 72.3845 25.2352C72.3845 24.5073 71.7944 23.917 71.0663 23.917Z" fill="#969696"/>
<path d="M80.1965 73.3148C80.9246 73.3148 81.5147 72.7246 81.5147 71.9967V12.8756C81.5147 10.0171 79.1891 7.69148 76.3306 7.69148H73.8232V5.18414C73.8234 2.32559 71.4978 0 68.6393 0H13.6695C10.8109 0 8.48535 2.32559 8.48535 5.18414V77.1244C8.48535 79.9829 10.8109 82.3085 13.6695 82.3085H16.1767V84.8157C16.1767 87.6742 18.5022 89.9998 21.3608 89.9998H76.3304C79.189 89.9998 81.5145 87.6742 81.5145 84.8157V78.1594C81.5145 77.4313 80.9243 76.8412 80.1964 76.8412C79.4685 76.8412 78.8782 77.4315 78.8782 78.1594V84.8159C78.8782 86.2207 77.7353 87.3635 76.3306 87.3635H21.361C19.9561 87.3635 18.8134 86.2207 18.8134 84.8159V12.8756C18.8134 11.4708 19.9563 10.328 21.361 10.328H76.3306C77.7354 10.328 78.8782 11.471 78.8782 12.8756V71.9967C78.8782 72.7246 79.4685 73.3148 80.1965 73.3148ZM16.1767 12.8756V79.6721H13.6695C12.2646 79.6721 11.1219 78.5292 11.1219 77.1245V5.18414C11.1219 3.7793 12.2648 2.63654 13.6695 2.63654H68.6393C70.0441 2.63654 71.1869 3.77947 71.1869 5.18414V7.69131H21.361C18.5024 7.69148 16.1767 10.0171 16.1767 12.8756Z" fill="#969696"/>
<path d="M25.1361 26.0428C24.408 26.0428 23.8179 26.6331 23.8179 27.361V37.3167C23.8179 39.3841 25.3636 41.1067 27.4155 41.3291C27.9127 41.3834 42.121 41.331 42.1421 41.3309C42.1468 41.3303 42.1517 41.3298 42.1565 41.3293C44.2094 41.1078 45.7559 39.3848 45.7559 37.3167V20.123C45.7559 17.8975 43.9454 16.0869 41.7198 16.0869H27.8539C25.6283 16.0869 23.8177 17.8975 23.8177 20.123V21.155C23.8177 21.8831 24.408 22.4732 25.1359 22.4732C25.8638 22.4732 26.4541 21.8829 26.4541 21.155V20.123C26.4541 19.3513 27.082 18.7235 27.8537 18.7235H41.7197C42.4913 18.7235 43.1192 19.3512 43.1192 20.123V33.6193C42.112 32.5525 40.9042 31.6842 39.5544 31.0689C40.1202 30.1775 40.434 29.1332 40.434 28.0441C40.434 24.9303 37.9006 22.3969 34.7867 22.3969C31.6729 22.3969 29.1395 24.9303 29.1395 28.0441C29.1395 29.1334 29.4533 30.1775 30.0191 31.0689C28.6691 31.6842 27.4613 32.5525 26.4541 33.6195V27.361C26.4543 26.6329 25.8642 26.0428 25.1361 26.0428ZM34.7868 25.0333C36.4471 25.0333 37.7976 26.3838 37.7976 28.0441C37.7976 29.0497 37.2981 29.9852 36.4615 30.5467C35.966 30.8791 35.387 31.0549 34.7868 31.0549C34.1867 31.0549 33.6077 30.8793 33.1124 30.5467C32.2756 29.9852 31.7762 29.0497 31.7762 28.0441C31.7762 26.3838 33.1268 25.0333 34.7868 25.0333ZM32.196 33.0586C32.9937 33.4717 33.877 33.6912 34.7868 33.6912C35.6965 33.6912 36.5798 33.4717 37.3777 33.0586C39.8733 33.8215 41.8928 35.6438 42.912 38.0524C42.6921 38.4099 42.315 38.6613 41.8696 38.7082C41.7845 38.7135 27.9347 38.7275 27.7343 38.711L27.7055 38.7084C27.7048 38.7084 27.7041 38.7082 27.7034 38.7082C27.2581 38.6611 26.8814 38.4097 26.6615 38.0524C27.6809 35.6438 29.7004 33.8215 32.196 33.0586Z" fill="#969696"/>
</g>
<defs>
<clipPath id="clip0">
<rect width="90" height="90" fill="white"/>
</clipPath>
</defs>
</svg>
