<svg width="74" height="90" viewBox="0 0 74 90" fill="none" xmlns="http://www.w3.org/2000/svg">
<path d="M63.0662 48.276H17.2416C16.5136 48.276 15.9235 48.8663 15.9235 49.5942C15.9235 50.3221 16.5137 50.9124 17.2416 50.9124H63.0664C63.7945 50.9124 64.3846 50.3221 64.3846 49.5942C64.3846 48.8663 63.7943 48.276 63.0662 48.276Z" fill="#969696"/>
<path d="M63.0662 56.7705H17.2416C16.5136 56.7705 15.9235 57.3608 15.9235 58.0887C15.9235 58.8166 16.5137 59.4069 17.2416 59.4069H63.0664C63.7945 59.4069 64.3846 58.8166 64.3846 58.0887C64.3846 57.3608 63.7943 56.7705 63.0662 56.7705Z" fill="#969696"/>
<path d="M63.0662 65.265H17.2416C16.5136 65.265 15.9235 65.8553 15.9235 66.5832C15.9235 67.3111 16.5137 67.9014 17.2416 67.9014H63.0664C63.7945 67.9014 64.3846 67.3111 64.3846 66.5832C64.3846 65.8553 63.7943 65.265 63.0662 65.265Z" fill="#969696"/>
<path d="M63.0662 73.7595H17.2416C16.5136 73.7595 15.9235 74.3498 15.9235 75.0777C15.9235 75.8056 16.5137 76.3959 17.2416 76.3959H63.0664C63.7945 76.3959 64.3846 75.8056 64.3846 75.0777C64.3846 74.3498 63.7943 73.7595 63.0662 73.7595Z" fill="#969696"/>
<path d="M63.0663 30.885H46.2277C45.4996 30.885 44.9095 31.4753 44.9095 32.2032C44.9095 32.9311 45.4998 33.5214 46.2277 33.5214H63.0663C63.7944 33.5214 64.3845 32.9311 64.3845 32.2032C64.3845 31.4753 63.7944 30.885 63.0663 30.885Z" fill="#969696"/>
<path d="M63.0663 23.9171H46.2277C45.4996 23.9171 44.9095 24.5074 44.9095 25.2353C44.9095 25.9632 45.4998 26.5535 46.2277 26.5535H63.0663C63.7944 26.5535 64.3845 25.9632 64.3845 25.2353C64.3845 24.5074 63.7944 23.9171 63.0663 23.9171Z" fill="#969696"/>
<path d="M72.1965 73.3148C72.9246 73.3148 73.5147 72.7246 73.5147 71.9967V12.8756C73.5147 10.0171 71.1891 7.69148 68.3306 7.69148H65.8232V5.18414C65.8234 2.32559 63.4978 0 60.6393 0H5.66949C2.81094 0 0.485352 2.32559 0.485352 5.18414V77.1244C0.485352 79.9829 2.81094 82.3085 5.66949 82.3085H8.17666V84.8157C8.17666 87.6742 10.5022 89.9998 13.3608 89.9998H68.3304C71.189 89.9998 73.5145 87.6742 73.5145 84.8157V78.1594C73.5145 77.4313 72.9243 76.8412 72.1964 76.8412C71.4685 76.8412 70.8782 77.4315 70.8782 78.1594V84.8159C70.8782 86.2207 69.7353 87.3635 68.3306 87.3635H13.361C11.9561 87.3635 10.8134 86.2207 10.8134 84.8159V12.8756C10.8134 11.4708 11.9563 10.328 13.361 10.328H68.3306C69.7354 10.328 70.8782 11.471 70.8782 12.8756V71.9967C70.8782 72.7246 71.4685 73.3148 72.1965 73.3148ZM8.17666 12.8756V79.6721H5.66949C4.26465 79.6721 3.12189 78.5292 3.12189 77.1245V5.18414C3.12189 3.7793 4.26482 2.63654 5.66949 2.63654H60.6393C62.0441 2.63654 63.1869 3.77947 63.1869 5.18414V7.69131H13.361C10.5024 7.69148 8.17666 10.0171 8.17666 12.8756Z" fill="#969696"/>
<path d="M17.1361 26.0424C16.408 26.0424 15.8179 26.6327 15.8179 27.3606V37.3164C15.8179 39.3837 17.3636 41.1064 19.4155 41.3287C19.9127 41.3831 34.121 41.3307 34.1421 41.3305C34.1468 41.33 34.1517 41.3294 34.1565 41.3289C36.2094 41.1074 37.7559 39.3844 37.7559 37.3164V20.1227C37.7559 17.8971 35.9454 16.0865 33.7198 16.0865H19.8539C17.6283 16.0865 15.8177 17.8971 15.8177 20.1227V21.1547C15.8177 21.8828 16.408 22.4729 17.1359 22.4729C17.8638 22.4729 18.4541 21.8826 18.4541 21.1547V20.1227C18.4541 19.351 19.082 18.7231 19.8537 18.7231H33.7197C34.4913 18.7231 35.1192 19.3508 35.1192 20.1227V33.619C34.112 32.5522 32.9042 31.6838 31.5544 31.0686C32.1202 30.1772 32.434 29.1329 32.434 28.0437C32.434 24.9299 29.9006 22.3966 26.7867 22.3966C23.6729 22.3966 21.1395 24.9299 21.1395 28.0437C21.1395 29.133 21.4533 30.1772 22.0191 31.0686C20.6691 31.6838 19.4613 32.5522 18.4541 33.6191V27.3606C18.4543 26.6325 17.8642 26.0424 17.1361 26.0424ZM26.7868 25.0329C28.4471 25.0329 29.7976 26.3835 29.7976 28.0437C29.7976 29.0494 29.2981 29.9849 28.4615 30.5463C27.966 30.8787 27.387 31.0545 26.7868 31.0545C26.1867 31.0545 25.6077 30.8789 25.1124 30.5463C24.2756 29.9849 23.7762 29.0494 23.7762 28.0437C23.7762 26.3835 25.1268 25.0329 26.7868 25.0329ZM24.196 33.0582C24.9937 33.4713 25.877 33.6909 26.7868 33.6909C27.6965 33.6909 28.5798 33.4713 29.3777 33.0582C31.8733 33.8211 33.8928 35.6434 34.912 38.052C34.6921 38.4095 34.315 38.6609 33.8696 38.7078C33.7845 38.7131 19.9347 38.7272 19.7343 38.7106L19.7055 38.708C19.7048 38.708 19.7041 38.7078 19.7034 38.7078C19.2581 38.6607 18.8814 38.4094 18.6615 38.052C19.6809 35.6434 21.7004 33.8211 24.196 33.0582Z" fill="#969696"/>
</svg>
