<svg width="90" height="90" viewBox="0 0 90 90" fill="none" xmlns="http://www.w3.org/2000/svg">
<g clip-path="url(#clip0)">
<path d="M44.6023 90.0004C44.1111 90.0004 43.6311 89.8054 43.2748 89.4529C42.8323 89.0104 42.6373 88.3729 42.7611 87.7616L45.4123 74.5054C45.4873 74.1379 45.6598 73.8041 45.9261 73.5454L75.0936 44.3779C77.2836 42.1879 80.8573 42.1879 83.0473 44.3779L88.3498 49.6804C90.5436 51.8741 90.5436 55.4404 88.3498 57.6341L59.1823 86.8016C58.9236 87.0641 58.5898 87.2404 58.2223 87.3154L44.9661 89.9666C44.8461 89.9891 44.7223 90.0004 44.6023 90.0004ZM48.9823 75.7916L46.9948 85.7329L56.9361 83.7454L85.7023 54.9791C86.4336 54.2479 86.4336 53.0591 85.7023 52.3279L80.3998 47.0254C79.6686 46.2941 78.4798 46.2941 77.7486 47.0254L48.9823 75.7916ZM57.8586 85.4741H57.8961H57.8586Z" fill="#969696" stroke="white" stroke-width="0.3"/>
<path d="M35.625 78.75H9.375C4.20375 78.75 0 74.5462 0 69.375V20.625C0 15.4538 4.20375 11.25 9.375 11.25H16.875C17.91 11.25 18.75 12.09 18.75 13.125C18.75 14.16 17.91 15 16.875 15H9.375C6.27375 15 3.75 17.5237 3.75 20.625V69.375C3.75 72.4762 6.27375 75 9.375 75H35.625C36.66 75 37.5 75.84 37.5 76.875C37.5 77.91 36.66 78.75 35.625 78.75Z" fill="#969696" stroke="white" stroke-width="0.3"/>
<path d="M61.875 45C60.84 45 60 44.16 60 43.125V20.625C60 17.5237 57.4762 15 54.375 15H46.875C45.84 15 45 14.16 45 13.125C45 12.09 45.84 11.25 46.875 11.25H54.375C59.5462 11.25 63.75 15.4538 63.75 20.625V43.125C63.75 44.16 62.91 45 61.875 45Z" fill="#969696" stroke="white" stroke-width="0.3"/>
<path d="M43.1251 22.5H20.6251C17.5238 22.5 15.0001 19.9762 15.0001 16.875V9.375C15.0001 8.34 15.8401 7.5 16.8751 7.5H22.6876C23.5576 3.225 27.3488 0 31.8751 0C36.4013 0 40.1926 3.225 41.0626 7.5H46.8751C47.9101 7.5 48.7501 8.34 48.7501 9.375V16.875C48.7501 19.9762 46.2263 22.5 43.1251 22.5ZM18.7501 11.25V16.875C18.7501 17.9062 19.5938 18.75 20.6251 18.75H43.1251C44.1563 18.75 45.0001 17.9062 45.0001 16.875V11.25H39.3751C38.3401 11.25 37.5001 10.41 37.5001 9.375C37.5001 6.27375 34.9763 3.75 31.8751 3.75C28.7738 3.75 26.2501 6.27375 26.2501 9.375C26.2501 10.41 25.4101 11.25 24.3751 11.25H18.7501Z" fill="#969696" stroke="white" stroke-width="0.3"/>
<path d="M50.625 33.75H13.125C12.09 33.75 11.25 32.91 11.25 31.875C11.25 30.84 12.09 30 13.125 30H50.625C51.66 30 52.5 30.84 52.5 31.875C52.5 32.91 51.66 33.75 50.625 33.75Z" fill="#969696" stroke="white" stroke-width="0.3"/>
<path d="M50.625 45H13.125C12.09 45 11.25 44.16 11.25 43.125C11.25 42.09 12.09 41.25 13.125 41.25H50.625C51.66 41.25 52.5 42.09 52.5 43.125C52.5 44.16 51.66 45 50.625 45Z" fill="#969696" stroke="white" stroke-width="0.3"/>
<path d="M50.625 56.25H13.125C12.09 56.25 11.25 55.41 11.25 54.375C11.25 53.34 12.09 52.5 13.125 52.5H50.625C51.66 52.5 52.5 53.34 52.5 54.375C52.5 55.41 51.66 56.25 50.625 56.25Z" fill="#969696" stroke="white" stroke-width="0.3"/>
</g>
<defs>
<clipPath id="clip0">
<rect width="90" height="90" fill="white"/>
</clipPath>
</defs>
</svg>
