<svg width="97" height="94" viewBox="0 0 97 94" fill="none" xmlns="http://www.w3.org/2000/svg">
<mask id="path-1-inside-1" fill="white">
<path d="M85.3735 76.1258C87.4667 74.4399 88.8126 71.8597 88.8126 68.9687C88.8126 63.9018 84.692 59.7812 79.6251 59.7812C74.5582 59.7812 70.4376 63.9018 70.4376 68.9687C70.4376 71.8597 71.7836 74.4399 73.8768 76.1258C70.6091 77.3171 67.8116 79.4838 65.8439 82.2845V81.2187C65.8439 73.9514 61.2088 67.7636 54.7485 65.407C56.1557 64.2754 57.226 62.7411 57.7742 60.9771C58.3974 61.1854 59.0497 61.3125 59.7189 61.3125C63.0968 61.3125 65.8439 58.5654 65.8439 55.1875V51.5982L70.5816 56.3359C71.5478 57.3036 72.6962 57.9315 73.8998 58.1474C74.2841 58.2163 74.667 58.2515 75.0467 58.2515C76.6652 58.2515 78.195 57.6252 79.3633 56.4569C80.5179 55.2992 81.1564 53.7619 81.1564 52.125C81.1564 50.4881 80.5179 48.9507 79.4521 47.8926L67.8774 34.0884C66.1915 32.0778 64.2162 30.3368 62.0066 28.9158L46.7232 19.0898C44.5488 17.6917 42.0421 16.8021 39.4758 16.5188L32.429 15.7363L34.3216 13.8437L21.4376 0.959778L0.897461 21.5L13.7814 34.3839L14.8931 33.2722L16.579 36.6425C17.9525 39.3896 19.7502 41.8824 21.9215 44.0537C22.9704 45.1026 24.1112 46.0781 25.3117 46.9524L39.0501 56.9438C39.3089 57.1321 39.5814 57.2929 39.8586 57.4415C39.8356 57.7094 39.8126 57.9789 39.8126 58.25C39.8126 61.141 41.1586 63.7211 43.2518 65.407C36.7915 67.7636 32.1564 73.9514 32.1564 81.2187V82.2829C30.1887 79.4823 27.3911 77.3171 24.1235 76.1242C26.2167 74.4399 27.5626 71.8597 27.5626 68.9687C27.5626 63.9018 23.4421 59.7812 18.3751 59.7812C13.3082 59.7812 9.18765 63.9018 9.18765 68.9687C9.18765 71.8597 10.5336 74.4399 12.6268 76.1258C6.16649 78.4824 1.5314 84.6702 1.5314 91.9375V93.4687H35.2189V91.9375C35.2189 88.5473 34.2037 85.3944 32.4749 82.75H65.5269C63.7966 85.3944 62.7814 88.5473 62.7814 91.9375V93.4687H96.4689V91.9375C96.4689 84.6702 91.8338 78.4824 85.3735 76.1258ZM12.2501 68.9687C12.2501 65.5908 14.9972 62.8437 18.3751 62.8437C21.7531 62.8437 24.5001 65.5908 24.5001 68.9687C24.5001 72.3466 21.7531 75.0937 18.3751 75.0937C14.9972 75.0937 12.2501 72.3466 12.2501 68.9687ZM22.6397 78.8453L18.3751 83.5355L14.1106 78.8453C15.4566 78.4058 16.8852 78.1562 18.3751 78.1562C19.8651 78.1562 21.2937 78.4058 22.6397 78.8453ZM4.67812 90.4062C5.15893 86.082 7.64874 82.358 11.189 80.1851L18.3751 88.0894L25.5598 80.1851C29.1 82.358 31.5914 86.082 32.0706 90.4062H4.67812ZM50.0996 49.1344C49.7229 48.0794 49.1196 47.1101 48.2713 46.346L37.061 36.2566L48.8899 39.483C49.5529 39.6636 50.1792 39.9485 50.7519 40.3297C52.5312 41.518 53.5939 43.504 53.5939 45.6432V50.3058C52.5419 49.6949 51.3613 49.286 50.0996 49.1344ZM77.1966 49.9598C77.7754 50.5386 78.0939 51.3073 78.0939 52.125C78.0939 52.9426 77.7754 53.7113 77.1966 54.2902C76.4754 55.0129 75.4755 55.3161 74.4434 55.1339C73.7038 55.0007 73.1127 54.5367 72.7483 54.1707L65.8439 47.2678V36.4281L77.1966 49.9598ZM5.22784 21.5L21.4376 5.29015L29.9912 13.8437L13.7814 30.0535L5.22784 21.5ZM27.114 44.4764C26.0421 43.6954 25.0223 42.8257 24.0867 41.8901C22.1481 39.9515 20.5449 37.7266 19.3184 35.2736L17.1762 30.9907L29.6574 18.5094L39.1389 19.5645C41.2398 19.7972 43.2901 20.5246 45.0694 21.6684L60.3528 31.4944C61.2057 32.0426 62.0127 32.6551 62.7829 33.309V55.1875C62.7829 56.8764 61.4094 58.25 59.7204 58.25C59.1676 58.25 58.6348 58.0984 58.1677 57.8227C58.0881 56.1139 57.5491 54.5244 56.6579 53.1815V45.6417C56.6579 42.4766 55.0853 39.5381 52.4516 37.7817C51.6033 37.2167 50.6769 36.7941 49.6969 36.5276L34.0934 32.2723C33.6325 32.1483 33.141 32.2432 32.7612 32.5326C32.38 32.8236 32.1564 33.2722 32.1564 33.75V35.2812C32.1564 35.7161 32.3401 36.1295 32.6632 36.4189L46.2225 48.6215C47.0141 49.335 47.4689 50.3548 47.4689 51.4221C47.4689 53.497 45.7784 55.1875 43.7036 55.1875H43.0666C42.2657 55.1875 41.5001 54.9379 40.8524 54.4678L27.114 44.4764ZM42.8751 58.25C42.8751 58.2454 42.8767 58.2408 42.8767 58.2347C42.941 58.2362 43.0022 58.25 43.0666 58.25H43.7036C47.1626 58.25 49.9985 55.6545 50.4426 52.3148C53.1223 52.9672 55.1251 55.3712 55.1251 58.25C55.1251 61.6279 52.3781 64.375 49.0001 64.375C45.6222 64.375 42.8751 61.6279 42.8751 58.25ZM53.2647 68.1265L49.0001 72.8167L44.7356 68.1265C46.0816 67.6871 47.5102 67.4375 49.0001 67.4375C50.4901 67.4375 51.9187 67.6871 53.2647 68.1265ZM35.3031 79.6875C35.7839 75.3632 38.2737 71.6392 41.814 69.4664L49.0001 77.3707L56.1848 69.4664C59.725 71.6392 62.2164 75.3632 62.6956 79.6875H35.3031ZM73.5001 68.9687C73.5001 65.5908 76.2472 62.8437 79.6251 62.8437C83.0031 62.8437 85.7501 65.5908 85.7501 68.9687C85.7501 72.3466 83.0031 75.0937 79.6251 75.0937C76.2472 75.0937 73.5001 72.3466 73.5001 68.9687ZM83.8897 78.8453L79.6251 83.5355L75.3606 78.8453C76.7066 78.4058 78.1352 78.1562 79.6251 78.1562C81.1151 78.1562 82.5437 78.4058 83.8897 78.8453ZM65.9281 90.4062C66.4089 86.082 68.8987 82.358 72.439 80.1851L79.6251 88.0894L86.8098 80.1851C90.35 82.358 92.8414 86.082 93.3206 90.4062H65.9281Z"/>
</mask>
<path d="M85.3735 76.1258C87.4667 74.4399 88.8126 71.8597 88.8126 68.9687C88.8126 63.9018 84.692 59.7812 79.6251 59.7812C74.5582 59.7812 70.4376 63.9018 70.4376 68.9687C70.4376 71.8597 71.7836 74.4399 73.8768 76.1258C70.6091 77.3171 67.8116 79.4838 65.8439 82.2845V81.2187C65.8439 73.9514 61.2088 67.7636 54.7485 65.407C56.1557 64.2754 57.226 62.7411 57.7742 60.9771C58.3974 61.1854 59.0497 61.3125 59.7189 61.3125C63.0968 61.3125 65.8439 58.5654 65.8439 55.1875V51.5982L70.5816 56.3359C71.5478 57.3036 72.6962 57.9315 73.8998 58.1474C74.2841 58.2163 74.667 58.2515 75.0467 58.2515C76.6652 58.2515 78.195 57.6252 79.3633 56.4569C80.5179 55.2992 81.1564 53.7619 81.1564 52.125C81.1564 50.4881 80.5179 48.9507 79.4521 47.8926L67.8774 34.0884C66.1915 32.0778 64.2162 30.3368 62.0066 28.9158L46.7232 19.0898C44.5488 17.6917 42.0421 16.8021 39.4758 16.5188L32.429 15.7363L34.3216 13.8437L21.4376 0.959778L0.897461 21.5L13.7814 34.3839L14.8931 33.2722L16.579 36.6425C17.9525 39.3896 19.7502 41.8824 21.9215 44.0537C22.9704 45.1026 24.1112 46.0781 25.3117 46.9524L39.0501 56.9438C39.3089 57.1321 39.5814 57.2929 39.8586 57.4415C39.8356 57.7094 39.8126 57.9789 39.8126 58.25C39.8126 61.141 41.1586 63.7211 43.2518 65.407C36.7915 67.7636 32.1564 73.9514 32.1564 81.2187V82.2829C30.1887 79.4823 27.3911 77.3171 24.1235 76.1242C26.2167 74.4399 27.5626 71.8597 27.5626 68.9687C27.5626 63.9018 23.4421 59.7812 18.3751 59.7812C13.3082 59.7812 9.18765 63.9018 9.18765 68.9687C9.18765 71.8597 10.5336 74.4399 12.6268 76.1258C6.16649 78.4824 1.5314 84.6702 1.5314 91.9375V93.4687H35.2189V91.9375C35.2189 88.5473 34.2037 85.3944 32.4749 82.75H65.5269C63.7966 85.3944 62.7814 88.5473 62.7814 91.9375V93.4687H96.4689V91.9375C96.4689 84.6702 91.8338 78.4824 85.3735 76.1258ZM12.2501 68.9687C12.2501 65.5908 14.9972 62.8437 18.3751 62.8437C21.7531 62.8437 24.5001 65.5908 24.5001 68.9687C24.5001 72.3466 21.7531 75.0937 18.3751 75.0937C14.9972 75.0937 12.2501 72.3466 12.2501 68.9687ZM22.6397 78.8453L18.3751 83.5355L14.1106 78.8453C15.4566 78.4058 16.8852 78.1562 18.3751 78.1562C19.8651 78.1562 21.2937 78.4058 22.6397 78.8453ZM4.67812 90.4062C5.15893 86.082 7.64874 82.358 11.189 80.1851L18.3751 88.0894L25.5598 80.1851C29.1 82.358 31.5914 86.082 32.0706 90.4062H4.67812ZM50.0996 49.1344C49.7229 48.0794 49.1196 47.1101 48.2713 46.346L37.061 36.2566L48.8899 39.483C49.5529 39.6636 50.1792 39.9485 50.7519 40.3297C52.5312 41.518 53.5939 43.504 53.5939 45.6432V50.3058C52.5419 49.6949 51.3613 49.286 50.0996 49.1344ZM77.1966 49.9598C77.7754 50.5386 78.0939 51.3073 78.0939 52.125C78.0939 52.9426 77.7754 53.7113 77.1966 54.2902C76.4754 55.0129 75.4755 55.3161 74.4434 55.1339C73.7038 55.0007 73.1127 54.5367 72.7483 54.1707L65.8439 47.2678V36.4281L77.1966 49.9598ZM5.22784 21.5L21.4376 5.29015L29.9912 13.8437L13.7814 30.0535L5.22784 21.5ZM27.114 44.4764C26.0421 43.6954 25.0223 42.8257 24.0867 41.8901C22.1481 39.9515 20.5449 37.7266 19.3184 35.2736L17.1762 30.9907L29.6574 18.5094L39.1389 19.5645C41.2398 19.7972 43.2901 20.5246 45.0694 21.6684L60.3528 31.4944C61.2057 32.0426 62.0127 32.6551 62.7829 33.309V55.1875C62.7829 56.8764 61.4094 58.25 59.7204 58.25C59.1676 58.25 58.6348 58.0984 58.1677 57.8227C58.0881 56.1139 57.5491 54.5244 56.6579 53.1815V45.6417C56.6579 42.4766 55.0853 39.5381 52.4516 37.7817C51.6033 37.2167 50.6769 36.7941 49.6969 36.5276L34.0934 32.2723C33.6325 32.1483 33.141 32.2432 32.7612 32.5326C32.38 32.8236 32.1564 33.2722 32.1564 33.75V35.2812C32.1564 35.7161 32.3401 36.1295 32.6632 36.4189L46.2225 48.6215C47.0141 49.335 47.4689 50.3548 47.4689 51.4221C47.4689 53.497 45.7784 55.1875 43.7036 55.1875H43.0666C42.2657 55.1875 41.5001 54.9379 40.8524 54.4678L27.114 44.4764ZM42.8751 58.25C42.8751 58.2454 42.8767 58.2408 42.8767 58.2347C42.941 58.2362 43.0022 58.25 43.0666 58.25H43.7036C47.1626 58.25 49.9985 55.6545 50.4426 52.3148C53.1223 52.9672 55.1251 55.3712 55.1251 58.25C55.1251 61.6279 52.3781 64.375 49.0001 64.375C45.6222 64.375 42.8751 61.6279 42.8751 58.25ZM53.2647 68.1265L49.0001 72.8167L44.7356 68.1265C46.0816 67.6871 47.5102 67.4375 49.0001 67.4375C50.4901 67.4375 51.9187 67.6871 53.2647 68.1265ZM35.3031 79.6875C35.7839 75.3632 38.2737 71.6392 41.814 69.4664L49.0001 77.3707L56.1848 69.4664C59.725 71.6392 62.2164 75.3632 62.6956 79.6875H35.3031ZM73.5001 68.9687C73.5001 65.5908 76.2472 62.8437 79.6251 62.8437C83.0031 62.8437 85.7501 65.5908 85.7501 68.9687C85.7501 72.3466 83.0031 75.0937 79.6251 75.0937C76.2472 75.0937 73.5001 72.3466 73.5001 68.9687ZM83.8897 78.8453L79.6251 83.5355L75.3606 78.8453C76.7066 78.4058 78.1352 78.1562 79.6251 78.1562C81.1151 78.1562 82.5437 78.4058 83.8897 78.8453ZM65.9281 90.4062C66.4089 86.082 68.8987 82.358 72.439 80.1851L79.6251 88.0894L86.8098 80.1851C90.35 82.358 92.8414 86.082 93.3206 90.4062H65.9281Z" fill="#969696" stroke="white" mask="url(#path-1-inside-1)"/>
</svg>
