<svg width="98" height="98" viewBox="0 0 98 98" fill="none" xmlns="http://www.w3.org/2000/svg">
<mask id="path-1-inside-1" fill="white">
<path d="M85.3735 79.126C87.4667 77.44 88.8126 74.8599 88.8126 71.9689C88.8126 66.902 84.692 62.7814 79.6251 62.7814C74.5582 62.7814 70.4376 66.902 70.4376 71.9689C70.4376 74.8599 71.7836 77.44 73.8768 79.126C70.6091 80.3173 67.8116 82.484 65.8439 85.2846V84.2189C65.8439 76.9516 61.2088 70.7638 54.7485 68.4072C56.1557 67.2756 57.226 65.7413 57.7742 63.9773C58.3974 64.1856 59.0497 64.3126 59.7189 64.3126C63.0968 64.3126 65.8439 61.5656 65.8439 58.1876V54.5984L70.5816 59.3361C71.5478 60.3038 72.6962 60.9316 73.8998 61.1475C74.2841 61.2165 74.667 61.2517 75.0467 61.2517C76.6652 61.2517 78.195 60.6254 79.3633 59.4571C80.5179 58.2994 81.1564 56.7621 81.1564 55.1251C81.1564 53.4882 80.5179 51.9509 79.4521 50.8928L67.8774 37.0886C66.1915 35.078 64.2162 33.337 62.0066 31.916L46.7232 22.09C44.5488 20.6919 42.0421 19.8023 39.4758 19.519L32.429 18.7365L34.3216 16.8439L21.4376 3.95996L0.897461 24.5001L13.7814 37.3841L14.8931 36.2724L16.579 39.6427C17.9525 42.3897 19.7502 44.8826 21.9215 47.0539C22.9704 48.1028 24.1112 49.0782 25.3117 49.9526L39.0501 59.944C39.3089 60.1323 39.5814 60.2931 39.8586 60.4416C39.8356 60.7096 39.8126 60.9791 39.8126 61.2501C39.8126 64.1411 41.1586 66.7213 43.2518 68.4072C36.7915 70.7638 32.1564 76.9516 32.1564 84.2189V85.2831C30.1887 82.4825 27.3911 80.3173 24.1235 79.1244C26.2167 77.44 27.5626 74.8599 27.5626 71.9689C27.5626 66.902 23.4421 62.7814 18.3751 62.7814C13.3082 62.7814 9.18765 66.902 9.18765 71.9689C9.18765 74.8599 10.5336 77.44 12.6268 79.126C6.16649 81.4826 1.5314 87.6703 1.5314 94.9376V96.4689H35.2189V94.9376C35.2189 91.5475 34.2037 88.3946 32.4749 85.7501H65.5269C63.7966 88.3946 62.7814 91.5475 62.7814 94.9376V96.4689H96.4689V94.9376C96.4689 87.6703 91.8338 81.4826 85.3735 79.126ZM12.2501 71.9689C12.2501 68.591 14.9972 65.8439 18.3751 65.8439C21.7531 65.8439 24.5001 68.591 24.5001 71.9689C24.5001 75.3468 21.7531 78.0939 18.3751 78.0939C14.9972 78.0939 12.2501 75.3468 12.2501 71.9689ZM22.6397 81.8455L18.3751 86.5357L14.1106 81.8455C15.4566 81.406 16.8852 81.1564 18.3751 81.1564C19.8651 81.1564 21.2937 81.406 22.6397 81.8455ZM4.67812 93.4064C5.15893 89.0821 7.64874 85.3581 11.189 83.1853L18.3751 91.0896L25.5598 83.1853C29.1 85.3581 31.5914 89.0821 32.0706 93.4064H4.67812ZM50.0996 52.1346C49.7229 51.0796 49.1196 50.1103 48.2713 49.3462L37.061 39.2568L48.8899 42.4831C49.5529 42.6638 50.1792 42.9486 50.7519 43.3299C52.5312 44.5182 53.5939 46.5042 53.5939 48.6434V53.306C52.5419 52.6951 51.3613 52.2862 50.0996 52.1346ZM77.1966 52.96C77.7754 53.5388 78.0939 54.3075 78.0939 55.1251C78.0939 55.9428 77.7754 56.7115 77.1966 57.2903C76.4754 58.0131 75.4755 58.3163 74.4434 58.1341C73.7038 58.0008 73.1127 57.5369 72.7483 57.1709L65.8439 50.268V39.4283L77.1966 52.96ZM5.22784 24.5001L21.4376 8.29034L29.9912 16.8439L13.7814 33.0537L5.22784 24.5001ZM27.114 47.4766C26.0421 46.6956 25.0223 45.8259 24.0867 44.8903C22.1481 42.9517 20.5449 40.7268 19.3184 38.2737L17.1762 33.9908L29.6574 21.5096L39.1389 22.5646C41.2398 22.7974 43.2901 23.5247 45.0694 24.6686L60.3528 34.4946C61.2057 35.0428 62.0127 35.6553 62.7829 36.3091V58.1876C62.7829 59.8766 61.4094 61.2501 59.7204 61.2501C59.1676 61.2501 58.6348 61.0986 58.1677 60.8229C58.0881 59.1141 57.5491 57.5246 56.6579 56.1817V48.6418C56.6579 45.4767 55.0853 42.5383 52.4516 40.7819C51.6033 40.2169 50.6769 39.7943 49.6969 39.5278L34.0934 35.2725C33.6325 35.1485 33.141 35.2434 32.7612 35.5328C32.38 35.8237 32.1564 36.2724 32.1564 36.7501V38.2814C32.1564 38.7163 32.3401 39.1297 32.6632 39.4191L46.2225 51.6216C47.0141 52.3352 47.4689 53.355 47.4689 54.4223C47.4689 56.4971 45.7784 58.1876 43.7036 58.1876H43.0666C42.2657 58.1876 41.5001 57.938 40.8524 57.468L27.114 47.4766ZM42.8751 61.2501C42.8751 61.2456 42.8767 61.241 42.8767 61.2348C42.941 61.2364 43.0022 61.2501 43.0666 61.2501H43.7036C47.1626 61.2501 49.9985 58.6547 50.4426 55.315C53.1223 55.9673 55.1251 58.3714 55.1251 61.2501C55.1251 64.6281 52.3781 67.3751 49.0001 67.3751C45.6222 67.3751 42.8751 64.6281 42.8751 61.2501ZM53.2647 71.1267L49.0001 75.8169L44.7356 71.1267C46.0816 70.6872 47.5102 70.4376 49.0001 70.4376C50.4901 70.4376 51.9187 70.6872 53.2647 71.1267ZM35.3031 82.6876C35.7839 78.3634 38.2737 74.6394 41.814 72.4666L49.0001 80.3709L56.1848 72.4666C59.725 74.6394 62.2164 78.3634 62.6956 82.6876H35.3031ZM73.5001 71.9689C73.5001 68.591 76.2472 65.8439 79.6251 65.8439C83.0031 65.8439 85.7501 68.591 85.7501 71.9689C85.7501 75.3468 83.0031 78.0939 79.6251 78.0939C76.2472 78.0939 73.5001 75.3468 73.5001 71.9689ZM83.8897 81.8455L79.6251 86.5357L75.3606 81.8455C76.7066 81.406 78.1352 81.1564 79.6251 81.1564C81.1151 81.1564 82.5437 81.406 83.8897 81.8455ZM65.9281 93.4064C66.4089 89.0821 68.8987 85.3581 72.439 83.1853L79.6251 91.0896L86.8098 83.1853C90.35 85.3581 92.8414 89.0821 93.3206 93.4064H65.9281Z"/>
</mask>
<path d="M85.3735 79.126C87.4667 77.44 88.8126 74.8599 88.8126 71.9689C88.8126 66.902 84.692 62.7814 79.6251 62.7814C74.5582 62.7814 70.4376 66.902 70.4376 71.9689C70.4376 74.8599 71.7836 77.44 73.8768 79.126C70.6091 80.3173 67.8116 82.484 65.8439 85.2846V84.2189C65.8439 76.9516 61.2088 70.7638 54.7485 68.4072C56.1557 67.2756 57.226 65.7413 57.7742 63.9773C58.3974 64.1856 59.0497 64.3126 59.7189 64.3126C63.0968 64.3126 65.8439 61.5656 65.8439 58.1876V54.5984L70.5816 59.3361C71.5478 60.3038 72.6962 60.9316 73.8998 61.1475C74.2841 61.2165 74.667 61.2517 75.0467 61.2517C76.6652 61.2517 78.195 60.6254 79.3633 59.4571C80.5179 58.2994 81.1564 56.7621 81.1564 55.1251C81.1564 53.4882 80.5179 51.9509 79.4521 50.8928L67.8774 37.0886C66.1915 35.078 64.2162 33.337 62.0066 31.916L46.7232 22.09C44.5488 20.6919 42.0421 19.8023 39.4758 19.519L32.429 18.7365L34.3216 16.8439L21.4376 3.95996L0.897461 24.5001L13.7814 37.3841L14.8931 36.2724L16.579 39.6427C17.9525 42.3897 19.7502 44.8826 21.9215 47.0539C22.9704 48.1028 24.1112 49.0782 25.3117 49.9526L39.0501 59.944C39.3089 60.1323 39.5814 60.2931 39.8586 60.4416C39.8356 60.7096 39.8126 60.9791 39.8126 61.2501C39.8126 64.1411 41.1586 66.7213 43.2518 68.4072C36.7915 70.7638 32.1564 76.9516 32.1564 84.2189V85.2831C30.1887 82.4825 27.3911 80.3173 24.1235 79.1244C26.2167 77.44 27.5626 74.8599 27.5626 71.9689C27.5626 66.902 23.4421 62.7814 18.3751 62.7814C13.3082 62.7814 9.18765 66.902 9.18765 71.9689C9.18765 74.8599 10.5336 77.44 12.6268 79.126C6.16649 81.4826 1.5314 87.6703 1.5314 94.9376V96.4689H35.2189V94.9376C35.2189 91.5475 34.2037 88.3946 32.4749 85.7501H65.5269C63.7966 88.3946 62.7814 91.5475 62.7814 94.9376V96.4689H96.4689V94.9376C96.4689 87.6703 91.8338 81.4826 85.3735 79.126ZM12.2501 71.9689C12.2501 68.591 14.9972 65.8439 18.3751 65.8439C21.7531 65.8439 24.5001 68.591 24.5001 71.9689C24.5001 75.3468 21.7531 78.0939 18.3751 78.0939C14.9972 78.0939 12.2501 75.3468 12.2501 71.9689ZM22.6397 81.8455L18.3751 86.5357L14.1106 81.8455C15.4566 81.406 16.8852 81.1564 18.3751 81.1564C19.8651 81.1564 21.2937 81.406 22.6397 81.8455ZM4.67812 93.4064C5.15893 89.0821 7.64874 85.3581 11.189 83.1853L18.3751 91.0896L25.5598 83.1853C29.1 85.3581 31.5914 89.0821 32.0706 93.4064H4.67812ZM50.0996 52.1346C49.7229 51.0796 49.1196 50.1103 48.2713 49.3462L37.061 39.2568L48.8899 42.4831C49.5529 42.6638 50.1792 42.9486 50.7519 43.3299C52.5312 44.5182 53.5939 46.5042 53.5939 48.6434V53.306C52.5419 52.6951 51.3613 52.2862 50.0996 52.1346ZM77.1966 52.96C77.7754 53.5388 78.0939 54.3075 78.0939 55.1251C78.0939 55.9428 77.7754 56.7115 77.1966 57.2903C76.4754 58.0131 75.4755 58.3163 74.4434 58.1341C73.7038 58.0008 73.1127 57.5369 72.7483 57.1709L65.8439 50.268V39.4283L77.1966 52.96ZM5.22784 24.5001L21.4376 8.29034L29.9912 16.8439L13.7814 33.0537L5.22784 24.5001ZM27.114 47.4766C26.0421 46.6956 25.0223 45.8259 24.0867 44.8903C22.1481 42.9517 20.5449 40.7268 19.3184 38.2737L17.1762 33.9908L29.6574 21.5096L39.1389 22.5646C41.2398 22.7974 43.2901 23.5247 45.0694 24.6686L60.3528 34.4946C61.2057 35.0428 62.0127 35.6553 62.7829 36.3091V58.1876C62.7829 59.8766 61.4094 61.2501 59.7204 61.2501C59.1676 61.2501 58.6348 61.0986 58.1677 60.8229C58.0881 59.1141 57.5491 57.5246 56.6579 56.1817V48.6418C56.6579 45.4767 55.0853 42.5383 52.4516 40.7819C51.6033 40.2169 50.6769 39.7943 49.6969 39.5278L34.0934 35.2725C33.6325 35.1485 33.141 35.2434 32.7612 35.5328C32.38 35.8237 32.1564 36.2724 32.1564 36.7501V38.2814C32.1564 38.7163 32.3401 39.1297 32.6632 39.4191L46.2225 51.6216C47.0141 52.3352 47.4689 53.355 47.4689 54.4223C47.4689 56.4971 45.7784 58.1876 43.7036 58.1876H43.0666C42.2657 58.1876 41.5001 57.938 40.8524 57.468L27.114 47.4766ZM42.8751 61.2501C42.8751 61.2456 42.8767 61.241 42.8767 61.2348C42.941 61.2364 43.0022 61.2501 43.0666 61.2501H43.7036C47.1626 61.2501 49.9985 58.6547 50.4426 55.315C53.1223 55.9673 55.1251 58.3714 55.1251 61.2501C55.1251 64.6281 52.3781 67.3751 49.0001 67.3751C45.6222 67.3751 42.8751 64.6281 42.8751 61.2501ZM53.2647 71.1267L49.0001 75.8169L44.7356 71.1267C46.0816 70.6872 47.5102 70.4376 49.0001 70.4376C50.4901 70.4376 51.9187 70.6872 53.2647 71.1267ZM35.3031 82.6876C35.7839 78.3634 38.2737 74.6394 41.814 72.4666L49.0001 80.3709L56.1848 72.4666C59.725 74.6394 62.2164 78.3634 62.6956 82.6876H35.3031ZM73.5001 71.9689C73.5001 68.591 76.2472 65.8439 79.6251 65.8439C83.0031 65.8439 85.7501 68.591 85.7501 71.9689C85.7501 75.3468 83.0031 78.0939 79.6251 78.0939C76.2472 78.0939 73.5001 75.3468 73.5001 71.9689ZM83.8897 81.8455L79.6251 86.5357L75.3606 81.8455C76.7066 81.406 78.1352 81.1564 79.6251 81.1564C81.1151 81.1564 82.5437 81.406 83.8897 81.8455ZM65.9281 93.4064C66.4089 89.0821 68.8987 85.3581 72.439 83.1853L79.6251 91.0896L86.8098 83.1853C90.35 85.3581 92.8414 89.0821 93.3206 93.4064H65.9281Z" fill="#969696" stroke="white" mask="url(#path-1-inside-1)"/>
<path d="M82.8644 13.3237L93.855 2.33305L95.6666 4.14468L82.6876 17.1237L78.896 13.3322L80.7077 11.5205L82.5108 13.3237L82.6876 13.5005L82.8644 13.3237Z" fill="#969696" stroke="white" stroke-width="0.5"/>
<path d="M87.0312 26.0312C87.0312 28.4259 85.0821 30.375 82.6875 30.375C80.2929 30.375 78.3438 28.4259 78.3438 26.0312C78.3438 23.6366 80.2929 21.6875 82.6875 21.6875C85.0821 21.6875 87.0312 23.6366 87.0312 26.0312ZM84.4688 26.0312C84.4688 25.0495 83.6693 24.25 82.6875 24.25C81.7057 24.25 80.9062 25.0495 80.9062 26.0312C80.9062 27.013 81.7057 27.8125 82.6875 27.8125C83.6693 27.8125 84.4688 27.013 84.4688 26.0312Z" fill="#969696" stroke="white" stroke-width="0.5"/>
<path d="M56.9062 12.5H74.7812V15.0625H56.9062V12.5Z" fill="#969696" stroke="white" stroke-width="0.5"/>
<path d="M56.9062 24.75H68.6562V27.3125H56.9062V24.75Z" fill="#969696" stroke="white" stroke-width="0.5"/>
<path d="M72.2188 24.75H74.7812V27.3125H72.2188V24.75Z" fill="#969696" stroke="white" stroke-width="0.5"/>
<path d="M56.9062 18.625H74.7812V21.1875H56.9062V18.625Z" fill="#969696" stroke="white" stroke-width="0.5"/>
</svg>
