<svg width="511" height="502" viewBox="0 0 511 502" fill="none" xmlns="http://www.w3.org/2000/svg">
<g clip-path="url(#clip0)">
<path d="M372.18 93.2729C372.118 112.761 370.798 132.225 368.228 151.543C368.138 152.222 368.04 152.9 367.949 153.579H185.235C184.695 152.908 184.163 152.23 183.647 151.543C181.929 149.271 180.317 146.933 178.836 144.514C171.716 132.858 168.41 119.184 171.593 109.718L171.651 109.571C172.338 107.499 173.428 105.582 174.858 103.931C182.19 95.5942 197.117 96.8939 210.693 103.515C198.475 90.3059 188.713 73.607 187.894 58.6572C187.092 44.0753 194.67 33.613 202.902 24.7118C203.172 24.4175 203.442 24.1314 203.712 23.8454C203.844 23.6982 203.983 23.5593 204.113 23.4122C210.537 16.628 218.033 9.93371 228.941 10.6776C240.905 11.4949 254.219 21.426 263.581 33.0327C272.943 44.6312 279.194 57.8317 285.528 70.7135C291.87 83.5871 298.728 96.7877 308.85 107.765C295.127 90.6247 284.031 71.0977 279.865 52.0693C275.7 33.0408 279.17 14.7235 291.264 5.68342C294.937 3.02289 299.193 1.27958 303.679 0.599367C304.202 0.509456 304.734 0.435893 305.274 0.370504C316.51 -0.969945 329.955 2.83897 341.428 12.0589C354.062 22.2107 362.867 37.3157 367.287 51.6769C371.706 66.0381 372.245 79.8844 372.18 93.2729Z" fill="#F2F2F2"/>
<path d="M252.975 153.579H249.482C248.368 152.892 247.25 152.214 246.126 151.544C245.431 151.11 244.727 150.693 244.023 150.268C232.395 143.264 220.696 136.547 208.926 130.12C197.166 123.687 185.35 117.554 173.476 111.721C173.161 111.586 172.904 111.346 172.748 111.041C172.593 110.737 172.549 110.387 172.625 110.054C172.637 110.01 172.656 109.969 172.682 109.931C172.846 109.621 173.214 109.49 173.754 109.751C175.211 110.471 176.675 111.19 178.132 111.926C190.039 117.86 201.896 124.093 213.704 130.627C225.505 137.158 237.239 143.98 248.909 151.094C249.154 151.241 249.4 151.396 249.645 151.544C250.758 152.222 251.863 152.9 252.975 153.579Z" fill="white"/>
<path d="M298.024 153.579H295.864C295.373 152.901 294.89 152.222 294.399 151.544C282.861 135.573 271.325 119.601 259.792 103.63C240.905 77.482 222.024 51.3342 203.148 25.1865C203.036 25.0458 202.953 24.8848 202.903 24.7124C202.739 24.1321 203.165 23.7888 203.713 23.846C203.944 23.8777 204.166 23.9582 204.363 24.0823C204.561 24.2063 204.73 24.371 204.858 24.5653C215.447 39.229 226.034 53.8872 236.618 68.5399C255.406 94.5568 274.192 120.571 292.975 146.583C294.17 148.234 295.365 149.893 296.559 151.544C297.05 152.222 297.542 152.901 298.024 153.579Z" fill="white"/>
<path d="M346.084 140.779C345.994 144.416 345.773 147.996 345.478 151.544C345.421 152.222 345.364 152.901 345.306 153.579H343.04C343.105 152.901 343.171 152.222 343.228 151.544C343.678 146.419 343.989 141.237 344.006 135.916C343.983 121.163 342.462 106.452 339.464 92.0064C336.277 76.4526 331.739 61.2056 325.904 46.4379C319.779 30.8625 312.415 15.8019 303.883 1.40073C303.723 1.16613 303.65 0.882452 303.679 0.599709C303.769 -0.0460142 304.628 -0.242182 305.274 0.370846C305.402 0.491119 305.512 0.628688 305.602 0.779532C306.657 2.56958 307.694 4.36507 308.711 6.16601C316.932 20.6492 323.984 35.7639 329.8 51.3667C335.339 66.1845 339.574 81.4563 342.459 97.0087C345.16 111.437 346.374 126.103 346.084 140.779Z" fill="white"/>
<path d="M503.856 151.544H7.13553C5.24356 151.546 3.42958 152.297 2.09178 153.633C0.753973 154.97 0.00166191 156.782 0 158.671V494.873C0.00165974 496.762 0.753972 498.574 2.09178 499.911C3.42958 501.247 5.24356 501.998 7.13553 502H503.856C504.888 502 505.907 501.777 506.844 501.345C507.781 500.913 508.612 500.283 509.282 499.499C509.339 499.438 509.39 499.372 509.437 499.303C509.863 498.783 510.208 498.201 510.46 497.578C510.819 496.721 511.003 495.801 511 494.873V158.671C510.998 156.78 510.244 154.967 508.905 153.631C507.565 152.294 505.749 151.544 503.856 151.544ZM508.963 494.873C508.963 495.867 508.67 496.84 508.12 497.668C507.63 498.397 506.967 498.993 506.188 499.401C505.467 499.773 504.668 499.966 503.856 499.965H7.13553C5.78393 499.963 4.48813 499.426 3.5324 498.472C2.57667 497.517 2.03903 496.223 2.03739 494.873V158.671C2.03902 157.321 2.57667 156.027 3.5324 155.073C4.48814 154.118 5.78392 153.581 7.13553 153.579H503.856C505.209 153.579 506.507 154.115 507.464 155.07C508.422 156.025 508.961 157.32 508.963 158.671V494.873Z" fill="#3F3D56"/>
<path d="M509.977 180.11H1.01709V182.148H509.977V180.11Z" fill="#3F3D56"/>
<path d="M18.3561 172.938C21.7359 172.938 24.4758 170.201 24.4758 166.826C24.4758 163.45 21.7359 160.713 18.3561 160.713C14.9762 160.713 12.2363 163.45 12.2363 166.826C12.2363 170.201 14.9762 172.938 18.3561 172.938Z" fill="#3F3D56"/>
<path d="M35.9503 172.938C39.3302 172.938 42.0701 170.201 42.0701 166.826C42.0701 163.45 39.3302 160.713 35.9503 160.713C32.5705 160.713 29.8306 163.45 29.8306 166.826C29.8306 170.201 32.5705 172.938 35.9503 172.938Z" fill="#3F3D56"/>
<path d="M53.5451 172.938C56.9249 172.938 59.6648 170.201 59.6648 166.826C59.6648 163.45 56.9249 160.713 53.5451 160.713C50.1652 160.713 47.4253 163.45 47.4253 166.826C47.4253 170.201 50.1652 172.938 53.5451 172.938Z" fill="#3F3D56"/>
<path d="M226.656 353.329C220.535 349.349 217.491 340.101 218.991 331.643C220.491 323.185 226.138 315.9 232.909 312.758C236.202 311.275 239.813 310.633 243.416 310.889C247.019 311.145 250.503 312.291 253.553 314.224C259.762 318.016 268.542 320.093 271.491 327.68C273.756 333.51 270.883 345.349 267.833 351.012C265.198 355.907 260.189 358.146 255.484 359.118C250.278 360.179 244.905 360.11 239.728 358.917C234.551 357.724 229.691 355.434 225.477 352.203L226.656 353.329Z" fill="#2F2E41"/>
<path d="M223.464 398.252L218.57 406.679L217.924 407.79L216.983 409.425H202.556L203.529 407.79L206.05 403.548L211.925 393.642L218.578 396.298L223.464 398.252Z" fill="#FFB8B8"/>
<path d="M201.475 409.425L198.841 407.79L198.513 407.586L215.051 377.482C215.763 376.179 216.726 375.03 217.884 374.101C219.043 373.172 220.375 372.482 221.803 372.071C223.605 371.535 225.514 371.464 227.351 371.867C228.423 372.093 229.454 372.478 230.411 373.011C230.805 373.227 231.185 373.467 231.549 373.73C232.947 374.71 234.096 376.003 234.904 377.506C235.865 379.266 236.34 381.25 236.279 383.254C236.219 385.258 235.626 387.21 234.56 388.909L228.185 399.085L222.735 407.79L221.713 409.425H201.475Z" fill="#2F2E41"/>
<path d="M243.966 364.012C255.066 364.012 264.065 355.024 264.065 343.937C264.065 332.849 255.066 323.861 243.966 323.861C232.866 323.861 223.867 332.849 223.867 343.937C223.867 355.024 232.866 364.012 243.966 364.012Z" fill="#FFB8B8"/>
<path d="M264.142 409.425H218.963L219.167 408.844C219.053 408.493 218.946 408.141 218.848 407.79C218.742 407.422 218.652 407.046 218.57 406.678C217.836 403.257 217.839 399.718 218.578 396.298C221.074 384.053 231.033 374.106 231.033 374.106C231.205 373.975 231.377 373.853 231.549 373.73C233.03 372.646 234.638 371.746 236.336 371.049C243.733 367.984 251.491 369.218 256.704 370.804C258.519 371.352 260.294 372.027 262.015 372.823C262.62 373.109 262.948 373.289 262.948 373.289L263.463 388.99L264.085 407.79L264.142 409.425Z" fill="#458FF6"/>
<path d="M285.042 407.789L281.589 390.249L278.103 372.561C277.958 371.83 277.595 371.161 277.062 370.64C276.528 370.119 275.85 369.772 275.116 369.643L267.816 368.384L261.025 367.215C260.369 367.097 259.695 367.16 259.073 367.398C258.451 367.636 257.906 368.039 257.498 368.564C256.987 369.199 256.707 369.989 256.704 370.803C256.704 371.306 256.807 371.804 257.006 372.266C260.55 380.522 260.615 393.592 259.715 407.789C259.674 408.329 259.642 408.876 259.601 409.424H285.37L285.042 407.789Z" fill="#2F2E41"/>
<path d="M236.336 371.049C236.186 370.454 235.89 369.906 235.475 369.453C235.06 369.001 234.539 368.659 233.958 368.458C233.378 368.257 232.757 368.203 232.151 368.302C231.544 368.4 230.972 368.647 230.485 369.022L227.351 371.866L214.52 383.538C214.12 383.897 213.806 384.341 213.603 384.838C212.155 388.295 209.332 395.12 206.05 403.547C205.518 404.921 204.97 406.335 204.405 407.79C204.209 408.329 203.996 408.877 203.783 409.424H224.929C225.101 408.877 225.273 408.329 225.444 407.79C226.385 404.822 227.302 401.913 228.186 399.084C230.771 390.87 233.104 383.407 234.904 377.506C235.403 375.871 235.859 374.362 236.271 372.978C236.463 372.352 236.486 371.686 236.336 371.049Z" fill="#2F2E41"/>
<path d="M289.789 409.425H291.155L290.967 408.967L290.468 407.79L282.768 389.538L281.589 390.249L272.129 395.963L276.982 407.79L277.653 409.425H285.37H289.789Z" fill="#FFB8B8"/>
<path d="M281.982 375.062C280.94 372.338 278.884 370.122 276.244 368.878C273.604 367.633 270.584 367.456 267.816 368.384C267.463 368.501 267.116 368.638 266.777 368.793C264.839 369.657 263.186 371.055 262.015 372.823C261.536 373.529 261.144 374.289 260.844 375.087C260.313 376.472 260.062 377.949 260.106 379.432C260.149 380.915 260.487 382.374 261.098 383.726L263.463 388.99L271.924 407.79L272.661 409.425H289.788L290.967 408.967L294.027 407.79L294.453 407.626L281.982 375.062Z" fill="#2F2E41"/>
<path d="M259.751 320.88C260.452 321.09 261.202 321.063 261.886 320.804C262.57 320.545 263.149 320.068 263.534 319.447C263.898 318.814 264.113 318.105 264.161 317.377C264.209 316.648 264.089 315.918 263.811 315.243C263.24 313.894 262.341 312.71 261.196 311.798C259.895 310.622 258.311 309.803 256.599 309.421C255.743 309.237 254.858 309.239 254.004 309.426C253.149 309.614 252.345 309.983 251.646 310.508C250.959 311.051 250.45 311.786 250.184 312.619C249.918 313.452 249.906 314.346 250.152 315.186C250.672 316.693 252.082 317.703 253.489 318.455C256.282 319.945 259.362 320.819 262.522 321.02L259.751 320.88Z" fill="#2F2E41"/>
<path d="M263.661 343.337C260.43 343.782 260.845 342.139 259.551 339.149C258.257 336.158 256.524 332.608 253.277 332.305C250.615 332.056 248.422 334.182 246.266 335.76C242.423 338.573 237.244 339.95 232.789 338.262C228.334 336.575 225.238 331.271 226.929 326.822C227.455 325.594 228.228 324.486 229.2 323.568C230.172 322.65 231.323 321.941 232.58 321.485C235.103 320.589 237.783 320.218 240.455 320.393C246.397 320.583 252.225 322.073 257.528 324.758C261.188 326.616 264.75 329.273 266.139 333.131C267.527 336.99 268.441 342.412 264.471 343.456L263.661 343.337Z" fill="#2F2E41"/>
<path d="M258.1 310.267C256.503 307.49 257.821 303.68 260.435 301.824C263.048 299.969 266.554 299.787 269.672 300.531C272.756 301.307 275.582 302.879 277.865 305.09C280.149 307.301 281.811 310.073 282.684 313.128C284.007 317.984 283.22 323.2 284.341 328.107C284.938 330.722 286.065 333.188 287.653 335.352C289.24 337.516 291.254 339.333 293.571 340.69C295.888 342.048 298.459 342.917 301.125 343.244C303.791 343.572 306.495 343.351 309.072 342.595C312.429 341.61 315.84 339.217 316.171 335.738C316.518 339.733 315.606 343.736 313.562 347.188C311.519 350.639 308.446 353.366 304.773 354.986C300.448 356.788 295.624 356.905 290.939 356.785C287.887 356.707 284.764 356.524 281.948 355.344C279.999 354.456 278.248 353.189 276.796 351.616C275.344 350.044 274.22 348.198 273.492 346.186C272.058 342.143 271.671 337.803 272.366 333.57C272.827 330.277 273.744 327.05 274.001 323.735C274.257 320.42 273.77 316.881 271.725 314.259C269.679 311.636 265.771 310.297 262.862 311.913C261.693 312.562 260.75 313.623 259.48 314.042C258.209 314.462 256.409 313.725 256.525 312.394L258.1 310.267Z" fill="#2F2E41"/>
<path d="M395.254 409.424L395.409 407.789L400.025 359.826C401.538 358.643 403.163 357.611 404.878 356.744C414.378 351.963 423.544 354.251 428.502 356.229C429.817 356.743 431.086 357.364 432.299 358.085L435 407.789L435.09 409.424H395.254Z" fill="#458FF6"/>
<path d="M416.868 347.061C427.968 347.061 436.967 338.073 436.967 326.986C436.967 315.898 427.968 306.91 416.868 306.91C405.768 306.91 396.769 315.898 396.769 326.986C396.769 338.073 405.768 347.061 416.868 347.061Z" fill="#FFB8B8"/>
<path d="M433.175 339.227C434.669 337.654 435.661 335.673 436.025 333.536C436.388 331.399 436.107 329.201 435.217 327.224C434.327 325.247 432.868 323.579 431.026 322.432C429.184 321.285 427.042 320.711 424.873 320.784C422.094 320.876 419.475 322.013 416.823 322.846C412.803 324.212 408.514 324.598 404.315 323.971C400.09 323.316 396.278 321.068 393.663 317.689C391.176 314.275 390.401 309.541 392.158 305.701C394.186 301.268 398.923 298.825 403.38 296.84C405.177 295.942 407.097 295.312 409.077 294.971C410.07 294.806 411.085 294.848 412.06 295.093C413.036 295.339 413.95 295.783 414.745 296.398C415.998 297.474 416.732 299.091 418.094 300.023C419.629 301.073 421.621 301.045 423.472 301.23C427.639 301.647 431.581 303.321 434.773 306.03C437.964 308.739 440.255 312.354 441.339 316.395C442.424 320.436 442.251 324.711 440.844 328.651C439.436 332.592 436.861 336.011 433.461 338.453L433.175 339.227Z" fill="#2F2E41"/>
<path d="M407.872 365.049L404.877 356.745L404.69 356.227C404.602 355.982 404.458 355.76 404.271 355.578C404.084 355.396 403.857 355.259 403.609 355.177C403.361 355.096 403.098 355.071 402.839 355.106C402.58 355.142 402.333 355.235 402.115 355.38L398.715 357.644C398.715 357.644 376.907 357.644 375.156 370.714C375.131 370.918 375.099 371.147 375.074 371.392C375.073 371.403 375.07 371.414 375.066 371.425C374.845 372.283 370.729 388.173 367.193 407.79C367.096 408.329 366.997 408.877 366.899 409.424H414.288V409.424C415.83 389.718 414.967 371.396 407.872 365.049Z" fill="#2F2E41"/>
<path d="M464.402 407.789C461.816 387.666 458.117 371.392 458.117 371.392C458.084 371.147 458.052 370.918 458.027 370.713C456.284 357.644 434.476 357.644 434.476 357.644L431.077 355.381C430.86 355.236 430.612 355.142 430.353 355.107C430.094 355.072 429.831 355.097 429.583 355.178C429.334 355.26 429.108 355.397 428.921 355.58C428.734 355.762 428.59 355.984 428.502 356.23L425.319 365.049C418.224 371.396 417.361 389.718 418.903 409.423L418.903 409.424H464.606C464.541 408.876 464.467 408.329 464.402 407.789Z" fill="#2F2E41"/>
<path d="M80.5437 361.968L75.6829 407.789L75.5111 409.424H62.3608C62.5163 408.893 62.6717 408.345 62.8355 407.789C66.5671 395.006 71.6488 376.345 71.1002 371.4C70.2412 363.684 76.2559 361.109 76.2559 361.109L76.6323 361.183L80.5437 361.968Z" fill="#458FF6"/>
<path d="M101.752 347.825C112.852 347.825 121.851 338.837 121.851 327.749C121.851 316.662 112.852 307.674 101.752 307.674C90.6519 307.674 81.6533 316.662 81.6533 327.749C81.6533 338.837 90.6519 347.825 101.752 347.825Z" fill="#A0616A"/>
<path d="M127.769 399.697C126.756 401.564 125.925 403.524 125.29 405.55C125.053 406.269 124.824 407.021 124.611 407.789C124.455 408.321 124.316 408.868 124.177 409.424H71.166C71.2399 408.885 71.3051 408.337 71.379 407.789C74.0877 386.415 76.2805 364.722 76.6325 361.183C76.6653 360.848 76.6817 360.676 76.6817 360.676C108.449 343.953 131.632 365.825 131.632 365.825C131.632 365.825 131.665 365.981 131.714 366.283C132.221 369.34 134.807 387.191 127.769 399.697Z" fill="#458FF6"/>
<path d="M125.29 405.549L121.755 397.98L122.614 367.967L131.714 366.283L132.033 366.226C136.737 368.957 140.376 373.197 142.36 378.257C144.128 382.671 147.491 395.945 150.331 407.789C150.462 408.337 150.592 408.884 150.723 409.424H127.098L126.337 407.789L125.29 405.549Z" fill="#458FF6"/>
<path d="M157.622 274.559H41.4042C38.9114 274.562 36.5215 275.552 34.7588 277.313C32.9961 279.073 32.0045 281.46 32.0015 283.95V400.033C32.0045 402.523 32.9961 404.91 34.7588 406.671C36.5215 408.431 38.9114 409.422 41.4042 409.425H157.622C160.115 409.423 162.506 408.433 164.269 406.672C166.032 404.911 167.023 402.524 167.024 400.033V283.95C167.023 281.46 166.032 279.072 164.269 277.311C162.506 275.55 160.115 274.56 157.622 274.559ZM165.388 400.033C165.386 402.09 164.567 404.062 163.111 405.516C161.655 406.971 159.681 407.788 157.622 407.79H41.4042C39.3455 407.787 37.372 406.969 35.9162 405.515C34.4605 404.061 33.6413 402.09 33.6381 400.033V283.95C33.6413 281.894 34.4605 279.923 35.9162 278.469C37.372 277.015 39.3455 276.196 41.4042 276.193H157.622C159.681 276.195 161.655 277.013 163.111 278.467C164.567 279.922 165.386 281.894 165.388 283.95V400.033ZM75.6833 407.79L75.5115 409.425H124.177C124.316 408.869 124.455 408.321 124.611 407.79H75.6833Z" fill="#3F3D56"/>
<path d="M313.602 274.559H197.384C194.891 274.562 192.501 275.552 190.739 277.313C188.976 279.073 187.984 281.46 187.981 283.95V400.033C187.984 402.523 188.976 404.91 190.739 406.671C192.501 408.431 194.891 409.422 197.384 409.425H313.602C316.095 409.423 318.486 408.433 320.249 406.672C322.012 404.911 323.003 402.524 323.004 400.033V283.95C323.003 281.46 322.012 279.072 320.249 277.311C318.486 275.55 316.095 274.56 313.602 274.559ZM321.368 400.033C321.366 402.09 320.547 404.062 319.091 405.516C317.635 406.971 315.661 407.788 313.602 407.79H197.384C195.325 407.787 193.352 406.969 191.896 405.515C190.44 404.061 189.621 402.09 189.618 400.033V283.95C189.621 281.894 190.44 279.923 191.896 278.469C193.352 277.015 195.325 276.196 197.384 276.193H313.602C315.661 276.195 317.635 277.013 319.091 278.467C320.547 279.922 321.366 281.894 321.368 283.95V400.033ZM218.849 407.79C218.947 408.142 219.053 408.493 219.168 408.845L218.963 409.425H259.601C259.642 408.877 259.675 408.33 259.716 407.79H218.849Z" fill="#3F3D56"/>
<path d="M469.59 274.559H353.372C350.879 274.56 348.488 275.55 346.725 277.311C344.962 279.072 343.971 281.46 343.97 283.95V400.033C343.971 402.524 344.962 404.911 346.725 406.672C348.488 408.433 350.879 409.423 353.372 409.425H469.59C472.083 409.422 474.473 408.431 476.235 406.671C477.998 404.91 478.99 402.523 478.993 400.033V283.95C478.99 281.46 477.998 279.073 476.235 277.313C474.473 275.552 472.083 274.562 469.59 274.559ZM477.356 400.033C477.353 402.09 476.534 404.061 475.078 405.515C473.622 406.969 471.649 407.787 469.59 407.79H353.372C351.313 407.788 349.339 406.971 347.883 405.516C346.427 404.062 345.608 402.09 345.606 400.033V283.95C345.608 281.893 346.427 279.921 347.883 278.467C349.339 277.013 351.313 276.195 353.372 276.193H469.59C471.649 276.196 473.622 277.015 475.078 278.469C476.534 279.923 477.353 281.894 477.356 283.95V400.033ZM414.411 407.79C414.37 408.33 414.329 408.877 414.288 409.425H449.549C449.615 408.885 449.688 408.338 449.754 407.79H414.411Z" fill="#3F3D56"/>
<path d="M390.52 456.832H120.474C118.738 456.832 117.072 456.143 115.845 454.917C114.617 453.69 113.927 452.027 113.927 450.293C113.927 448.559 114.617 446.895 115.845 445.669C117.072 444.443 118.738 443.754 120.474 443.754H390.52C392.256 443.754 393.921 444.443 395.149 445.669C396.376 446.895 397.066 448.559 397.066 450.293C397.066 452.027 396.376 453.69 395.149 454.917C393.921 456.143 392.256 456.832 390.52 456.832Z" fill="#CCCCCC"/>
<path d="M314.825 240.228H196.169C194.432 240.228 192.767 239.539 191.54 238.313C190.312 237.087 189.622 235.424 189.622 233.689C189.622 231.955 190.312 230.292 191.54 229.066C192.767 227.839 194.432 227.15 196.169 227.15H314.825C316.561 227.15 318.226 227.839 319.454 229.066C320.682 230.292 321.372 231.955 321.372 233.689C321.372 235.424 320.682 237.087 319.454 238.313C318.226 239.539 316.561 240.228 314.825 240.228Z" fill="#458FF6"/>
<path d="M111.366 345.239C112.046 345.91 112.946 346.312 113.9 346.373C114.854 346.434 115.798 346.15 116.559 345.571C121.295 342.064 125.454 337.698 127.915 332.374C130.735 326.272 131.05 318.784 127.65 312.985C124.775 308.083 119.7 304.919 114.642 302.322C112.678 301.214 110.562 300.4 108.362 299.904C106.138 299.414 103.812 299.789 101.855 300.953C100.898 301.552 100.144 302.426 99.6913 303.46C99.2387 304.494 99.1086 305.64 99.3178 306.749C96.8881 303.98 93.7761 301.893 90.2902 300.696C88.0952 299.838 85.6916 299.664 83.3956 300.196C80.1857 301.106 77.8423 303.955 76.5605 307.032C75.524 309.372 75.166 311.956 75.5275 314.49C75.7176 315.751 76.1707 316.958 76.8573 318.033C77.5438 319.108 78.4486 320.027 79.5132 320.73C82.1671 322.37 85.5529 322.252 88.6007 321.582C91.6486 320.912 94.5989 319.747 97.7057 319.452C100.813 319.157 104.272 319.931 106.163 322.411C107.495 324.157 107.836 326.439 108.135 328.614L109.69 339.926C109.817 341.562 110.236 343.163 110.926 344.652C111.045 344.867 111.193 345.064 111.366 345.239Z" fill="#2F2E41"/>
</g>
<defs>
<clipPath id="clip0">
<rect width="511" height="502" fill="white"/>
</clipPath>
</defs>
</svg>
