<svg width="72" height="91" viewBox="0 0 72 91" fill="none" xmlns="http://www.w3.org/2000/svg">
<path d="M48.3186 1.69193L48.319 1.69229L70.49 24.9501C70.8278 25.3293 71.0542 25.8143 71.0542 26.3022V79.0196C71.0542 85.3594 65.8191 90.5744 59.478 90.5744H11.8261C5.48509 90.5744 0.25 85.3594 0.25 79.0196V12.6284C0.25 6.2892 5.48508 1.07422 11.8261 1.07422H46.9351C47.4471 1.07422 47.949 1.30263 48.3186 1.69193ZM49.3113 8.32575L48.8803 7.87329V8.49818V18.9112C48.8803 21.9201 51.3199 24.3351 54.3261 24.3351H63.9783H64.5617L64.1593 23.9126L49.3113 8.32575ZM45.0324 5.17207V4.92207H44.7824H11.8261C7.6016 4.92207 4.09785 8.42487 4.09785 12.6284V79.0196C4.09785 83.2467 7.62452 86.7265 11.8261 86.7265H59.478C63.7021 86.7265 67.2063 83.2462 67.2063 79.0196V28.4329V28.1829H66.9563H54.3261C49.1811 28.1829 45.0324 24.0547 45.0324 18.9112V5.17207Z" fill="#969696" stroke="white" stroke-width="0.5"/>
<path d="M17.7606 71.7266H53.5431C54.6242 71.7266 55.489 72.5941 55.489 73.6505C55.489 74.7079 54.6225 75.5744 53.5651 75.5744H17.7606C16.7032 75.5744 15.8367 74.7079 15.8367 73.6505C15.8367 72.5925 16.7032 71.7266 17.7606 71.7266Z" fill="#969696" stroke="white" stroke-width="0.5"/>
<path d="M33.7279 38.454V37.8181L33.2948 38.2838L24.3401 47.9127C24.3398 47.913 24.3395 47.9134 24.3392 47.9137C23.6065 48.6837 22.3936 48.7424 21.5816 48.009C20.8132 47.2965 20.7581 46.066 21.4856 45.3005L21.4873 45.2987L34.225 31.6265C34.2253 31.6262 34.2255 31.626 34.2258 31.6257C34.5944 31.2379 35.0949 31.0088 35.6306 31.0088C36.1654 31.0088 36.666 31.2378 37.0353 31.6257C37.0356 31.626 37.0359 31.6263 37.0362 31.6266L49.7738 45.2987L49.7755 45.3005C50.502 46.065 50.4499 47.2767 49.6755 48.012C49.3119 48.3569 48.8307 48.5305 48.3692 48.5305C47.8535 48.5305 47.353 48.3206 46.9644 47.9135C46.964 47.9132 46.9637 47.9128 46.9633 47.9124L38.0088 38.2838L37.5758 37.8181V38.454V62.1935C37.5758 63.2509 36.7099 64.1174 35.6518 64.1174C34.5945 64.1174 33.7279 63.2509 33.7279 62.1935V38.454Z" fill="#969696" stroke="white" stroke-width="0.5"/>
</svg>
