<svg width="72" height="91" viewBox="0 0 72 91" fill="none" xmlns="http://www.w3.org/2000/svg">
<path d="M48.3186 1.69193L48.319 1.69229L70.49 24.9501C70.8278 25.3293 71.0542 25.8143 71.0542 26.3022V79.0196C71.0542 85.3594 65.8191 90.5744 59.478 90.5744H11.8261C5.48509 90.5744 0.25 85.3594 0.25 79.0196V12.6284C0.25 6.2892 5.48508 1.07422 11.8261 1.07422H46.9351C47.4471 1.07422 47.949 1.30263 48.3186 1.69193ZM49.3113 8.32575L48.8803 7.87329V8.49818V18.9112C48.8803 21.9201 51.3199 24.3351 54.3261 24.3351H63.9783H64.5617L64.1593 23.9126L49.3113 8.32575ZM45.0324 5.17207V4.92207H44.7824H11.8261C7.6016 4.92207 4.09785 8.42487 4.09785 12.6284V79.0196C4.09785 83.2467 7.62452 86.7265 11.8261 86.7265H59.478C63.7021 86.7265 67.2063 83.2462 67.2063 79.0196V28.4329V28.1829H66.9563H54.3261C49.1811 28.1829 45.0324 24.0547 45.0324 18.9112V5.17207Z" fill="#969696" stroke="white" stroke-width="0.5"/>
<path d="M17.7606 71.7267H53.5431C54.6242 71.7267 55.489 72.5942 55.489 73.6506C55.489 74.708 54.6225 75.5745 53.5651 75.5745H17.7606C16.7032 75.5745 15.8367 74.708 15.8367 73.6506C15.8367 72.5926 16.7032 71.7267 17.7606 71.7267Z" fill="#969696" stroke="white" stroke-width="0.5"/>
<path d="M33.7279 38.4543V37.8184L33.2948 38.284L24.3401 47.913C24.3398 47.9133 24.3395 47.9136 24.3392 47.9139C23.6065 48.684 22.3936 48.7427 21.5816 48.0092C20.8132 47.2968 20.7581 46.0662 21.4856 45.3007L21.4873 45.2989L34.225 31.6267C34.2253 31.6265 34.2255 31.6262 34.2258 31.6259C34.5944 31.2381 35.0949 31.009 35.6306 31.009C36.1654 31.009 36.666 31.238 37.0353 31.6259C37.0356 31.6263 37.0359 31.6266 37.0362 31.6269L49.7738 45.2989L49.7755 45.3007C50.502 46.0652 50.4499 47.2769 49.6755 48.0123C49.3119 48.3572 48.8307 48.5308 48.3692 48.5308C47.8535 48.5308 47.353 48.3209 46.9644 47.9138C46.964 47.9134 46.9637 47.9131 46.9633 47.9127L38.0088 38.284L37.5758 37.8184V38.4543V62.1937C37.5758 63.2512 36.7099 64.1176 35.6518 64.1176C34.5945 64.1176 33.7279 63.2511 33.7279 62.1937V38.4543Z" fill="#969696" stroke="white" stroke-width="0.5"/>
</svg>
